<?xml version="1.0" standalone="no"?>
<!DOCTYPE svg PUBLIC "-//W3C//DTD SVG 1.1//EN" "http://www.w3.org/Graphics/SVG/1.1/DTD/svg11.dtd" >
<!--
2013-9-30: Created.
-->
<svg>
<metadata>
Created by iconfont
</metadata>
<defs>

<font id="iconfont" horiz-adv-x="1024" >
  <font-face
    font-family="iconfont"
    font-weight="500"
    font-stretch="normal"
    units-per-em="1024"
    ascent="896"
    descent="-128"
  />
    <missing-glyph />
    
    <glyph glyph-name="x" unicode="x" horiz-adv-x="1001"
d="M281 543q-27 -1 -53 -1h-83q-18 0 -36.5 -6t-32.5 -18.5t-23 -32t-9 -45.5v-76h912v41q0 16 -0.5 30t-0.5 18q0 13 -5 29t-17 29.5t-31.5 22.5t-49.5 9h-133v-97h-438v97zM955 310v-52q0 -23 0.5 -52t0.5 -58t-10.5 -47.5t-26 -30t-33 -16t-31.5 -4.5q-14 -1 -29.5 -0.5
t-29.5 0.5h-32l-45 128h-439l-44 -128h-29h-34q-20 0 -45 1q-25 0 -41 9.5t-25.5 23t-13.5 29.5t-4 30v167h911zM163 247q-12 0 -21 -8.5t-9 -21.5t9 -21.5t21 -8.5q13 0 22 8.5t9 21.5t-9 21.5t-22 8.5zM316 123q-8 -26 -14 -48q-5 -19 -10.5 -37t-7.5 -25t-3 -15t1 -14.5
t9.5 -10.5t21.5 -4h37h67h81h80h64h36q23 0 34 12t2 38q-5 13 -9.5 30.5t-9.5 34.5q-5 19 -11 39h-368zM336 498v228q0 11 2.5 23t10 21.5t20.5 15.5t34 6h188q31 0 51.5 -14.5t20.5 -52.5v-227h-327z" />
    

    
    <glyph glyph-name="bianji" unicode="&#58931;" d="M873.994 700.685l-53.626 53.63c-40.804 40.806-106.965 40.806-147.773 0l-38.66-38.659 201.404-201.401 38.655 38.652c40.805 40.817 40.805 106.979 0 147.778zM312.197 193.461v54.263l-73.105 73.098-5.312-5.313c-16.819-16.815-26.688-37.941-29.643-59.822l-15.497-52.956-10.594-6.307-37.517-176.1 199.211 34.868 10.142 19.122 64.317 20.218 1.197 4.079c7.041 4.269 13.696 9.423 19.778 15.505l5.322 5.322-74.032 74.023h-54.268zM268.447 350.178l43.75-43.746v0.397h34.831v-78.526h78.523v-34.839h-0.373l44.674-44.67 342.706 342.683-201.41 201.393-342.702-342.691z"  horiz-adv-x="1000" />

    
    <glyph glyph-name="shuaxin" unicode="&#58930;" d="M660.444 175.729c-48.438-34-105.25-50.938-163.188-50.25-7.688 0.125-15.25 0.688-22.813 1.25-3.063 0.313-6.125 0.813-9.188 1.25-6 0.75-11.813 1.5-17.625 2.688-3.563 0.625-7.125 1.625-10.563 2.438-5.688 1.25-11.313 2.5-16.875 4.125-2.625 1-5.125 1.813-7.75 2.875-6.438 2-12.813 4.25-18.938 6.813-1.375 0.625-2.75 1.125-4.125 1.688-7.188 3.313-14.313 6.688-21.25 10.313-0.25 0.188-0.625 0.313-0.875 0.5-23.375 12.875-44.688 28.688-63.438 47.563-0.313 0.313-0.563 0.688-0.938 1-5.813 5.813-11.375 11.813-16.625 18.313-1.063 1.313-2.125 2.625-3.25 4.188-38.062 47.625-61 107.938-61 173.5h73.375l-117.312 175.938-117.313-175.938h73.25c0-77.063 24.125-148.563 64.938-207.75 0.5-0.875 0.813-1.813 1.375-2.563 4.188-6.125 8.938-11.688 13.438-17.313 1.75-2.063 3.25-4.188 5.063-6.5 6.625-8 13.813-15.625 21.063-23.125 0.75-0.75 1.375-1.375 2-2.063 24.562-24.625 52.25-45.25 82.437-61.875 0.813-0.438 1.5-0.813 2.438-1.313 8.688-4.688 17.625-9 26.625-12.938 2.313-1 4.5-2 6.688-2.938 7.813-3.313 15.75-6.063 23.75-8.813 3.813-1.313 7.5-2.563 11.375-3.813 7-2 14.125-3.813 21.375-5.438 4.813-1.125 9.438-2.375 14.375-3.25 2-0.5 3.875-1.125 5.875-1.313 6.875-1.25 13.688-1.875 20.438-2.688 2.5-0.438 4.938-0.875 7.375-1.125 12.25-1.188 24.438-1.938 36.625-1.938 74.438 0 147.188 22.75 209.563 66.5 19.875 13.938 24.75 41.438 10.875 61.188-14 20.063-41.375 24.875-61.25 10.813M867.069 403.979c0 76.875-23.813 148.313-64.438 207.188-0.625 1-1 2.063-1.5 2.938-5.25 7.25-10.625 14-16.188 20.813-0.625 0.75-1.25 1.625-1.813 2.5-37.375 45-84.063 79.938-136.875 102.75-1.563 0.625-2.875 1.313-4.438 1.938-8.5 3.5-17.125 6.5-25.938 9.5-3 1-6.188 2.125-9.313 3.063-7.625 2.313-15.25 4.188-23 6-4.313 0.938-8.688 2.063-13 2.938-2.125 0.375-4.063 1-6.313 1.438-5.813 0.938-11.5 1.5-17.313 2.188-4.063 0.438-7.938 1.063-12 1.5-9.75 0.938-19.438 1.313-29.125 1.5-1.75 0-3.5 0.25-5.25 0.25-0.313 0-0.625-0.063-0.938-0.125-74.375-0.063-147-22.5-209.25-66.188-19.875-13.875-24.75-41.313-10.75-61.313 13.813-19.813 41.375-24.688 61.313-10.688 48.063 33.625 104.188 50.75 161.75 50.188 8.25-0.063 16.5-0.438 24.5-1.25 2.5-0.188 4.875-0.563 7.375-0.938 6.625-0.813 13.188-1.688 19.688-3.063 2.813-0.5 5.688-1.25 8.375-1.875 6.438-1.438 12.688-2.938 18.875-4.813 2.063-0.563 3.938-1.25 5.813-2 7.188-2.313 14.188-4.75 20.938-7.625 0.75-0.188 1.438-0.75 2.125-1 41.063-17.625 77-44.75 105.125-78.75 0.063-0.125 0.188-0.375 0.438-0.563 39.5-48.125 63.25-109.563 63.313-176.5h-73.438l117.5-176 117.188 176h-73.438z"  horiz-adv-x="1000" />

    
    <glyph glyph-name="kefu" unicode="&#58908;" d="M510.393 733.848c-146.234 0-264.753-116.032-264.753-259.204 0-143.153 118.519-259.201 264.753-259.201 146.236 0 264.755 116.048 264.755 259.201 0 143.172-118.519 259.204-264.755 259.204zM204.679 375.151v239.297c-3.353 0-6.673-0.137-9.957-0.397 54.254 117.779 175.090 199.803 315.709 199.803 140.619 0 261.457-82.024 315.71-199.804-3.284 0.261-6.604 0.398-9.956 0.398v-239.298c67.527 0 122.308 53.576 122.308 119.647 0 44.873-25.268 83.971-62.632 104.45-52.579 148.102-196.117 254.476-365.429 254.476-169.306 0-312.84-106.367-365.423-254.464-37.376-20.475-62.637-59.582-62.637-104.462 0-66.072 54.741-119.647 122.308-119.647zM774.589 237.966c-69.183-63.211-162.059-101.918-264.196-101.918-101.947 0-194.67 38.564-263.811 101.567-123.742-62.337-204.982-173.293-204.982-324.022h940.8c0 151.009-82.761 262.097-207.811 324.371z"  horiz-adv-x="1024" />

    
    <glyph glyph-name="shezhi" unicode="&#58889;" d="M986.795 423.476c0.022 24.861-14.836 43.793-36.113 47.297-21.265 3.493-89.941 14.802-97.838 16.089-7.907 1.309-16.031 9.182-17.522 13.027-1.502 3.835-10.172 25.259-13.505 33.519-3.357 8.272-2.185 18.864 4.995 29.036 7.168 10.16 45.397 63.568 55.045 77.051 9.66 13.505 9.842 39.378-5.507 55.057-15.338 15.679-54.329 53.578-64.546 63.556-10.228 9.967-35.362 9.83-48.549 0.49-13.175-9.33-81.567-58.038-81.567-58.038s-11.344-7.839-23.518-3.004c-12.174 4.825-38.036 16.009-38.036 16.009s-8.18 6.178-11.013 22.516c-2.845 16.35-12.641 74.274-16.009 94.094-3.379 19.82-23.518 33.701-43.042 33.519-19.524-0.159-65.889 0-84.571 0s-36.705-17.84-39.538-33.519c-2.833-15.69-13.153-78.689-16.009-96.085-2.867-17.408-13.017-21.026-13.017-21.026s-22.255-9.17-34.031-14.006c-11.764-4.847-17.51-3.004-34.531 8.511-17.010 11.503-50.905 35.306-71.726 49.869-20.821 14.575-43.372 9.011-56.047-4.005s-41.028-40.699-58.049-57.378c-17.010-16.679-14.348-42.713 0.66-63.386 15.019-20.685 36.796-51.69 47.047-66.23 10.252-14.541 12.334-22.187 9.511-30.515-2.833-8.351-7.555-18.864-13.005-31.539-5.473-12.663-11.025-15.519-31.698-19.354-19.751-3.652-66.469-11.286-88.064-15.143-21.606-3.835-34.884-24.383-34.884-47.57v-73.569c0-27.694 15.019-42.371 43.713-47.707 28.694-5.337 71.293-12.129 85.072-14.348 13.767-2.219 20.105-7.509 24.359-17.681 4.244-10.172 5.837-11.515 10.661-25.68 4.847-14.188 7.35-17.693-5.666-36.033-13.017-18.352-39.037-54.738-52.372-73.398-13.358-18.659-7.339-43.042 5.666-56.718 13.017-13.687 40.357-40.55 55.717-55.717 15.348-15.167 40.038-18.523 60.711-4.005 20.697 14.507 62.555 44.362 74.74 53.043 12.174 8.682 24.929 6.007 31.687 3.345 6.758-2.674 12.8-5.234 25.031-10.354 12.208-5.098 15.758-12.743 18.671-26.681 2.924-13.926 11.594-64.683 15.85-89.418 4.267-24.713 21.516-38.036 46.217-38.366 24.69-0.33 37.854-0.137 70.053 0 32.188 0.148 47.628 14.348 51.712 35.703 4.084 21.345 14.165 82.99 16.179 95.254 2.026 12.242 6.758 16.759 15.508 21.014 8.761 4.255 16.293 7.361 30.538 13.517 14.234 6.144 21.516 0.751 31.517-6.508 10.013-7.27 54.055-38.434 72.567-51.553 18.523-13.119 41.791-11.754 59.051 5.006 17.271 16.759 35.977 35.26 56.059 55.045 20.070 19.797 13.836 45.044 5.006 58.55-8.841 13.517-50.62 71.623-56.559 79.906-5.927 8.283-5.006 21.185-1.991 28.023 3.004 6.838 9.603 20.753 13.334 28.694 3.743 7.931 10.923 12.766 20.685 14.677 9.762 1.923 71.361 12.515 95.289 16.623 23.927 4.142 35.396 22.665 35.567 45.42 0.171 22.779 0.080 55.308 0.102 75.071zM943.809 346.927c0.239-6.554-5.302-12.117-10.035-12.948-4.745-0.831-71.975-12.948-92.706-16.259-20.719-3.323-37.808-17.147-44.054-31.926-4.528-10.74-6.224-15.372-12.049-30.674-5.825-15.292-5.279-36.625 2.913-48.082 8.192-11.469 53.27-73.842 57.322-80.157s4.859-13.597-1.456-19.911-46.638-46.877-53.919-53.919c-7.293-7.043-13.46-5.461-21.379 0-7.907 5.461-45.068 30.026-73.318 50.471-19.297 13.972-37.342 14.143-55.41 6.849-18.057-7.305 1.456 0.319-25.259-10.206-26.715-10.525-34.395-31.425-38.378-54.886-3.982-23.472-12.14-71.658-13.597-80.157-1.456-8.499-6.315-12.629-15.542-12.629h-73.842c-9.228 0-13.358 3.402-16.521 13.597-3.152 10.206-11.412 62.43-14.563 84.526-3.163 22.107-15.724 41.097-28.182 46.148-12.447 5.063-5.666 2.435-31.084 12.629-25.418 10.206-45.090 5.12-58.288-4.369-13.21-9.489-66.719-48.572-74.331-53.43-7.6-4.869-16.669-3.732-20.878 0.478-4.21 4.21-46.148 46.148-52.953 52.953-6.804 6.804-6.098 14.7 0 23.313 6.098 8.624 32.302 46.375 46.638 65.934 14.324 19.57 20.4 39.526 11.173 60.86-9.238 21.322-5.029 11.651-14.097 32.541-9.057 20.89-27.626 27.83-43.713 30.606-16.089 2.765-78.37 13.119-87.438 15.053-9.068 1.946-13.597 8.26-13.597 16.031v75.298c0 10.843 8.726 14.154 14.085 15.053 5.347 0.91 61.691 10.445 83.058 14.097 21.379 3.641 41.37 12.88 49.55 33.029 8.18 20.139 4.859 12.629 12.629 31.084 7.771 18.466 4.323 38.617-8.738 56.844-13.073 18.215-44.203 61.44-50.517 70.429-6.315 8.989-6.565 14.336 0.967 21.857 7.532 7.532 47.843 48.333 53.43 53.441 5.586 5.098 13.733 6.144 20.89 0.967 7.168-5.177 56.103-40.562 72.863-52.463 16.759-11.901 36.807-14.29 55.865-6.315 19.058 7.987 11.662 5.098 30.606 12.629s28.262 21.721 32.063 45.181c3.789 23.45 13.597 84.355 14.575 88.405 0.967 4.039 6.315 11.901 13.358 11.901s74.889-0.080 79.417 0c4.54 0.080 11.719-3.743 12.88-10.445 1.161-6.713 14.814-84.526 16.998-98.133 2.185-13.597 17.727-32.507 29.059-37.239 11.332-4.733 24.291-9.955 35.623-14.894 11.344-4.938 34.282-2.173 41.131 2.594 6.861 4.756 80.236 55.535 85.823 59.585 5.586 4.050 13.107 3.721 20.070-3.243s49.311-49.14 54.090-54.079c4.767-4.938 5.302-9.853 1.297-15.542-4.016-5.7-41.779-58.937-54.090-76.754-12.3-17.806-13.346-38.378-6.156-55.706 7.202-17.317 4.54-10.684 10.365-24.929 5.837-14.256 18.523-33.029 38.218-36.272 19.695-3.243 87.518-14.495 96.507-15.872 8.989-1.377 12.629-8.17 12.629-15.212s-0.239-71.168 0-77.733zM509.458 613.826c-125.667 0-227.555-101.876-227.555-227.555s101.888-227.555 227.555-227.555c125.679 0 227.555 101.876 227.555 227.555s-101.876 227.555-227.555 227.555zM509.458 198.538c-103.675 0-187.733 84.048-187.733 187.733s84.059 187.733 187.733 187.733c103.685 0 187.733-84.048 187.733-187.733s-84.048-187.733-187.733-187.733z"  horiz-adv-x="1024" />

    
    <glyph glyph-name="ordinarydownload" unicode="&#59080;" d="M514.752 71.584 270.784 410.656 404.48 410.656 404.48 687.328l220.864 0 0-276.672 133.696 0-243.968-339.072L514.752 71.584zM902.912 161.056l-84.8 0 0-162.112L206.528-1.056l0 162.112L121.088 161.056l0-248.384 781.888 0L902.976 161.056z"  horiz-adv-x="1024" />

    
    <glyph glyph-name="daochu" unicode="&#58933;" d="M276.8896 467.28064c-1.51552-1.47456-2.17088-3.85024-1.35168-5.98016 0.86016-2.17088 2.78528-3.44064 4.87424-3.44064l145.94048 0-0.32768-248.17664c0-4.21888 1.51552-8.3968 4.62848-11.59168 3.03104-3.19488 7.04512-4.79232 11.10016-4.79232l142.86848 0c4.01408 0 8.06912 1.59744 11.10016 4.79232 3.11296 3.19488 4.62848 7.41376 4.62848 11.59168l-0.32768 248.17664 145.94048 0c2.08896 0 4.13696 1.26976 4.87424 3.44064 0.8192 2.17088 0.24576 4.5056-1.35168 5.98016l-225.60768 217.53856c-2.78528 2.70336-6.5536 4.34176-10.73152 4.34176-4.096 0-7.82336-1.6384-10.6496-4.34176L276.8896 467.28064 276.8896 467.28064 276.8896 467.28064zM973.08672 138.74048l-141.47584 113.62304c-7.9872 6.47168-22.89664 11.79648-33.05472 11.79648l-81.87904 0 136.31488-141.23008-135.90528 0-69.18144-102.1952-272.34304 0-66.23232 102.23616-135.94624 0 135.49568 141.18912-83.43552 0c-10.15808 0-25.02656-5.3248-33.05472-11.79648l-141.47584-113.62304c-7.9872-6.51264-11.96032-20.02944-8.84736-30.06464l56.44288-179.52768c3.15392-10.0352 14.09024-18.26816 24.24832-18.26816l779.6736 0c10.15808 0 21.01248 8.23296 24.12544 18.30912l55.5008 179.44576C985.12896 118.67008 981.07392 132.18688 973.08672 138.74048L973.08672 138.74048z"  horiz-adv-x="1024" />

    
    <glyph glyph-name="msnui-auth-code" unicode="&#58984;" d="M924.677 609.818c-17.727 0-32.096 14.369-32.096 32.095 0 10.745-8.742 19.487-19.488 19.487h-722.187c-10.746 0-19.488-8.741-19.488-19.487 0-17.727-14.37-32.095-32.096-32.095s-32.096 14.369-32.096 32.095c0 46.14 37.54 83.679 83.682 83.679h722.187c46.142 0 83.682-37.539 83.682-83.679 0-17.727-14.37-32.095-32.096-32.095zM873.093 42.408h-722.187c-46.142 0-83.682 37.539-83.682 83.679 0 17.727 14.37 32.095 32.096 32.095s32.096-14.369 32.096-32.095c0-10.745 8.742-19.487 19.488-19.487h722.187c10.746 0 19.488 8.741 19.488 19.487 0 17.727 14.37 32.095 32.096 32.095s32.096-14.369 32.096-32.095c0-46.14-37.539-83.679-83.682-83.679zM179.364 247.308v34.348h50.593v201.432l-56.169-19.019-2.791 35.743 78.464 26.922h18.567v-245.080h40.859v-34.348h-129.522zM409.142 401.855c-8.311 10.679-12.495 25.543-12.495 42.267 0 47.352 36.675 82.613 90.059 82.613 52.885 0 90.488-32.038 90.488-84.953 0-39.431-19.034-68.215-62.651-105.816-15.315-13.006-36.702-33.416-55.708-54.311h122.543v-34.348h-186.622v18.57c28.335 31.557 66.838 70.090 97.034 97.926 32.954 29.711 46.437 51.985 46.437 77.529 0 30.626-20.459 50.141-52.018 50.141-31.556 0-50.592-19.98-50.592-44.562 0-10.679 3.257-20.892 10.23-31.587l-36.704-13.469zM700.234 316.948c14.881-25.993 33.915-40.392 58.965-40.392 32.488 0 54.776 20.879 54.776 51.536 0 30.162-17.638 45.941-46.407 45.941h-19.966v34.331h19.469c24.148 0 39.493 13.005 39.493 40.841 0 25.994-18.599 42.267-45.976 42.267-23.653 0-42.252-13.934-56.636-43.181l-31.062 19.018c18.073 38.067 48.237 59.425 87.699 59.425 51.059 0 84.944-28.798 84.944-74.739 0-28.318-13.456-47.801-37.138-60.788 27.868-10.679 44.545-31.573 44.545-63.61 0-52.916-38.501-86.334-94.675-86.334-41.788 0-70.557 19.98-89.589 52.451l31.558 23.236z"  horiz-adv-x="1024" />

    
    <glyph glyph-name="sousuo" unicode="&#58899;" d="M962.673-67.047c-35.013-35.020-91.792-35.020-126.811 0l-158.267 158.272c-65.070-41.714-141.989-66.618-225.028-66.618-231.102 0-418.458 187.349-418.458 418.458s187.355 418.458 418.458 418.458c231.115 0 418.458-187.349 418.458-418.458 0-83.034-24.898-159.952-66.612-225.035l158.26-158.26c35.020-35.020 35.020-91.797 0-126.817zM452.567 741.963c-165.070 0-298.893-133.822-298.893-298.898s133.822-298.898 298.893-298.898c165.082 0 298.898 133.822 298.898 298.898s-133.817 298.898-298.898 298.898z"  horiz-adv-x="1024" />

    
    <glyph glyph-name="js1" unicode="&#58938;" d="M29.599 646.586c0 0 52.905 25.807 94.198 25.807 40.002 0 113.554-33.549 131.618-34.84 16.774-1.291 98.069 34.84 131.618 34.84 34.84 0 92.907-32.259 120.005-34.84 27.099-2.581 81.293 32.259 126.456 34.84 45.162 2.581 80.003-34.84 113.554-34.84 33.549 0 90.327 34.84 144.523 34.84 52.904 1.291 82.583-34.84 108.391-28.387 2.58-16.776 0-76.132 0-76.132s-81.296 38.712-107.101 37.42c-25.807-1.291-92.907-37.42-127.747-37.42-34.839 0-87.744 23.228-120.004 23.228s-96.779-32.259-130.328-30.968c-32.259 1.292-74.842 29.679-114.843 29.679s-92.907-30.967-130.328-29.679c-37.42 1.292-60.647 32.259-110.974 29.679-50.323-2.581-120.004-33.549-129.038-29.679-0.002 27.099-0.002 86.454-0.002 86.454v0zM29.599 498.194c0 0 52.905 25.807 94.198 25.807 40.002 0 113.554-33.549 131.618-34.84 16.774-1.291 98.069 34.84 131.618 34.84 34.84 0 92.907-32.259 120.005-34.84 27.099-2.581 81.293 32.259 126.456 34.84 45.162 2.581 80.003-34.84 113.554-34.84 33.549 0 90.327 33.549 144.523 34.84 52.904 1.292 82.583-34.84 108.391-28.387 2.58-16.776 0-76.132 0-76.132s-81.296 38.711-107.101 37.42c-25.807-1.291-92.907-37.42-127.747-37.42-34.839 0-87.744 23.227-120.004 23.227s-96.779-32.259-130.328-30.967c-32.259 1.291-74.842 29.678-114.843 29.678s-92.907-30.967-130.328-29.678c-37.42 1.291-60.647 32.259-110.974 29.678-50.323-2.581-120.004-33.549-129.038-29.678-0.002 27.097-0.002 86.454-0.002 86.454v0zM29.599 349.801c0 0 52.905 25.807 94.198 25.807 40.002 0 113.554-33.549 131.618-34.84 16.774-1.292 98.069 34.84 131.618 34.84 34.84 0 92.907-32.259 120.005-34.84s81.293 32.259 126.456 34.84c45.162 2.581 80.003-34.84 113.554-34.84 33.549 0 90.327 33.549 144.523 34.84 52.904 1.291 82.583-34.84 108.391-28.388 2.58-16.776 0-76.131 0-76.131s-81.296 38.711-107.101 37.419c-25.807-1.291-92.907-37.419-127.747-37.419-34.839 0-87.744 23.227-120.004 23.227s-96.779-32.259-130.328-30.967c-32.259 1.291-74.842 29.678-114.843 29.678s-92.907-30.967-130.328-29.678c-37.42 1.291-60.647 32.259-110.974 29.678-50.323-2.581-120.004-33.549-129.038-29.678-0.002 27.097-0.002 86.454-0.002 86.454v0zM29.599 201.408c0 0 52.905 25.807 94.198 25.807 40.002 0 113.554-33.549 131.618-34.84 16.774-1.291 98.069 34.84 131.618 34.84 34.84 0 92.907-32.259 120.005-34.84 27.099-2.58 81.293 32.259 126.456 34.84 45.162 2.581 80.003-34.84 113.554-34.84 33.549 0 90.327 33.549 144.523 34.84 52.904 1.291 82.583-34.84 108.391-28.388 2.58-16.776 0-76.131 0-76.131s-81.296 38.711-107.101 37.419c-25.807-1.292-92.907-37.419-127.747-37.419-34.839 0-87.744 23.227-120.004 23.227s-96.779-32.259-130.328-30.967c-32.259 1.292-74.842 29.678-114.843 29.678s-92.907-30.967-130.328-29.678-60.647 32.259-110.974 29.678c-50.323-2.581-120.004-33.549-129.038-29.678-0.002 25.808-0.002 86.454-0.002 86.454z"  horiz-adv-x="1024" />

    
    <glyph glyph-name="xs" unicode="&#58880;" d="M497.527 562.517v0-40.687c-16.282 0-24.405 0-40.687-8.124-16.282 0-24.405-8.124-40.687-16.282-8.158-8.124-16.282-16.282-16.282-24.405-8.124-16.282-16.282-24.405-16.282-40.687 0-16.282 0-32.563 8.158-40.687 8.124-16.282 16.282-24.405 32.563-32.563 8.124-8.158 16.282-16.282 32.563-24.405 16.282-8.158 24.405-8.158 40.687-16.282v-113.937c-24.405 0-40.687 8.124-48.845 16.282-8.124 8.124-16.282 32.563-16.282 48.845h-48.845c0-16.282 0-32.563 8.124-48.845s16.282-24.405 24.405-32.563c8.124 0 16.282-8.124 32.563-16.282 16.282-8.158 32.563-8.158 48.845-8.158v-40.687h24.405v40.687c16.282 0 32.563 0 48.845 8.158 8.158 8.124 16.282 8.124 24.405 16.282 8.124 8.158 16.282 16.282 24.405 32.563 8.124 16.282 8.124 32.563 8.124 48.845 0 16.282 0 32.563-8.124 40.687-8.124 16.282-16.282 24.405-24.405 32.563l-32.563 24.405c-16.282 0-32.563 8.124-48.845 8.124v105.813c16.282 0 32.563-8.124 40.687-16.282 8.124-8.124 8.124-24.405 16.282-40.687h56.969c0 16.282 0 32.563-8.124 40.687-8.124 16.282-16.282 24.405-24.405 32.563-16.282 8.124-24.405 16.282-40.687 24.405-16.282 0-24.405 8.158-40.687 8.158v32.495h-16.282zM497.527 383.454c-8.124 0-16.282 0-16.282 8.124-8.124 0-16.282 8.124-16.282 8.124-8.124 0-8.124 8.124-16.282 16.282 0 8.124-8.124 8.124-8.124 16.282 0 16.282 8.124 32.563 16.282 32.563 8.124 8.124 24.405 8.124 40.687 8.124v-89.498zM521.933 318.327c0 0 8.158 0 16.282-8.124 8.124 0 16.282-8.124 16.282-8.124l16.282-16.282c0-8.124 8.124-16.282 8.124-24.405 0-16.282-8.124-32.563-16.282-40.687-8.124-8.158-24.405-16.282-40.687-16.282v113.903zM977.715 448.546l-455.782 374.409h-16.247v8.124h-24.371l-447.693-382.498c-16.282-16.282-16.282-32.563-8.124-40.687l81.374-130.219c8.124-8.124 16.282-16.282 24.405-16.282s16.282 0 24.405 8.124l24.405 16.282 65.126-325.53c8.124-16.282 16.282-24.405 32.563-24.405h455.782c16.282 0 24.405 8.124 32.563 24.405l65.092 325.53 32.563-16.282c8.124-8.124 16.282-8.124 24.405-8.124s16.282 8.124 16.282 16.282l81.374 130.219c8.158 8.124 8.158 24.405-8.124 40.653v0zM863.778 334.609v0l-40.687 24.405c-8.124 8.124-16.282 8.124-24.405 0-8.124 0-16.282-8.158-16.282-24.405l-73.25-341.811h-406.938l-73.25 349.969c0 8.124-8.124 16.282-16.282 24.405h-24.405l-40.687-32.563-48.845 81.374 406.938 341.845 415.061-341.811-56.969-81.408z"  horiz-adv-x="1024" />

    
    <glyph glyph-name="jiantouxia" unicode="&#58905;" d="M964.423625 496.504466 903.590118 556.006651 511.999488 164.332111 120.408859 556.006651 59.576375 496.504466 511.999488 43.995395Z"  horiz-adv-x="1024" />

    
    <glyph glyph-name="qiehuan" unicode="&#58934;" d="M618.688 746.688l0-213.376L64 533.312 64 448l896 0L618.688 746.688zM405.312 21.312l0 213.376L960 234.688 960 320 64 320 405.312 21.312z"  horiz-adv-x="1024" />

    
    <glyph glyph-name="jisuanqi" unicode="&#58919;" d="M807.8 834h-591.62c-31.127 0-56.347-25.199-56.347-56.269v-787.483c0-31.049 25.22-56.229 56.347-56.229h591.62c31.128 0 56.366 25.179 56.366 56.229v787.483c0 31.069-25.238 56.269-56.366 56.269zM385.22 18.382c0-15.534-12.62-28.133-28.174-28.133h-84.52c-15.574 0-28.174 12.62-28.174 28.133v84.382c0 15.534 12.62 28.133 28.174 28.133h84.501c15.574 0 28.174-12.6 28.174-28.133v-84.382zM385.22 215.243c0-15.515-12.62-28.115-28.174-28.115h-84.52c-15.574 0-28.174 12.6-28.174 28.115v84.382c0 15.534 12.62 28.115 28.174 28.115h84.501c15.574 0 28.174-12.579 28.174-28.115v-84.382zM385.22 412.124c0-15.534-12.62-28.133-28.174-28.133h-84.52c-15.574 0-28.174 12.6-28.174 28.133v84.382c0 15.534 12.62 28.133 28.174 28.133h84.501c15.574 0 28.174-12.6 28.174-28.133v-84.382zM582.433 18.382c0-15.534-12.62-28.133-28.174-28.133h-84.52c-15.574 0-28.174 12.62-28.174 28.133v84.382c0 15.534 12.62 28.133 28.174 28.133h84.501c15.574 0 28.174-12.6 28.174-28.133v-84.382zM582.433 215.243c0-15.515-12.62-28.115-28.174-28.115h-84.52c-15.574 0-28.174 12.6-28.174 28.115v84.382c0 15.534 12.62 28.115 28.174 28.115h84.501c15.574 0 28.174-12.579 28.174-28.115v-84.382zM582.433 412.124c0-15.534-12.62-28.133-28.174-28.133h-84.52c-15.574 0-28.174 12.6-28.174 28.133v84.382c0 15.534 12.62 28.133 28.174 28.133h84.501c15.574 0 28.174-12.6 28.174-28.133v-84.382zM779.646 18.382c0-15.534-12.62-28.133-28.174-28.133h-84.52c-15.574 0-28.174 12.62-28.174 28.133v84.382c0 15.534 12.62 28.133 28.174 28.133h84.501c15.574 0 28.174-12.6 28.174-28.133v-84.382zM779.646 215.243c0-15.515-12.62-28.115-28.174-28.115h-84.52c-15.574 0-28.174 12.6-28.174 28.115v84.382c0 15.534 12.62 28.115 28.174 28.115h84.501c15.574 0 28.174-12.579 28.174-28.115v-84.382zM779.646 412.124c0-15.534-12.62-28.133-28.174-28.133h-84.52c-15.574 0-28.174 12.6-28.174 28.133v84.382c0 15.534 12.62 28.133 28.174 28.133h84.501c15.574 0 28.174-12.6 28.174-28.133v-84.382zM779.646 609.006h-535.312v140.612h535.293v-140.612z"  horiz-adv-x="1024" />

    
    <glyph glyph-name="jinxingzhong" unicode="&#58909;" d="M527-96c-270 0-480 210-480 480s210 480 480 480c270 0 480-210 480-480 0-270-210-480-480-480zM527 804c-237 0-420-183-420-420s183-420 420-420 420 183 420 420-183 420-420 420zM740 270l-192 117v231c0 12-6 18-18 18h-18c-12 0-18-12-18-18v-252c0-6 6-18 12-18l207-129c12-6 27 0 33 6l12 18c-6 6-6 21-18 27v0z"  horiz-adv-x="1056" />

    
    <glyph glyph-name="duoweifenxi" unicode="&#58910;" d="M916.689 417.891c-10.898 0-21.19-2.489-30.451-6.819l-351.987 289.949c8.309 15.665 10.552 34.525 4.671 52.731-11.54 35.724-49.855 55.327-85.58 43.79-31.549-10.193-50.486-41.267-46.543-72.997l-220.777-71.319c-16.337 25.078-47.933 37.228-77.782 27.586-35.722-11.54-55.327-49.855-43.788-85.578 7.442-23.041 26.042-39.309 47.881-44.909l-19.947-429.401c-34.233-5.591-60.386-35.22-60.386-71.033 0-39.8 32.265-72.063 72.063-72.063 38.738 0 70.246 30.589 71.903 68.918l331.996 68.74c9.772-18.3 28.825-30.894 51.020-30.894 32.066 0 58.062 25.994 58.062 58.061 0 4.343-0.559 8.542-1.463 12.614l245.663 144.541c13.218-15.908 33.143-26.045 55.445-26.045 39.8 0 72.063 32.265 72.063 72.063s-32.265 72.067-72.065 72.067zM463.285 374.261c-1.827 37.109-24.69 68.646-56.997 82.865l63.141 207.956c8.452-0.603 17.149 0.328 25.706 3.092 8.731 2.821 16.481 7.259 23.066 12.849l346.473-285.408c-8.917-9.313-15.352-20.995-18.264-34.031l-383.124 12.676zM139.601 112.534c-6.612 3.761-13.856 6.524-21.563 8.038l19.89 428.196c4.039 0.532 8.086 1.38 12.102 2.676 6.098 1.97 11.682 4.77 16.765 8.153l124.037-133.302c-11.755-15.9-18.791-35.5-18.791-56.793 0-24.519 9.294-46.812 24.454-63.751l-156.893-193.218zM444.648 671.723l-63.029-207.591c-4.53 0.657-9.124 1.113-13.835 1.113-22.32 0-42.805-7.702-59.087-20.506l-123.637 132.871c10.151 14.763 14.415 33.34 10.703 51.819l218.917 70.718c6.917-12.623 17.516-22.396 29.967-28.424zM172.555 72.222c-2.882 8.844-7.408 16.937-13.249 23.906l156.668 192.938c14.942-9.645 32.7-15.305 51.807-15.305 17.416 0 33.696 4.723 47.766 12.849l96.308-110.261c-6.819-9.517-10.936-21.098-10.936-33.699 0-0.819 0.206-1.582 0.24-2.392l-328.606-68.036zM604.393 178.432c-10.632 13.472-26.916 22.284-45.41 22.284-10.162 0-19.569-2.84-27.878-7.427l-95.196 108.988c12.398 12.564 21.307 28.544 25.275 46.399l384.193-12.709c0.653-4.768 1.766-9.38 3.306-13.802l-244.29-143.734z"  horiz-adv-x="1024" />

    
    <glyph glyph-name="ditufenxi" unicode="&#58911;" d="M928.41 663.284v-0.202c8.593-2.458 16.474 6.644 21.45 11.535 4.227 7.371 17.115 19.629 25.898 19.629 4.887-1.664 0.071-13.859 5.262-18.011 0.644-0.265 4.575-5.025 3.844-5.464-2.222-5.895-6.127-44.527-3.641-46.135-0.334-3.98-0.113-6.43-3.036-9.305-3.227-4.838-11.010-1.215-15.381-1.215-1.614-2.638-6.558-4.471-7.487-7.285-3.878-11.748 16.219-30.871 12.547-43.504h-0.203c0-1.432-2.518-11.782-3.036-13.761-0.484-1.852-0.993-3.181-2.833-3.642 0-0.769-7.592 1.702-8.904 1.822-2.941 3.533-1.405 11.287-3.032 11.129-2.208-0.278-3.942-3.642-4.25-3.642-0.435-3.477-3.646-14.367-7.284-16.189-2.122-2.648-6.97-3.036-10.118-3.036v-0.203c-1.020-0.577-0.997-0.439-1.012-2.023 3.353-2.023 5.228-5.738 5.060-8.293 0.922-4.583-5.39-8.618-6.88-7.689-6.805 0-11.782 3.642-17.805 3.642v-0.203c-2.552-0.731-3.177-9.308-5.059-9.308-1.638-6.551-7.522-10.572-11.13-15.986h-0.405c-0.067-0.135-0.134-0.271-0.203-0.405-4.325-1.439-7.394-5.314-10.725-8.092 0-3.391-2.676-7.642-3.036-11.534-10.759-8.968-24.322-4.313-32.173-22.261-0.217-3.881-5.059-11.463-5.059-11.53-4.186-0.142-8.436-0.517-12.547-0.608-0.322 3.861 2.776 10.721 7.285 10.721 0 1.882-7.873 11.737-4.25 11.737 0.067 0.472 0.135 0.945 0.203 1.417h0.202c0 6.453 8.648 8.652 6.273 17.605-1.301 5.194-7.132 7.008-11.535 5.258 0-0.21-33.547-40.874-33.588-40.874-1.57-2.353-14.278-4.68-17.4-5.46-4.066-3.486-6.608-12.28-0.405-15.38 0.892-3.579 2.829-5.228 2.829-8.903 1.435-0.758 11.618 4.538 16.796 2.428 1.409-3.279 2.631-6.585 2.631-10.321h0.202c0.863-1.814 6.244-7.394 8.298-7.69v-0.203c0.285 0.015-0.079 0.147 0.202 0.203 7.734 0 7.764 18.213 22.661 18.213 6.382 1.821 12.033-4.954 19.427-2.833 4.459 1.282 7.262-0.196 10.522-1.822 0-1.154 0.877-9.511-2.226-9.511-0.783-1.174-16.69-8.061-16.999-7.889 1.384-2.353-13.883-17.887-15.986-16.391-0.513-1.719-5.663-9.173-5.663-9.308-0.739-0.55-2.226-2.713-2.226-3.441h-0.202c-0.728-1.941-2.631-14.052-2.631-14.363 0.404-0.352 0.168-0.465 0.404-0.81 0.202-0.135 0.405-0.27 0.608-0.405 0-1.042 2.227-1.697 2.227-2.226 22.414-3.036 23.312-37.055 31.362-41.077 0-0.46 0.229-0.49 0.405-1.012 5.621-4.921 12.599-7.732 19.022-12.547v-0.405c7.779-3.891-7.787-4.31-8.095-6.88 4.741-2.721 10.085-5.375 12.746-13.154h-0.202c0-8.807-19.344-16.579-23.673-21.447h-0.203v-0.607c1.663-0.619 5.063-0.405 6.88-0.405 4.808 9.031 18.906 2.173 25.493-0.405-0.116-0.409 0.026-0.176-0.202-0.405-1.293-4.85-9.916-7.349-9.916-11.332 1.642 0 6.33 5.242 7.893 2.631 0-1.623 1.758-5.722 0.202-7.285-2.271-2.694-4.478-0.472-6.475-2.226h-0.202c0-10.445 11.969-24.888-5.461-24.888-5.201-9.002-6.468-10.245-6.88-22.26-4.729-3.14-3.953-10.41-8.094-13.959-2.323 0.068-6.393 0.233-7.083-1.213 0-2.717 4.871-4.565 7.083-5.060-0.518-4.385-7.15-2.507-5.261-8.498 0.364-5.107 1.634-8.087 0.404-12.952-9.679-0.69-2.822-8.796-10.32-12.543-2.148-6.454-11.936-6.296-12.547-8.499-2.058-2.229-12.004-21.855-15.983-21.855-0.067-0.135-0.134-0.27-0.203-0.405-4.688-1.563-14.975-3.324-14.975-8.9-0.419-1.48 0.348-2.274 0.405-3.845-9.781-5.546-22.56-18.599-35.409-14.57-5.251 1.644-5.94-9.713-10.928-9.713-2.792-2.587-9.912 4.819-9.912 7.082-4.006 2.672-4.201-2.132-4.856-3.441-2.148-8.577-16.234-17.602-24.892-17.602-5.815-1.78-34.33-4.733-35.409-10.118h-0.202c0-2.477-1.734-7.893-4.856-7.893-2.676-3.211-1.030-1.941-0.203-5.261 1.679 0.026 2.998-0.161 4.249-0.405 0.863-1.51 0.694-5.715 0.405-7.488-3.942-2.177-5.475-1.998-10.118-1.821v0.203c-1.926 0.385-5.564 8.78-7.281 10.927-6.608 3.302 0.030 10.017 0.405 13.761-0.349 0.131-0.638 0.191-1.215 0.203v-0.203c-4.107-1.12-7.192-3.297-11.332-3.642v0.202c-0.712 0.188-9.608 13.479-9.916 6.678 2.158-1.079 2.74-3.050 0-3.441 0-1.285-15.458 0.484-16.795 0.608-5.183 0-24.325 5.261-22.661 13.554h-0.202c-0.791 2.514 1.589 8.416 1.618 11.13-0.539 0.472-1.079 0.944-1.618 1.416-1.735 0.173-20.237 3.576-20.237 3.642-3.021 0.757-2.287 4.302-4.043 4.857-0.938 0.832-4.73-0.255-5.261-0.608-1.515-2.268-7.619-9.916-10.927-9.916v-0.203c-2.968-0.184-5.296 0.233-7.69-1.822 0-5.369-7.176-3.238-9.511-3.238-0.865 1.038-2.946 2.253-3.441 3.238-0.877 0-7.888-2.004-7.888-2.226-5.101-1.518-8.642 3.238-13.154 3.238-0.776-1.030-4.216-4.826-5.060-4.856-1.548-1.316-9.077 1.84-10.523 0.607-2.117-0.48-1.69-2.731-1.619-5.261 2.245-1.957 2.773-9.151 2.631-11.733 2.076 0 1.952-10.34 1.417-11.737-0.67-3.366-3.432-2.259-6.070-1.821v0.202c-5.486 1.098-8.496 6.928-8.496 12.142-0.004 3.638-0.409 1.72-2.226 4.452-5.648 0-5.49-5.667-9.106-5.667v-0.203c-2.653 0.221-3.047 1.219-5.465 1.417-0.903 4.163-10.523 11.685-10.523 11.935-1.525 0.548-5.427-0.888-6.475 0-1.177 0.322-2.878 2.567-3.238 3.642h-0.202c-0.843 5.074 1.064 13.821-0.608 18.011-2.559 0.854-4.253 0.854-6.067 3.036-3.268 2.177-4.43 14.082-7.893 18.411-5.666 3.8-8.477-3.238-12.952-3.238v-0.203c-6.228 1.664-3.653 5.052-4.856 10.928-1.96 6.932 1.502 11.463 3.036 17.605 0.134 0.068 0.27 0.135 0.405 0.202 0 3.771 10.86 8.589 13.557 11.535 0.911 0.224 1.024 0.468 1.619 1.213 1.522 0.76 8.436 31.153 4.654 35.41 0 2.128-7.689 4.901-7.689 7.082-0.623 0.465-1.274 2.425-1.417 2.425 0 6.093-2.229 8.251-5.666 12.547-2.226 0.559-4.834 1.567-6.475-0.405-3.758-1.878 0.135-11.715-5.666-12.547-3.8-1.229-8.106 5.973-11.737 8.498-3.443 0-10.466 5.363-14.363 6.475v-0.203c-3.473-0.652-8.552-5.647-10.928-8.498-10.085-1.079-18.959-13.468-28.327-16.59-3.826-2.039-29.583-7.214-34.537 0-2.058 2.016 0.344 9.571 0.543 12.34-3.421 2.282-5.505 3.294-5.464 8.095-1.289 0.727-9.308 2.361-9.308 2.428-6.802 1.697-11.411 11.737-20.237 11.737 0 0.068-13.532-4.43-15.173-7.284 0-2.62 0.865-7.015-0.608-9.309-4.358-2.177-4.452-2.293-9.511-0.607-3.043 6.089 0.093 10.481 0.202 16.391-3.084 2.057-9.583 2.102-12.952 0.809-3.429-0.686-6.566-5.182-10.523-4.046-4.31 1.326-6.656 5.074-9.507 8.498-5.959 1.192-10.8 0.899-16.796 1.013-4.62 4.197-8.713 11.077-12.547 16.185-3.291 2.102-7.285-0.065-10.52 4.249-0.472 0.405-0.944 0.81-1.417 1.215-2.346 3.14-4.591 10.73-4.856 15.784-2.529 1.687-9.71-0.007-10.928 2.428-1.567 0-5.059 6.843-5.059 7.893-3.092 2.316-8.619 3.908-10.928 6.678-0.134 0.068-0.27 0.135-0.405 0.203 0 2.447-8.367 12.303-8.495 12.34-8.537-1.419-18.542-6.086-25.093 2.428-1.945 2.122-2.429 6.88-2.429 10.726-8.705 6.963-11.444 15.582-23.469 15.582-2.467 0.705-1.848 0.843-3.238 2.024 0.356 4.17-0.395 6.457 2.631 9.102v0.405c4.451 2.971 1.618 15.859 1.618 20.034h-0.202c0 5.438-0.569 2.912 1.012 6.070 4.647 0 7.693-3.542 11.733-3.642 0.484 1.724 1.012 0.637 1.012 2.833h0.203c0 8.211-2.518 15.11-3.845 23.065h-0.202c-2.019 6.175 4.857 9.531 4.857 14.367-0.509 2.961-1.030 3.058-2.227 4.047-7.517 1.504-8.525 10.775-6.876 16.59 1.899 6.719-19.322 23.569-23.272 20.034-1.549 0.109-3.617 2.807-3.441 3.036 0 3.803 3.59 14.184 1.618 17.4-3.057 1.532-12.783 9.515-14.975 12.142-0.203 0.135-0.405 0.27-0.608 0.405-3.845 5.726 0.993 11.126 6.678 12.547 3.129 6.258 1.619 12.778 1.619 19.423h-0.202c0 7.262-7.927 2.526-11.936 2.428-2.912 2.125-6.161 3.624-3.036 10.523 6.31 1.38 4.61 9.308 1.619 9.308-0.843 1.728 6.734 5.981 7.686 10.118 5.655 0 23.044 15.076 33.187 11.734 7.057-1.174 1.492-9.683 10.924-10.115 13.674 11.389 20.764 12.138 38.246 12.138v0.203c1.458 0.488 18.613 2.256 18.613 3.238 5.632 2.934 6.019 5.602 5.465 8.903 0.565 0.454 16.241 19.644 16.391 20.034 1.854 8.226 2.241 16.68 0.607 25.089h0.202c0.832 2.632 1.21 6.225-1.012 7.893-1.848 2.634-0.574 4.654 2.631 4.654 12.757 3.886 22.885-3.641 34.802-3.641 0.068 0.203 0.135 0.404 0.202 0.607 3.147 3.683-3.455 14.361 8.701 20.435 1.792 2.841 7.873 14.094 8.293 15.784h0.203c1.48 2.215 4.283 1.425 6.475 1.215 0-5.546 25.97-9.473 27.117-9.308v0.203c3.935 0.248 4.789 1.113 5.864 4.654 0.067 0-0.356 12.655 0.405 14.368h0.203c2.181 8.709 14.855 7.851 21.653 10.115v0.202c3.8 3.167 2.312 9.713 10.321 9.713 3.781 1.188 9.507-1.203 9.507-5.666h0.203c0.093-2.497 1.618-5.846 1.618-7.282-1.098-3.193 14.297-15.237 16.999-14.773 2.339-0.637 9.192-4.561 9.713-6.273 0-4.595 0.686-14.072 4.047-16.594 1.233-6.179 6.24-15.957-0.81-21.244v-0.405c-6.368-6.622-7.716-11.644-1.618-18.414 3.74-2.714 10.882-3.546 15.78-4.655 2.994 0.176 52.506-17.632 50.587-29.947h0.203c0.225-4.52 1.968-12.112 6.475-14.367 0.068-0.271 0.135-0.54 0.203-0.81h0.202c0-0.202-0.265-8.698 1.013-8.698v-0.404c0.472-0.405 0.944-0.81 1.416-1.215l0.405-0.607c5.475 0 11.591-2.428 18.011-2.428 4.901-1.462 14.521-5.261 18.613-5.261 0.068-0.135 0.135-0.271 0.203-0.405 11.842 0 23.125 0.607 34.802 0.607v-0.202c12.019-1.504 18.284-13.678 27.117-14.976 4.013 4.55 12.618-1.779 14.364-4.25v-0.202c8.672 0 10.732-4.711 15.784-8.496 1.064-1.424 2.256-1.63 4.046-1.618 2.557 7.663 53.218 18.478 53.218 25.898h0.405v0.203c8.121 2.334 18.947-4.561 28.732-2.632 1.432 4.295 10.61 12.952 13.963 15.986 3.935 3.56 19.486 15.072 17.603 17.197-1.511 5.475-10.79 29.418 3.641 29.343v-0.202c0.157-0.023 17.809-11.194 17.809-6.88 4.98 0 14.787 12.074 15.983 16.59 5.921 1.177 16.485 1.402 19.224 6.88 3.853 2.919 7.409 13.154 8.499 13.154 2.678 3.216 7.382 4.272 11.328 5.262v0.202h0.607c1.824 2.275 8.878 7.893 11.129 7.893 0 1.045 19.776 1.424 22.665 2.222 0.027 2.556-0.607 5.449-0.607 7.285-2.497 7.959-12.262 12.861-20.034 17.201-3.369 0.094-4.598-3.845-9.106-3.845-1.99-2.274-2.268-4.407-4.25-6.88-4.688 0.195-13.327 4.148-16.387 3.238v-0.203c-4.624 0-8.443-3.916-15.582-3.642-1.004 1.878-2.571 2.994-2.631 5.87 2.661 3.039 7.217 6.759 5.869 11.332 0 9.758 2.841 16.010 4.856 26.101 0.135 0.067 0.27 0.135 0.405 0.203 0.839 1.248 2.184 2.556 3.642 3.036 9.826 0 20.33-0.903 27.316 7.083 0.607 0.539 1.213 1.079 1.821 1.618 0 5.329 3.642 13.232 3.642 19.423h0.203c0 8.020 9.283 21.653 9.511 21.653 2.417 5.64-4.385 11.699-8.903 13.962 0 0.368-0.18 2.227-0.405 2.227 0.889 5.764 1.357 6.479 5.261 9.507 4.415 1.105 8.507 2.432 12.749 3.845 2.593 5.19 17.718 9.713 23.47 9.713 4.036 0.895 8.642-3.238 12.547-3.238v-0.202c7.398 0.348 11.494 0.971 18.007-1.822v-0.202c0.27-0.067 0.539-0.134 0.81-0.202v-0.203h0.404c0.214-0.192 22.665-23.549 22.665-27.922h0.202c0.135-0.405 0.271-0.81 0.405-1.215 0.338-0.27 0.674-0.539 1.012-0.809v-0.405c3.328-3.028 7.004-6.656 10.321-9.308v-0.608h0.202c0-5.416 2.896-8.293 6.678-11.13 0-0.532 0.161-0.513 0.607-0.809 0.371-1.492 1.649-8.496 3.638-8.496 0.068-0.134 0.135-0.27 0.202-0.405 4.478 0 12.88 0.979 16.391-0.405 0-2.008 8.743-0.055 11.333-0.809 0-0.409 3.552-1.837 4.047-2.429 0.427-3.983 8.54-6.228 13.149-7.284 0-4.61 6.708-18.011 12.142-18.011v0 0zM854.555 93.078c0.563 5.625 1.285 10.594 1.619 16.59h0.202c0 7.192 3.642 8.622 3.642 14.772h0.203c0 6.45 6.438 18.235 11.733 22.863 0.794 1.114 7.944 2.377 9.713 1.822v-0.203c12.925-1.844 4.655-9.402 4.655-14.972h-0.202c0-7.958 3.17-19.467 1.012-26.711 0-3.167-3.036-5.76-3.036-8.092-1.768-2.679-7.892-3.47-7.892-7.892h-0.202c-2.904-7.72 0.735-12.734-5.869-20.439h-0.202v0.202h-0.203c0 2.369-5.045 4.962-5.461 8.297h-0.202c-4.639 5.565-7.603 7.083-9.511 13.761v0 0zM639.664 9.915c7.708 0.734 24.558 7.888 32.981 4.451 2.167-0.435 6.094-2.122 6.678-4.451 1.934-2.728-3.293-9.073-7.892-22.868-0.135-0.068-0.271-0.135-0.405-0.203v-0.405c-3.692-7.39-21.128-14.237-21.65-12.547h-0.813v-0.202c-3.137-0.934-15.781 3.728-15.781 6.678-0.134 0.067-0.27 0.134-0.404 0.202-5.135 20.513 6.427 14.873 7.284 29.343v0 0zM639.664 9.915z"  horiz-adv-x="1024" />

    
    <glyph glyph-name="iconfontjiahao" unicode="&#58890;" d="M456.833 808.642v-369.474h-369.379c-30.413 0-55.167-24.657-55.167-55.167 0-30.413 24.657-55.167 55.167-55.167h369.379v-369.474c0-30.413 24.657-55.167 55.167-55.167 30.413 0 55.167 24.657 55.167 55.167v369.57h369.379c30.413 0 55.167 24.657 55.167 55.167 0 30.413-24.657 55.167-55.167 55.167h-369.379v369.379c0 30.413-24.657 55.167-55.167 55.167-30.413 0-55.167-24.657-55.167-55.167z"  horiz-adv-x="1024" />

    
    <glyph glyph-name="shanchu" unicode="&#58891;" d="M580.29 145.392v374.948c0 43.695 68.262 43.695 68.262 0v-374.948c-0.001-43.698-68.262-43.698-68.262 0v0 0zM375.44 145.392v374.948c0 43.695 68.294 43.695 68.294 0v-374.948c0-43.698-68.294-43.698-68.294 0v0 0zM955.83 690.779h-170.689v68.198c0 56.461-45.903 102.241-101.366 102.241h-342.465c-56.553 0-102.422-45.779-102.422-102.241v-68.198h-170.69c-43.76 0-43.76-68.14 0-68.14h887.634c43.728-0.001 43.728 68.14 0.001 68.14v0 0zM307.179 758.976c0 18.109 15.994 34.101 34.129 34.101h342.465c18.137 0 33.073-13.854 33.073-34.101v-68.198h-409.667v68.198zM750.979-93.217h-477.966c-56.521 0-102.39 45.775-102.39 102.236v511.322c0 20.247 15.994 34.1 34.129 34.1 18.14 0 34.133-13.853 34.133-34.1v-511.322c0-18.073 16.025-34.065 34.129-34.065h477.966c18.137 0 34.161 15.993 34.161 34.065v510.265c0 44.751 68.262 44.751 68.262 0v-510.266c0.001-56.46-45.871-102.235-102.422-102.235v0zM750.979-93.217z"  horiz-adv-x="1024" />

    
    <glyph glyph-name="mima" unicode="&#58985;" d="M521.113 824.865c-126.698 0-222.278-100.777-222.278-234.45v-82.395h-7.2c-66.6 0-120.803-55.642-120.803-123.998v-316.868c0-68.355 54.202-124.020 120.802-124.020h460.845c66.6 0 120.802 55.665 120.802 124.020v316.868c0 68.355-54.202 123.998-120.802 123.998h-3.96c-1.057 0.382-2.16 0.495-3.262 0.675v81.742c0.045 133.627-96.322 234.428-224.145 234.428v0zM521.113 788.1c108.563 0 187.425-83.137 187.425-197.708v-81.18h-372.915v81.18c0 114.57 78.008 197.707 185.49 197.707v0zM836.563 384.022v-316.868c0-48.105-37.733-87.255-84.037-87.255h-460.867c-46.35 0-84.038 39.15-84.038 87.255v316.868c0 48.082 37.688 87.232 84.038 87.232h43.965v1.215h372.893v-1.215h43.988c46.327-0.022 84.060-39.15 84.060-87.232v0zM836.563 384.022zM518.030 334.748c-29.453 0-53.325-24.615-53.325-54.99 0-20.317 10.755-38.093 26.663-47.61v-89.82c0-15.165 11.925-27.517 26.663-27.517 14.715 0 26.663 12.352 26.663 27.517v89.797c15.907 9.517 26.64 27.27 26.64 47.61-0.045 30.375-23.895 55.013-53.303 55.013v0zM518.030 334.748z"  horiz-adv-x="1024" />

    
    <glyph glyph-name="dayuhao" unicode="&#58921;" d="M744.909 386.153c-0.43 4.851-2.499 9.586-6.222 13.299l-425.527 425.558c-8.406 8.396-22.008 8.396-30.393 0-8.406-8.396-8.406-21.998 0-30.394l410.499-410.529-410.499-410.528c-8.406-8.397-8.406-21.999 0-30.394 8.406-8.397 21.987-8.397 30.393 0l425.567 425.6c4.758 4.756 6.813 11.183 6.181 17.388z"  horiz-adv-x="1024" />

    
    <glyph glyph-name="dingwei2" unicode="&#58925;" d="M512.000512 831.696462c-156.537196 0-283.436374-126.899178-283.436374-283.435351 0-47.625694 11.856026-92.422969 32.636305-131.837654l-0.1361-0.051165c0 0 185.629791-266.572288 250.936169-480.068753 74.231655 211.334219 247.799736 474.532667 247.799736 474.532667 22.620184 40.71019 35.633568 87.534636 35.633568 137.424906C795.433816 704.798307 668.536684 831.696462 512.000512 831.696462zM511.93195 308.500469c-126.354779 0-228.861408 102.506629-228.861408 228.91155 0 126.421294 102.506629 228.91155 228.861408 228.91155 126.487809 0 228.994438-102.490256 228.994438-228.91155C740.927411 411.006074 638.420783 308.500469 511.93195 308.500469z"  horiz-adv-x="1024" />

    
    <glyph glyph-name="sw1" unicode="&#58939;" d="M150.641 539.423l-73.669 40.571c-7.841 4.271-12.812 10.492-14.948 18.684-2.134 8.174-0.717 16.182 4.271 24.023 2.134 3.554 4.803 6.571 8.007 9.075 3.204 2.485 6.939 4.271 11.209 5.338 4.271 1.068 8.539 1.235 12.811 0.535 4.271 0 7.824-1.068 10.677-3.204l74.735-40.57-33.097-54.45zM955.65-33.373c2.837-3.204 4.27-6.939 4.27-11.209v-33.098c0-4.271-1.603-8.007-4.803-11.209s-6.938-4.803-11.209-4.803h-839.174c-4.271 0-8.009 1.601-11.209 4.803s-4.804 6.939-4.804 11.209v33.098c0 1.434 0.35 3.038 1.068 4.803 0.702 1.786 1.417 3.204 2.134 4.271 0.702 1.069 1.768 2.135 3.204 3.204 1.417 1.069 3.021 1.968 4.804 2.671 1.768 0.717 3.371 1.068 4.804 1.068h839.172c4.97-0.001 8.891-1.601 11.746-4.804zM830.734 35.492h-612.83v330.972c0 78.287 29.894 145.016 89.682 200.185 59.788 55.152 132.022 82.743 216.733 82.743 84.695 0 156.945-27.592 216.733-82.743 59.788-55.168 89.682-121.896 89.682-200.185v-330.972zM245.662 764.697c-4.988 7.825-6.238 15.648-3.736 23.488 2.485 7.824 7.288 14.229 14.412 19.217 2.837 1.417 5.871 2.484 9.075 3.203 3.204 0.702 6.571 1.068 10.143 1.068 1.417 0 2.837-0.183 4.271-0.535 1.417-0.367 2.836-0.903 4.271-1.601 1.417-0.717 2.671-1.434 3.736-2.134 1.068-0.717 2.303-1.434 3.736-2.134 1.417-0.717 2.671-1.601 3.736-2.671 1.068-1.068 1.953-2.134 2.669-3.204 0.702-1.068 1.417-2.317 2.134-3.736l42.706-69.398-56.586-32.030-40.571 70.467zM766.675 380.343c0 27.76-7.306 54.267-21.887 79.539-14.596 25.256-33.282 46.977-56.053 65.127-22.787 18.151-48.761 32.563-77.938 43.24-29.194 10.677-58.021 16.015-86.479 16.015-28.476 0-57.303-5.338-86.479-16.015-29.194-10.677-55.168-25.089-77.938-43.24-22.788-18.15-41.287-39.871-55.517-65.127-14.247-25.273-21.354-51.779-21.354-79.539v-279.725h483.645v279.725zM551.010 762.563h-66.195v81.144c0 3.552 0.535 6.939 1.601 10.142s2.669 6.038 4.804 8.541c2.134 2.485 4.621 4.623 7.473 6.405 2.837 1.768 5.87 3.204 9.074 4.271 3.204 1.068 6.571 1.601 10.143 1.601 9.242 0 17.083-3.036 23.488-9.075 6.405-6.055 9.61-13.346 9.61-21.886v-81.143zM749.591 695.3l-56.586 30.962 41.638 69.398c2.837 4.971 6.758 8.707 11.746 11.209 4.97 2.485 10.31 3.904 16.014 4.271 5.69 0.35 11.376-0.903 17.082-3.736 7.825-4.271 12.977-10.509 15.48-18.684 2.484-8.192 1.603-16.198-2.671-24.023l-42.704-69.398zM886.252 540.491l-32.030 54.45 54.45 40.57c1.417 0.702 3.368 1.417 5.87 2.135 2.484 0.702 4.438 1.068 5.874 1.068h6.403c10.678-1.434 18.853-6.773 24.556-16.015 4.272-7.84 5.338-15.848 3.203-24.023-2.134-8.191-6.772-14.063-13.879-17.614l-54.448-40.571zM682.585 132.738h-338.624l167.659 338.624 170.965-338.624z"  horiz-adv-x="1024" />

    
    <glyph glyph-name="guanlian" unicode="&#58926;" d="M902 24h-480c-33.135 0-60 26.865-60 60v360c0 33.135 26.865 60 60 60h90c16.575 0 30-13.44 30-30 0-16.575-13.425-30-30-30h-90v-360h480v360h-150c-16.575 0-30 13.425-30 30 0 16.56 13.425 30 30 30h150c33.135 0 60-26.865 60-60v-360c0-33.135-26.865-60-60-60zM602 264h-90c-16.56 0-30 13.425-30 30s13.44 30 30 30h90v360h-480v-360h150c16.575 0 30-13.425 30-30s-13.425-30-30-30h-150c-33.135 0-60 26.865-60 60v360c0 33.135 26.865 60 60 60h480c33.135 0 60-26.865 60-60v-360c0-33.135-26.865-60-60-60z"  horiz-adv-x="1024" />

    
    <glyph glyph-name="yiwancheng" unicode="&#58912;" d="M511.981 863.046c-264.292 0-478.543-214.25-478.543-478.543 0-264.29 214.25-478.539 478.543-478.539s478.543 214.25 478.543 478.539c0 264.292-214.251 478.543-478.543 478.543zM511.981-30.233c-229.053 0-414.737 185.684-414.737 414.737s185.684 414.737 414.737 414.737 414.737-185.684 414.737-414.737-185.684-414.737-414.737-414.737zM721.618 545.15l-315.823-315.823-135.353 135.354c-12.458 12.458-32.659 12.458-45.117 0s-12.458-32.659 0-45.117l157.912-157.912c12.458-12.458 32.659-12.458 45.117 0l338.381 338.381c12.458 12.458 12.458 32.659 0 45.117-12.459 12.461-32.659 12.461-45.117 0z"  horiz-adv-x="1024" />

    
    <glyph glyph-name="iconfontyiduyoujian0" unicode="&#58949;" d="M511.999 807.574l-423.574-264.733c0-60.392 0-47.414 0-105.893v-370.628c0-58.479 47.414-105.893 105.894-105.893h635.361c58.479 0 105.893 47.414 105.893 105.893l-0 370.627c0 58.479 0 47.983 0 105.893l-423.573 264.734zM141.372 66.32v387.173l240.001-165.002-237.485-237.485c-1.482 4.877-2.516 9.953-2.516 15.314zM829.68 13.372h-635.361c-4.059 0-7.972 0.552-11.772 1.414l243.198 243.198 86.254-59.298 86.254 59.298 243.197-243.198c-3.8-0.863-7.713-1.414-11.771-1.414zM882.626 66.32c0-5.36-1.034-10.436-2.516-15.314l-237.484 237.485 240 165.002v-387.173zM511.999 260.734l-370.627 255.633 370.11 229.505 371.143-229.504-370.626-255.634z"  horiz-adv-x="1024" />

    
    <glyph glyph-name="dingdan" unicode="&#58936;" d="M335.446 305.697c0-6.183 5.002-11.186 11.187-11.186h335.585c6.183 0 11.187 5.002 11.187 11.186 0 6.183-5.003 11.187-11.187 11.187h-335.585c-6.184-0.001-11.187-5.003-11.187-11.187zM682.218 249.766h-335.585c-6.183 0-11.187-5.002-11.187-11.187 0-6.183 5.002-11.187 11.187-11.187h335.585c6.183 0 11.187 5.002 11.187 11.187-0.001 6.184-5.003 11.187-11.187 11.187zM268.33 316.883h-44.744c-12.365 0-22.372-10.019-22.372-22.373v-44.744c0-12.354 10.007-22.373 22.372-22.373h44.744c12.365 0 22.373 10.019 22.373 22.373v44.744c0 12.353-10.006 22.373-22.373 22.373zM346.632 451.117h178.979c6.183 0 11.187 5.002 11.187 11.186 0 6.183-5.002 11.187-11.187 11.187h-178.979c-6.183 0-11.187-5.002-11.187-11.187s5.003-11.186 11.187-11.186zM346.632 384h178.979c6.183 0 11.187 5.003 11.187 11.186s-5.002 11.186-11.187 11.186h-178.979c-6.183 0-11.187-5.003-11.187-11.186s5.003-11.186 11.187-11.186zM268.33 473.489h-44.744c-12.365 0-22.372-10.019-22.372-22.373v-44.744c0-12.354 10.007-22.373 22.372-22.373h44.744c12.365 0 22.373 10.019 22.373 22.373v44.744c0 12.353-10.006 22.373-22.373 22.373zM525.612 160.277h-178.979c-6.183 0-11.187-5.002-11.187-11.186 0-6.183 5.003-11.187 11.187-11.187h178.979c6.183 0 11.187 5.002 11.187 11.187-0.001 6.184-5.003 11.187-11.187 11.187zM525.612 93.159h-178.979c-6.183 0-11.187-5.002-11.187-11.187 0-6.183 5.003-11.187 11.187-11.187h178.979c6.183 0 11.187 5.003 11.187 11.187-0.001 6.184-5.003 11.187-11.187 11.187zM268.33 160.277h-44.744c-12.365 0-22.372-10.019-22.372-22.373v-44.744c0-12.354 10.007-22.373 22.372-22.373h44.744c12.365 0 22.373 10.019 22.373 22.373v44.744c0 12.353-10.006 22.373-22.373 22.373zM346.632 607.723h178.979c6.183 0 11.187 5.002 11.187 11.186 0 6.183-5.002 11.187-11.187 11.187h-178.979c-6.183 0-11.187-5.002-11.187-11.187 0-6.184 5.003-11.187 11.187-11.187zM346.632 540.607h178.979c6.183 0 11.187 5.003 11.187 11.187 0 6.183-5.002 11.187-11.187 11.187h-178.979c-6.183 0-11.187-5.002-11.187-11.187s5.003-11.187 11.187-11.187zM268.33 630.096h-44.744c-12.365 0-22.372-10.019-22.372-22.373v-44.744c0-12.354 10.007-22.373 22.372-22.373h44.744c12.365 0 22.373 10.019 22.373 22.373v44.744c0 12.353-10.006 22.373-22.373 22.373zM782.892 692.571v49.387c0 12.354-10.007 22.372-22.372 22.372h-201.352v22.373c0 12.354-10.007 22.373-22.373 22.373h-22.373c0 12.354-10.007 22.372-22.372 22.372h-89.489c-12.365 0-22.373-10.018-22.373-22.372h-22.373c-12.365 0-22.373-10.018-22.373-22.373v-22.373h-201.352c-12.365 0-22.372-10.018-22.372-22.372v-783.032c0-12.354 10.007-22.373 22.372-22.373h626.425c12.365 0 22.373 10.019 22.373 22.373v407.345c74.13 17.37 129.383 83.71 129.383 163.15s-55.253 145.78-129.383 163.15zM744.484 361.627v-223.723h-118.198c-24.601 0-44.744-20.133-44.744-44.744v-111.862h-402.701c-12.322 0-22.372 10.049-22.372 22.373v693.542c0 12.335 10.049 22.373 22.372 22.373h156.607c0-12.353 10.007-22.373 22.373-22.373h178.979c12.365 0 22.373 10.019 22.373 22.373h162.942c12.323 0 22.373-10.038 22.373-22.373-92.679 0-167.792-75.113-167.792-167.792s75.113-167.793 167.792-167.793zM603.914-18.701v111.862c0 12.335 10.049 22.372 22.373 22.372h102.597l14.464-0.326-139.433-133.908zM469.679 809.074c12.365 0 22.372-10.018 22.372-22.372h-89.489c0 12.354 10.007 22.372 22.373 22.372h44.744zM782.892 492.159l-53.942-88.475-89.97 92.222 32.028 31.24 49.728-50.971 94.143 154.378 38.19-23.29-70.176-115.106z"  horiz-adv-x="1024" />

    
    <glyph glyph-name="iconfontguanbi2" unicode="&#59019;" d="M512 854.643c-259.932 0-470.643-210.721-470.643-470.643 0-259.932 210.711-470.643 470.643-470.643s470.643 210.711 470.643 470.643c0 259.922-210.711 470.643-470.643 470.643zM727.449 230.13c16.981-17.024 16.981-44.566 0-61.548-17.012-17.024-44.566-17.024-61.579 0l-153.87 153.858-153.914-153.858c-16.969-17.024-44.523-17.024-61.538 0-16.969 16.981-16.969 44.523 0 61.548l153.901 153.858-153.901 153.901c-16.969 16.981-16.969 44.535 0 61.548 17.012 16.981 44.566 16.981 61.538 0l153.914-153.901 153.87 153.901c17.012 16.981 44.566 16.981 61.579 0 16.981-17.012 16.981-44.566 0-61.548l-153.901-153.901 153.901-153.858z"  horiz-adv-x="1024" />

    
    <glyph glyph-name="yonghu" unicode="&#58935;" d="M958.233 57.277c-39.429 103.829-106.079 128.124-159.823 137.736-44.787 8.017-100.68 24.704-120.414 35.585-0.654 8.978-0.94 27.302 0.797 57.078 1.146 1.268 2.188 2.29 3.334 3.621l-0.593 0.532c26.463 35.502 39.143 68.857 44.849 91.395 17.137 12.066 35.114 35.604 45.667 81.047 6.114 26.32 10.675 59.655-8.221 83.481-0.429 0.593-0.879 1.146-1.35 1.677 16.933 166.981-90.086 251.259-152.85 273.243l-0.921 0.388-0.9 0.123c-23.662 7.178-46.464 10.819-67.733 10.819-5.011 0-9.632-0.225-14.193-0.573-4.643 0.287-9.325 0.573-14.132 0.573-21.248 0-44.010-3.599-67.733-10.717l-1.738-0.593c-62.866-21.903-169.906-106.263-152.911-273.243-0.49-0.532-0.982-1.084-1.328-1.677-18.978-23.826-14.336-57.159-8.221-83.481 10.594-45.442 28.488-69.063 45.668-81.047 5.645-22.373 18.242-55.319 44.276-90.556v0c0 0 0.287-0.388 0.287-0.429 1.472-1.984 2.597-3.947 4.111-5.951 1.718-28.611 1.39-46.403 0.593-55.81-19.858-10.798-75.525-27.527-120.312-35.523-53.704-9.571-120.414-33.907-159.761-137.676-6.687-17.649-4.253-36.852 6.545-52.517 40.309-58.509 253.488-70.78 425.132-70.78 171.643 0 384.864 12.27 425.336 70.903 10.798 15.584 13.17 34.787 6.545 52.375v0zM362.338 414.165c-5.297 0-27.608 3.497-40.676 59.921-10.205 43.825 0.45 50.882 8.323 50.882 3.599 0 6.606-1.472 6.606-1.472-38.898 203.302 119.72 258.621 119.72 258.621 21.862 6.545 40.186 8.896 55.319 8.896 5.072 0 9.775-0.225 14.111-0.737 4.418 0.512 9.121 0.737 14.172 0.737 15.154 0 33.499-2.332 55.319-8.896 0 0 158.658-55.299 119.72-258.621 0 0 3.006 1.472 6.708 1.472 7.873 0 18.528-6.933 8.283-50.841-13.069-56.404-35.421-59.859-40.657-59.859-0.715 0-1.125 0.062-1.125 0.062s-2.802-52.866-51.475-109.923c0-0.429-0.082-0.982-0.082-1.412-37.854-38.611-76.548-57.283-115.302-55.81-48.183 2.003-86.302 34.868-105.199 54.808 0 0.307-0.082 0.715-0.082 1.022-49.655 57.508-52.579 111.273-52.579 111.273s-0.368-0.123-1.104-0.123v0zM526.352-22.972c-204.038 0-408.055 21.698-391.572 65.116 32.864 86.711 85.239 103.133 127.102 110.598 41.822 7.526 143.483 32.886 152.461 56.853 2.721 7.22 3.743 20.615 3.886 35.646 25.584-19.183 59.859-37.323 101.048-39.184 2.29-0.123 4.581-0.225 6.77-0.225 37.2 0 73.48 13.866 108.41 40.451 0.163-15.502 1.207-29.327 3.968-36.75 8.917-23.907 110.557-49.348 152.44-56.853s94.217-23.928 127.102-110.618c16.402-43.356-187.596-65.033-391.613-65.033v0zM526.352-22.972z"  horiz-adv-x="1024" />

    
    <glyph glyph-name="riqi" unicode="&#58914;" d="M832 384.003h-106.666v-106.669h106.667v106.669zM298.667 864h-53.333v-159.998h53.333v159.998zM565.333 384.003h-106.666v-106.669h106.667v106.669zM672 810.666h-320.001v-53.331h320.001v53.331zM298.667 384.003h-106.667v-106.669h106.667v106.669zM938.667 810.666h-106.667v-53.331h53.333c29.453 0 53.333-23.879 53.333-53.333v-160.003h-853.332v160.003c0 29.453 23.877 53.333 53.333 53.333h53.333v53.331h-106.666c-29.456 0-53.333-23.877-53.333-53.331v-800.003c0-29.453 23.877-53.333 53.333-53.333h853.333c29.456 0 53.333 23.879 53.333 53.333v800.003c0 29.453-23.876 53.331-53.333 53.331zM938.667 10.669c0-29.456-23.879-53.336-53.333-53.336h-746.667c-29.456 0-53.333 23.879-53.333 53.336v479.997h853.333v-479.997zM298.667 170.666h-106.667v-106.664h106.667v106.664zM565.333 170.666h-106.666v-106.664h106.667v106.664zM778.666 864h-53.333v-159.998h53.333v159.998zM832 170.666h-106.666v-106.664h106.667v106.664z"  horiz-adv-x="1024" />

    
    <glyph glyph-name="wenjianjiafolder79" unicode="&#58900;" d="M952.949 489.299h-2.149v99.106c0 34.204-27.826 62.033-62.045 62.033h-541.808l-40.198 105.511c-4.199 10.958-14.691 18.211-26.429 18.211h-220.511c-7.537 0-14.747-2.998-20.065-8.343-5.302-5.345-8.271-12.569-8.214-20.106l0.17-157.306v-532.534c0-34.204 27.841-62.033 62.033-62.033h795.038c0.607 0 1.187 0.17 1.781 0.183h62.412c22.242 0 40.271 18.016 40.271 40.271v414.75c-0.027 22.242-18.042 40.256-40.285 40.256zM894.227 489.299h-701.759c-22.242 0-40.271-18.016-40.271-40.271v-398.629h-58.495c-3.010 0-5.473 2.461-5.473 5.473v532.703l-0.368 129.026h172.943l40.214-105.511c4.171-10.958 14.691-18.211 26.429-18.211h561.279c3.025 0 5.486-2.461 5.486-5.473v-99.106z"  horiz-adv-x="1024" />

    
    <glyph glyph-name="36dacha" unicode="&#58892;" d="M51.584 750.08c-26.048 26.048-26.048 68.352 0 94.4 26.048 26.048 68.352 26.048 94.4 0L512 478.4l366.08 366.08c26.048 26.048 68.288 26.048 94.4 0 26.048-26.048 26.048-68.352 0-94.4L606.4 384l366.08-366.08c26.048-26.048 26.048-68.288 0-94.4s-68.288-26.048-94.4 0L512 289.6l-366.08-366.08c-26.048-26.048-68.288-26.048-94.4 0s-26.048 68.288 0 94.4L417.6 384 51.584 750.08z"  horiz-adv-x="1024" />

    
    <glyph glyph-name="wenhao" unicode="&#58958;" d="M512.112 238.65c-16.959 0-33.834-6.975-45.844-18.956s-18.984-28.828-18.984-45.759 6.975-33.806 18.984-45.759c11.981-11.981 28.856-18.956 45.844-18.956s33.834 6.975 45.844 18.956c11.981 11.981 18.984 28.828 18.984 45.759s-6.975 33.806-18.984 45.759c-11.981 11.981-28.856 18.956-45.844 18.956zM511.437 646.519c-43.706 0-79.031-13.387-105.947-40.106-26.916-26.775-42.609-63.647-43.481-97.622s70.875-26.916 73.519-10.153c2.813 17.775 14.569 46.491 28.266 59.484s30.769 19.519 51.131 19.519c21.15 0 37.969-6.244 50.428-18.731s18.731-27.506 18.731-45c0-12.628-3.544-24.187-10.547-34.678-4.556-6.638-18.563-20.644-41.906-42.047s-38.981-40.669-46.744-57.769-11.7-38.925-11.7-65.475c0-2.531 0.084-9.731 0.281-21.487h72.759c-0.394 24.806 1.491 42.047 5.569 51.666 4.078 9.647 14.569 22.388 31.444 38.194 32.625 30.572 53.944 54.787 63.928 72.506 9.956 17.747 14.906 36.619 14.906 56.503 0 35.944-13.556 67.472-40.781 94.556s-63.788 40.641-109.8 40.641zM512 834c-248.034 0-450-201.853-450-450.028s201.909-449.972 450-449.972c248.119 0 450 201.797 450 449.972s-201.825 450.028-450 450.028zM511.719-8.794c-216.956 0-393.384 176.456-393.384 393.272 0 216.956 176.456 393.356 393.384 393.356s393.441-176.372 393.441-393.356c0.028-216.844-176.484-393.272-393.441-393.272z"  horiz-adv-x="1024" />

    
    <glyph glyph-name="zuidahua" unicode="&#58901;" d="M778.694061 249.703341l0.031722 0.186242 0.274246 0.476861 0.11461-0.356111L778.694061 249.703341zM778.694061 249.703341M750.987023 263.656121l0.027629 0.169869 0.246617 0.422625 0.098237-0.318248L750.987023 263.656121zM750.987023 263.656121M652.444683 207.656713l222.490304-222.490304-175.697581 0.005117c-6.6607 0.148379-13.364379-2.269693-18.446118-7.356548-9.877975-9.877975-9.877975-25.89067 0-35.763528 5.021364-5.02648 11.632945-7.467065 18.215874-7.379061l0-0.088004 236.985436 0c0.093121 0 0.180102 0.027629 0.273223 0.033769 0.503467 0 0.992607 0.11461 1.489934 0.147356 2.078335 0.148379 4.068665 0.537236 5.975085 1.156336 0.657986 0.208754 1.337461 0.350994 1.979074 0.615007 0.845251 0.350994 1.606591 0.839111 2.39556 1.27197 0.64673 0.356111 1.322112 0.641613 1.941212 1.052982 1.376347 0.920976 2.659573 1.968841 3.827165 3.136433 1.161453 1.162476 2.209318 2.450818 3.12927 3.820002 0.416486 0.620124 0.695848 1.293459 1.052982 1.935072 0.416486 0.762363 0.89437 1.480724 1.234107 2.28095 0.016373 0.037862 0.022513 0.082888 0.037862 0.12075 0.26913 0.641613 0.407276 1.315972 0.615007 1.972934 0.6191 1.919722 1.01512 3.914146 1.161453 6.003737 0.033769 0.49221 0.143263 0.975211 0.149403 1.469468 0 0.098237 0.026606 0.185218 0.026606 0.279363L961.28054 193.782727l-0.032746 0c0 6.468318-2.472308 12.936637-7.40669 17.871019-9.877975 9.877975-25.89067 9.877975-35.769668 0-5.021364-5.021364-7.459902-11.626805-7.372921-18.21178L910.698514 20.937101 688.214351 243.427404c-9.877975 9.877975-25.89067 9.877975-35.769668 0C642.566708 233.549429 642.566708 217.534687 652.444683 207.656713L652.444683 207.656713zM652.444683 207.656713M688.214351 524.568503l222.484164 222.490304 0-175.691441c-0.147356-6.6607 2.269693-13.369495 7.356548-18.451234 9.872858-9.877975 25.892717-9.877975 35.765575 0 5.02648 5.02648 7.466042 11.638061 7.377014 18.22099l0.088004 0-0.005117 236.980319c0 0.098237-0.026606 0.185218-0.026606 0.279363-0.00614 0.49835-0.115634 0.991584-0.149403 1.489934-0.147356 2.072195-0.543376 4.062526-1.156336 5.969968-0.212848 0.664126-0.350994 1.337461-0.615007 1.984191-0.350994 0.839111-0.838088 1.601474-1.27197 2.39556-0.356111 0.64673-0.641613 1.315972-1.058099 1.941212-0.914836 1.37123-1.961678 2.653433-3.12927 3.821025-1.167592 1.167592-2.450818 2.214435-3.827165 3.13541-0.61296 0.411369-1.288343 0.695848-1.929955 1.046842-0.762363 0.416486-1.480724 0.899486-2.28095 1.239224-0.037862 0.016373-0.080841 0.022513-0.12075 0.037862-0.641613 0.264013-1.314948 0.401136-1.972934 0.608867-1.918699 0.624217-3.919263 1.020236-6.002714 1.162476-0.494257 0.033769-0.976234 0.148379-1.469468 0.148379-0.099261 0.004093-0.186242 0.032746-0.279363 0.032746L702.089359 833.4105l0-0.032746c-6.469342-0.005117-12.93766-2.472308-17.872043-7.40669-9.877975-9.877975-9.877975-25.89067 0-35.769668 5.021364-5.021364 11.626805-7.459902 18.205641-7.379061l172.512029 0L652.444683 560.338171c-9.877975-9.877975-9.877975-25.89067 0-35.769668C662.323681 514.690528 678.335353 514.690528 688.214351 524.568503L688.214351 524.568503zM688.214351 524.568503M371.554294 207.661829 149.065014-14.822334l175.691441 0c6.6607 0.148379 13.364379-2.269693 18.451234-7.350408 9.877975-9.877975 9.877975-25.89067 0-35.769668-5.02648-5.022387-11.638061-7.461949-18.22099-7.372921l0-0.088004L88.00638-65.403337c-0.098237 0-0.185218 0.027629-0.279363 0.027629-0.49835 0.005117-0.992607 0.11461-1.489934 0.152473-2.073218 0.143263-4.062526 0.537236-5.969968 1.151219-0.664126 0.214894-1.337461 0.350994-1.984191 0.620124-0.839111 0.350994-1.601474 0.833995-2.39556 1.26583-0.64673 0.356111-1.315972 0.641613-1.941212 1.058099-1.37123 0.920976-2.659573 1.967818-3.821025 3.12927-1.167592 1.168616-2.214435 2.451842-3.13541 3.827165-0.411369 0.6191-0.695848 1.288343-1.046842 1.935072-0.416486 0.756223-0.899486 1.474584-1.239224 2.28095-0.016373 0.037862-0.022513 0.082888-0.037862 0.12075-0.264013 0.641613-0.401136 1.314948-0.608867 1.967818-0.624217 1.918699-1.020236 3.919263-1.162476 6.007831-0.033769 0.488117-0.148379 0.976234-0.148379 1.469468-0.004093 0.094144-0.032746 0.181125-0.032746 0.280386L62.71332 193.79296l0.032746 0c0.00614 6.469342 2.472308 12.932544 7.40669 17.872043 9.877975 9.877975 25.89067 9.872858 35.769668 0 5.021364-5.021364 7.459902-11.632945 7.379061-18.21178L113.301486 20.947334l222.484164 222.490304c9.877975 9.873882 25.89067 9.873882 35.769668 0C381.433292 233.553523 381.433292 217.540827 371.554294 207.661829L371.554294 207.661829zM371.554294 207.661829M335.785649 524.578736 113.295346 747.064946l0.005117-175.691441c0.147356-6.6607-2.27481-13.364379-7.356548-18.451234-9.877975-9.872858-25.892717-9.872858-35.770691 0-5.021364 5.02648-7.459902 11.638061-7.372921 18.22099l-0.086981 0L62.71332 808.121534c0 0.099261 0.027629 0.186242 0.027629 0.280386 0.004093 0.49835 0.119727 0.992607 0.152473 1.489934 0.147356 2.078335 0.537236 4.062526 1.156336 5.969968 0.208754 0.664126 0.344854 1.337461 0.615007 1.984191 0.350994 0.839111 0.831948 1.601474 1.27197 2.39556 0.356111 0.64673 0.635473 1.322112 1.052982 1.941212 0.920976 1.375324 1.967818 2.659573 3.13541 3.821025 1.162476 1.167592 2.444679 2.214435 3.821025 3.13541 0.6191 0.411369 1.293459 0.695848 1.935072 1.046842 0.756223 0.416486 1.474584 0.899486 2.28095 1.239224 0.037862 0.016373 0.081864 0.022513 0.12075 0.037862 0.641613 0.264013 1.314948 0.400113 1.972934 0.615007 1.912559 0.6191 3.914146 1.013073 6.002714 1.162476 0.494257 0.032746 0.976234 0.141216 1.469468 0.147356 0.094144 0 0.186242 0.027629 0.279363 0.027629l233.904261 0 0-0.033769c6.469342-0.004093 12.93766-2.471284 17.872043-7.405667 9.877975-9.877975 9.877975-25.89067 0-35.769668-5.021364-5.021364-11.626805-7.461949-18.21178-7.379061L149.065014 782.827451l222.490304-222.484164c9.877975-9.877975 9.877975-25.89067 0-35.769668C361.676319 514.699738 345.663624 514.699738 335.785649 524.578736L335.785649 524.578736zM335.785649 524.578736"  horiz-adv-x="1024" />

    
    <glyph glyph-name="gantanhao11-copy" unicode="&#58907;" d="M512-96c-265.088 0-480 214.912-480 480s214.912 480 480 480c265.088 0 480-214.912 480-480 0-265.088-214.912-480-480-480zM512 800c-229.76 0-416-186.24-416-416s186.24-416 416-416c229.76 0 416 186.24 416 416 0 229.76-186.24 416-416 416zM512 96c-35.36 0-64 28.64-64 64s28.64 64 64 64c35.36 0 64-28.64 64-64 0-35.36-28.64-64-64-64zM512 288c-17.664 0-32 28.64-32 64 0 0-32 288-32 288 0 35.36 28.64 64 64 64 35.36 0 64-28.64 64-64 0 0-32-288-32-288 0-35.36-14.336-64-32-64z"  horiz-adv-x="1024" />

    
    <glyph glyph-name="arrow-bottom" unicode="&#58893;" d="M982.682 606.58c0 0-410.944-535.178-410.944-535.178-28.559-37.198-90.476-37.198-119.035 0 0 0-410.944 535.178-410.944 535.178-26.479 34.478 6.639 77.597 59.598 77.597 0 0 821.808 0 821.808 0 52.878 0 85.997-43.118 59.517-77.597 0 0 0 0 0 0z"  horiz-adv-x="1024" />

    
    <glyph glyph-name="arrow-top" unicode="&#58894;" d="M41.318 140.087c0 0 410.944 535.178 410.944 535.178 28.559 37.198 90.476 37.198 119.035 0 0 0 410.944-535.178 410.944-535.178 26.479-34.478-6.639-77.597-59.598-77.597 0 0-821.808 0-821.808 0-52.878 0-85.997 43.118-59.517 77.597 0 0 0 0 0 0z"  horiz-adv-x="1024" />

    
    <glyph glyph-name="nstrument" unicode="&#58920;" d="M424.25 238.364c-32.344-56.062-10.594-102.188 34.266-128.063s95.719-21.75 128.063 34.313c32.344 56.016 236.578 556.219 218.813 566.484-17.719 10.266-348.797-416.672-381.141-472.734zM512 594.614c20.531 0 40.547-1.781 60.047-5.063 20.531 25.688 43.547 54 65.906 80.953-39.938 11.578-82.078 17.859-125.953 17.859-262.828 0-468.75-221.625-468.75-504.563 0-17.438 0.797-34.828 2.297-51.797 2.297-25.781 25.313-44.766 50.859-42.516 25.781 2.344 44.813 25.078 42.516 50.859-1.266 14.203-1.922 28.828-1.922 43.453 0 230.344 164.766 410.813 375 410.813zM850.391 536.067c-13.078-35.156-26.906-70.969-39.094-101.953 47.672-68.906 75.703-155.297 75.703-250.313 0-14.859-0.656-29.813-1.969-44.297-2.344-25.781 16.641-48.563 42.422-50.953 1.453-0.141 2.859-0.187 4.313-0.187 23.953 0 44.391 18.328 46.594 42.609 1.594 17.344 2.391 35.109 2.391 52.828 0 138.328-49.313 261.984-130.359 352.266z"  horiz-adv-x="1024" />

    
    <glyph glyph-name="monitor" unicode="&#58881;" d="M217.156 336.145c42.257-15.974 89.498 5.325 105.472 47.582 29.559 78.234 105.677 130.799 189.372 130.799s159.812-52.565 189.372-130.867c12.356-32.7 43.486-52.907 76.527-52.907 9.626 0 19.388 1.707 28.945 5.325 42.257 15.974 63.556 63.147 47.582 105.404-26.010 68.813-71.68 127.59-132.028 170.052-61.85 43.622-134.622 66.628-210.398 66.628-75.776 0-148.548-23.006-210.398-66.492-60.348-42.462-106.018-101.308-132.028-170.121-15.974-42.257 5.325-89.429 47.582-105.404zM207.872 427.076c34.816 91.955 111.411 164.796 205.005 194.697 21.436 6.963 44.51-4.915 51.405-26.419 6.895-21.504-4.983-44.51-26.487-51.405-70.042-22.46-127.386-76.937-153.463-145.749-6.144-16.384-21.709-26.487-38.229-26.487-4.779 0-9.694 0.819-14.473 2.662-21.094 7.987-31.744 31.607-23.757 52.702zM547.226 328.226c2.321-4.983 3.482-10.445 3.482-16.111 0-21.299-17.34-38.707-38.707-38.707-21.367 0-38.707 17.408-38.707 38.707v154.283c0 3.209 2.253 6.007 5.461 6.69 3.14 0.614 6.281-1.024 7.578-4.028l60.894-140.834zM916.89 867.874h-809.779c-43.691 0-79.121-35.43-79.121-79.121v-809.506c0-43.691 35.43-79.121 79.121-79.121h809.779c43.691 0 79.121 35.43 79.121 79.121v809.506c-0.068 43.691-35.499 79.121-79.121 79.121zM440.388-10.991c-25.054 0-45.397 20.412-45.397 45.397s20.412 45.397 45.397 45.397c25.054 0 45.397-20.343 45.397-45.397s-20.343-45.397-45.397-45.397zM583.612-10.991c-25.054 0-45.397 20.412-45.397 45.397s20.412 45.397 45.397 45.397c25.054 0 45.397-20.343 45.397-45.397s-20.412-45.397-45.397-45.397zM914.705 168.687h-805.41v617.95h805.478v-617.95z"  horiz-adv-x="1024" />

    
    <glyph glyph-name="yl1" unicode="&#58940;" d="M856.93 199.595c0-163.932-132.83-296.764-296.759-296.764-163.875 0-296.764 132.831-296.764 296.764 0 163.871 181.379 469.839 296.764 667.698 107.199-197.859 296.759-503.827 296.759-667.698zM283.078 510.28c0-71.428-57.943-129.37-129.37-129.37-71.428 0-129.376 57.942-129.376 129.37 0 71.438 79.033 204.832 129.376 291.079 46.703-86.247 129.37-219.642 129.37-291.079zM997.746 592.771c0-35.083-28.445-63.449-63.444-63.449-35.019 0-63.44 28.365-63.44 63.449 0 35.010 38.773 100.426 63.44 142.65 22.936-42.225 63.444-107.641 63.444-142.65zM220.601 0.143c0-21.914-17.765-39.608-39.613-39.608-21.908 0-39.674 17.695-39.674 39.608 0 21.848 24.279 62.797 39.674 89.188 14.314-26.391 39.613-67.34 39.613-89.188z"  horiz-adv-x="1024" />

    
    <glyph glyph-name="analyzefenxi" unicode="&#58915;" d="M974.24 828.48c11.808 0 17.76-5.952 17.76-17.856s-5.952-17.76-17.76-17.76h-924.48c-11.808 0-17.76 5.952-17.76 17.76s5.952 17.856 17.76 17.856h408.864v17.76c0 11.808 5.952 17.76 17.856 17.76h71.040c11.808 0 17.76-5.952 17.76-17.76v-17.76h408.96zM903.104 757.344c11.808 0 17.76-5.952 17.76-17.76v-640.032c0-11.808-5.952-17.76-17.76-17.76h-373.344v-11.136l137.76-135.552c8.928-8.928 8.928-17.76 0-26.688-5.856-2.976-10.368-4.416-13.344-4.416-2.976 0-7.392 1.44-13.344 4.416l-128.832 131.136-128.928-131.136c-5.856-2.976-10.368-4.416-13.248-4.416-2.976 0-7.488 1.44-13.344 4.416-8.928 8.928-8.928 17.76 0 26.688l137.76 135.552v11.136h-373.344c-11.808 0-17.76 5.952-17.76 17.76v640.032c0 11.808 5.952 17.76 17.76 17.76h782.208zM885.344 721.824h-746.688v-604.416h746.688v604.416zM812 568.416c1.44-1.44 2.208-3.648 2.208-6.624v-106.656c0-11.808-5.952-17.76-17.76-17.76s-17.76 5.856-17.76 17.76v64.416l-111.168-113.28c-8.928-8.928-17.76-8.928-26.688 0l-57.696 59.904-164.448-166.656c-8.928-8.928-17.76-8.928-26.688 0l-57.792 60-93.312-95.52c-5.952-2.976-10.368-4.416-13.344-4.416s-7.392 1.44-13.344 4.416c-8.928 8.928-8.928 17.76 0 26.688l106.656 106.656c8.928 8.928 17.76 8.928 26.688 0l57.792-60 164.448 166.656c8.928 8.928 17.76 8.928 26.688 0l57.792-60 100.032 100.032h-64.512c-11.808 0-17.76 5.952-17.76 17.76s5.952 17.76 17.76 17.76h106.656c2.976 0 5.184-0.768 6.72-2.208 5.856 0 8.832-2.976 8.832-8.928z"  horiz-adv-x="1024" />

    
    <glyph glyph-name="meitanshengchan01" unicode="&#58916;" d="M981.227848 734.741269c-4.863774-3.869121-6.120394-7.649214-5.713119-13.623275 1.031493-14.85022-2.689249-28.149107-15.801894-37.157271-6.528694-4.492314-13.948687-6.511297-21.74628-7.526417-11.903098-1.538029-23.831778-1.11745-35.297924 1.90335-19.342534 5.096065-36.729529 20.066011-34.704406 46.404889l-0.540306 0.069585-0.51063-0.192382c-6.096858-15.162328-20.546965-22.675442-38.96136-20.324908-8.697079 1.11438-17.231453 2.914376-25.327852 6.296403-3.431146 1.441838-5.868661 0.941442-8.872065-1.38965-12.088316-9.376555-25.330922-16.395412-40.784892-18.596544-7.91425-1.136893-15.470343-0.085958-22.788006 2.927679-1.687432 0.689708-2.980891 1.727341-3.968381-0.971118-5.142114-14.028505-16.004509-22.598694-28.835745-28.868491-4.572132-2.231831-6.05081-4.724605-5.590322-9.721409 0.663102-7.191796-0.218988-14.309914-4.317329-20.686135-1.409093-2.201132-3.056616-3.975545-5.328355-5.202489-6.319939-3.408633-8.242731-2.499937-9.213849 4.439102-3.189645 22.807449-4.177136 45.598524 1.355881 68.211545 2.473331 10.125615 6.65763 19.442818 14.807241 26.435069 1.919722 1.644453 2.480494 3.587712 2.88777 6.000668 2.65548 15.507182 7.884574 29.982872 18.430768 42.021046 15.941064 18.215874 36.776601 24.448832 60.127426 23.331381 6.42841-0.304945 10.178827 0.88823 13.994736 6.617721 17.60189 26.448372 46.447868 37.114293 77.262688 29.207206 4.569062-1.163499 8.388041-0.914836 12.70844 1.213641 14.369266 7.072069 29.478382 11.895935 45.62206 12.754488 31.232328 1.674129 52.296063-11.537777 64.637136-40.234353 5.069459-11.786441 7.828292-24.326035 11.093662-36.59036C999.837694 756.547925 992.925261 744.041076 981.227848 734.741269zM726.993562 602.380706c-0.192382-87.580684-0.106424-175.154205-0.225127-262.73489-0.00614-4.545526 1.034563-7.052626 5.54018-9.200546 32.025391-15.254425 63.831794-30.986735 95.816253-46.331211 3.928472-1.890047 5.079692-4.058432 5.072529-8.318456-0.128937-116.705002-0.1361-233.416144 0-350.120123 0.00614-4.687766-0.898463-6.130627-5.928013-6.130627-261.734096 0.1361-523.471262 0.1361-785.211499 0.013303-4.840238 0-6.04467 1.233084-6.04467 6.053879 0.125867 225.654366 0.13303 451.294406-0.013303 676.93854-0.00614 5.182023 1.306762 6.395664 6.398734 6.362918 37.528732-0.218988 75.061556-0.1361 112.586195-0.042979 3.614317 0.00614 6.79066-0.792039 10.026354-2.371 138.056286-67.196425 276.140201-134.343731 414.223093-201.486944 1.714038-0.831948 3.457752-1.598404 6.107091-2.812045l0 7.344269c0 87.185688 0.066515 174.381609-0.152473 261.571391-0.010233 5.805216 1.651616 7.015787 7.118118 6.856152 13.5936-0.408299 27.217898-0.278339 40.824801-0.050142 4.01136 0.076748 5.285377-0.948605 5.235235-5.106298-0.218988-19.2269 0.085958-38.44766-0.211824-57.674561-0.079818-4.976338 0.951675-6.564509 6.28617-6.488785 25.267477 0.331551 50.559513 0.013303 75.833129 0.291642C725.458603 608.998427 727.006865 607.841068 726.993562 602.380706zM195.806571 258.53959c0.013303 4.999874-1.49505 5.988388-6.179746 5.928013-19.635199-0.265036-39.272445-0.278339-58.904575 0-4.721535 0.066515-6.160303-0.921999-6.130627-5.921873 0.211824-44.067658 0.125867-88.144526 0.125867-132.211161 0-44.070728 0.079818-88.137363-0.119727-132.211161-0.019443-4.708232 1.349741-5.729491 5.825682-5.676279 19.823488 0.23536 39.654138 0.229221 59.484789 0 4.409426-0.042979 5.91164 0.865717 5.898337 5.669116C195.651029 82.261795 195.644889 170.396087 195.806571 258.53959zM296.437479 264.44816c-19.823488-0.211824-39.660278-0.258896-59.484789 0.019443-4.748141 0.066515-6.157233-0.984421-6.130627-5.948479 0.211824-43.878346 0.125867-87.756693 0.125867-131.638109 0-44.26311 0.046049-88.525196-0.089028-132.791375-0.010233-4.091178 0.603751-5.732561 5.281283-5.662977 20.211321 0.288572 40.440038 0.229221 60.651358 0.026606 4.018523-0.042979 5.241374 0.954745 5.238304 5.112438-0.119727 88.538499-0.13303 177.060625 0.019443 265.589914C302.060547 263.781988 300.565497 264.488069 296.437479 264.44816zM408.265404 259.696949c0.00614 3.965312-1.25969 4.764514-4.930289 4.734838-20.023032-0.165776-40.052205-0.321318-60.068074 0.076748-5.513574 0.115634-6.197142-1.747807-6.183839-6.531763 0.182149-43.878346 0.106424-87.756693 0.106424-131.634016 0-43.871183 0.109494-87.74953-0.146333-131.627876-0.032746-5.337565 1.499144-6.355755 6.478552-6.28003 19.823488 0.281409 39.664372 0.222057 59.493999 0.019443 3.965312-0.032746 5.258771 0.858554 5.254677 5.066389C408.145677 82.254631 408.145677 170.972209 408.265404 259.696949z"  horiz-adv-x="1024" />

    
    <glyph glyph-name="fengxi" unicode="&#58882;" d="M161.737 66.592h96.703c16.868 0 30.537 13.673 30.537 30.535v430.921c0 16.868-13.673 30.537-30.537 30.537h-96.703c-16.868 0-30.537-13.673-30.537-30.537v-430.919c-0.002-16.865 13.671-30.537 30.537-30.537zM472.398 66.592h96.703c16.868 0 30.537 19.988 30.537 44.646v630.037c0 24.661-13.673 44.65-30.537 44.65h-96.703c-16.865 0-30.537-19.99-30.537-44.65v-630.037c0-24.658 13.671-44.646 30.537-44.646zM783.058 66.592h96.703c16.868 0 30.537 18.571 30.537 41.491v585.457c0 22.915-13.673 41.489-30.537 41.489h-96.703c-16.868 0-30.537-18.573-30.537-41.489v-585.457c-0.002-22.917 13.671-41.491 30.537-41.491zM27.712 15.695h980.599v-50.895h-980.599v50.895z"  horiz-adv-x="1024" />

    
    <glyph glyph-name="zuixiaohua" unicode="&#58902;" d="M666.932 552.998h225.335c14.732 0 28.165-13.435 28.165-28.166 0-14.732-14.9-28.165-29.66-28.165h-225.335c-14.732 0-26.673 13.435-26.673 28.165 0 14.733 13.435 28.166 28.166 28.166v0zM666.932 552.998zM666.932 806.501c14.732 0 28.165-13.435 28.165-28.166v-253.503c0-14.732-14.9-28.165-29.66-28.165-14.758 0-26.673 11.946-26.673 26.673v254.407c0 14.758 13.435 28.755 28.166 28.755v0zM666.932 806.501zM666.932 496.667c-6.759 0-13.522 2.425-18.957 7.324-11.522 10.481-12.338 28.282-1.885 39.797l281.664 309.841c10.452 11.489 28.281 12.334 39.803 1.886 11.521-10.48 12.338-28.281 1.886-39.802l-281.669-309.837c-5.548-6.109-13.212-9.211-20.842-9.211v0zM666.932 496.667zM357.097 552.998h-225.334c-14.733 0-28.166-13.435-28.166-28.166 0-14.732 14.928-28.165 29.66-28.165h225.335c14.732 0 26.673 13.435 26.673 28.165-0.001 14.733-13.436 28.166-28.166 28.166v0zM357.097 552.998zM357.097 806.501c-14.732 0-28.165-13.435-28.165-28.166v-253.503c0-14.732 14.928-28.165 29.66-28.165s26.673 11.946 26.673 26.673v254.407c-0.001 14.758-13.436 28.755-28.166 28.755v0zM357.097 806.501zM357.097 496.667c6.759 0 13.522 2.425 18.929 7.324 11.521 10.481 12.334 28.282 1.886 39.797l-281.668 309.841c-10.421 11.489-28.249 12.334-39.771 1.886-11.521-10.48-12.337-28.281-1.886-39.802l281.664-309.837c5.58-6.109 13.211-9.211 20.846-9.211v0zM357.097 496.667zM666.932 214.996h225.335c14.732 0 28.165 13.439 28.165 28.166 0 14.732-14.9 28.172-29.66 28.172h-225.335c-14.732 0-26.673-13.44-26.673-28.172 0-14.727 13.435-28.166 28.166-28.166v0zM666.932 214.996zM666.932-38.506c14.732 0 28.165 13.44 28.165 28.172v253.499c0 14.732-14.9 28.172-29.66 28.172-14.758 0-26.673-11.947-26.673-26.678v-254.402c0-14.759 13.435-28.761 28.166-28.761v0zM666.932-38.506zM666.932 271.334c-6.759 0-13.522-2.426-18.957-7.325-11.522-10.481-12.338-28.281-1.885-39.803l281.664-309.836c10.452-11.489 28.281-12.334 39.803-1.886 11.521 10.48 12.338 28.281 1.886 39.802l-281.669 309.838c-5.548 6.109-13.212 9.211-20.842 9.211v0zM666.932 271.334zM357.097 214.996h-225.334c-14.733 0-28.166 13.439-28.166 28.166 0 14.732 14.928 28.172 29.66 28.172h225.335c14.732 0 26.673-13.44 26.673-28.172-0.001-14.727-13.436-28.166-28.166-28.166v0zM357.097 214.996zM357.097-38.506c-14.732 0-28.165 13.44-28.165 28.172v253.499c0 14.732 14.928 28.172 29.66 28.172s26.673-11.947 26.673-26.678v-254.402c-0.001-14.759-13.436-28.761-28.166-28.761v0zM357.097-38.506zM357.097 271.334c6.759 0 13.522-2.426 18.929-7.325 11.521-10.481 12.334-28.281 1.886-39.803l-281.668-309.836c-10.449-11.489-28.249-12.334-39.797-1.886-11.522 10.48-12.339 28.281-1.89 39.802l281.668 309.837c5.606 6.11 13.237 9.212 20.873 9.212v0zM357.097 271.334z"  horiz-adv-x="1024" />

    
    <glyph glyph-name="shousuo2" unicode="&#58922;" d="M859.392-64.975c8.704 0 17.446 3.034 24.515 9.215 15.489 13.547 17.060 37.085 3.513 52.573l-346.962 396.651 346.425 379.134c13.878 15.189 12.818 38.756-2.373 52.636-15.189 13.877-38.757 12.817-52.636-2.373l-391.362-428.315 390.825-446.793c7.366-8.421 17.684-12.729 28.059-12.729zM548.257-64.975c8.704 0 17.446 3.034 24.515 9.215 15.489 13.547 17.060 37.085 3.513 52.573l-346.962 396.651 346.425 379.134c13.878 15.189 12.818 38.756-2.373 52.636-15.19 13.877-38.756 12.817-52.636-2.373l-391.361-428.315 390.825-446.793c7.366-8.421 17.684-12.729 28.058-12.729z"  horiz-adv-x="1024" />

    
    <glyph glyph-name="qh" unicode="&#58895;" d="M749.278 508.126v0 0l-96.106 96.1c-7.908 7.915-21.437 2.31-21.437-8.875v-74.669c0-6.935-5.618-12.557-12.557-12.557h-368.439c-6.932 0-12.557-5.618-12.557-12.557v-33.658c0-6.932 5.618-12.557 12.557-12.557h526.994c11.185 0 16.788 13.529 8.88 21.436l-37.334 37.335zM749.278 508.126zM279.116 259.879v0 0l96.106-96.106c7.908-7.907 21.437-2.31 21.437 8.88v74.669c0 6.932 5.626 12.557 12.557 12.557h368.458c6.935 0 12.561 5.619 12.561 12.557v33.653c0 6.935-5.627 12.557-12.561 12.557h-527.011c-11.19 0-16.788-13.522-8.876-21.437l37.329-37.329zM279.116 259.879zM514.195-111.055c-272.969 0-495.053 222.078-495.053 495.058 0 272.967 222.084 495.052 495.053 495.052 272.972 0 495.057-222.084 495.057-495.052 0-272.979-222.084-495.058-495.057-495.058v0zM514.195 838.421c-250.566 0-454.42-203.85-454.42-454.418 0-250.566 203.85-454.423 454.42-454.423 250.571 0 454.423 203.859 454.423 454.423 0.001 250.565-203.855 454.418-454.423 454.418v0zM514.195 838.421z"  horiz-adv-x="1024" />

    
    <glyph glyph-name="paidan" unicode="&#58927;" d="M670.47-9.75h-495c-12.094 0-22.303 13.753-22.303 30.038v727.397c0 16.313 10.209 30.066 22.303 30.066h630.394c12.094 0 22.303-13.753 22.303-30.066v-310.219c0-15.525 12.6-28.125 28.125-28.125s28.125 12.6 28.125 28.125v310.219c0 47.616-35.241 86.316-78.553 86.316h-630.394c-43.313 0-78.553-38.7-78.553-86.316v-727.397c0-47.587 35.241-86.288 78.553-86.288h495c15.497 0 28.125 12.6 28.125 28.125s-12.656 28.125-28.125 28.125zM743.792 609c0 15.525-12.6 28.125-28.125 28.125h-450c-15.525 0-28.125-12.6-28.125-28.125s12.6-28.125 28.125-28.125h450c15.525 0 28.125 12.6 28.125 28.125zM626.595 384c0 15.525-12.6 28.125-28.125 28.125h-332.803c-15.525 0-28.125-12.6-28.125-28.125s12.6-28.125 28.125-28.125h332.803c15.525 0 28.125 12.6 28.125 28.125zM265.667 187.125c-15.525 0-28.125-12.6-28.125-28.125s12.6-28.125 28.125-28.125h84.375c15.525 0 28.125 12.6 28.125 28.125s-12.6 28.125-28.125 28.125h-84.375zM504.73 201.891c0-18.675 12.459-31.134 31.134-31.134h298.912l-102.741-102.741c-6.244-6.244-9.338-15.581-9.338-21.825s3.094-15.581 9.338-21.797c12.459-12.431 31.134-12.431 43.622 0l155.672 155.728c12.431 12.459 12.431 31.134 0 43.622l-155.672 155.672c-12.459 12.403-31.134 12.403-43.622 0-12.431-12.459-12.431-31.134 0-43.594l102.741-102.769h-298.912c-18.675-0.028-31.134-12.488-31.134-31.163z"  horiz-adv-x="1024" />

    
    <glyph glyph-name="zanwu" unicode="&#58904;" d="M213.333333 682.666667l597.333333 0L810.666667 725.333333l-170.666667 0L640 810.666667l0 0c0 46.933333-38.4 85.333333-85.333333 85.333333l-85.333333 0C422.4 896 384 857.6 384 810.666667l0 0 0-85.333333L213.333333 725.333333 213.333333 682.666667zM426.666667 810.666667c0 25.6 17.066667 42.666667 42.666667 42.666667l85.333333 0c25.6 0 42.666667-17.066667 42.666667-42.666667l0-85.333333-170.666667 0L426.666667 810.666667zM853.333333 810.666667l-170.666667 0 0-42.666667 170.666667 0c21.333333 0 42.666667-21.333333 42.666667-42.666667l0-768c0-21.333333-17.066667-42.666667-42.666667-42.666667L170.666667-85.333333c-21.333333 0-42.666667 21.333333-42.666667 42.666667L128 725.333333c0 21.333333 17.066667 42.666667 42.666667 42.666667l170.666667 0L341.333333 810.666667 170.666667 810.666667C123.733333 810.666667 85.333333 772.266667 85.333333 725.333333l0-768c0-46.933333 38.4-85.333333 85.333333-85.333333l682.666667 0c46.933333 0 85.333333 38.4 85.333333 85.333333L938.666667 725.333333C938.666667 772.266667 900.266667 810.666667 853.333333 810.666667zM541.866667 281.6c4.266667 8.533333 17.066667 21.333333 38.4 38.4 17.066667 17.066667 29.866667 34.133333 38.4 46.933333s8.533333 25.6 8.533333 38.4c0 34.133333-12.8 59.733333-34.133333 81.066667-21.333333 21.333333-51.2 29.866667-85.333333 29.866667-17.066667 0-34.133333-4.266667-46.933333-8.533333-17.066667-4.266667-29.866667-12.8-42.666667-25.6-12.8-12.8-21.333333-21.333333-25.6-38.4C388.266667 430.933333 384 409.6 384 384l42.666667 0c0 59.733333 25.6 89.6 81.066667 89.6 25.6 0 42.666667-8.533333 55.466667-21.333333 12.8-12.8 17.066667-29.866667 17.066667-42.666667s-4.266667-29.866667-12.8-38.4-21.333333-21.333333-38.4-38.4-29.866667-29.866667-34.133333-42.666667-8.533333-21.333333-12.8-34.133333c-4.266667-12.8-4.266667-29.866667-4.266667-51.2l42.666667 0c0 17.066667 0 29.866667 4.266667 42.666667S537.6 273.066667 541.866667 281.6zM482.133333 115.2l46.933333 0 0 51.2-46.933333 0L482.133333 115.2z"  horiz-adv-x="1024" />

    
    <glyph glyph-name="gjk" unicode="&#58883;" d="M517.145 409.705c73.249 0 132.996 58.179 132.996 129.764 0 71.625-59.747 129.764-132.996 129.764-73.306 0-132.96-58.16-132.96-129.764 0-71.605 59.669-129.764 132.96-129.764v0 0 0 0zM517.145 605.526c36.871 0 66.785-29.893 66.785-66.804 0-36.854-29.893-66.785-66.785-66.785-36.816 0-66.766 29.95-66.766 66.785 0.019 36.871 29.95 66.804 66.766 66.804v0 0 0 0zM388.432 213.383c1.913-2.793 3.806-5.010 5.338-6.693 44.887-54.679 90.117-91.073 92.050-92.682l31.519-25.227 31.347 25.437c1.989 1.587 47.067 38.462 91.744 92.93 1.645 1.645 3.577 3.958 5.489 6.752 64.031 84.055 143.593 205.845 161.609 311.244 3.481 24.022 3.519 38.593 3.519 40.202 0.669 78.739-30.523 152.83-87.708 208.235-55.366 53.684-128.615 83.214-206.189 83.214-77.302 0-150.381-29.53-205.729-83.214-57.49-55.711-88.876-130.146-88.265-209.516 0-1.264 0.096-15.855 3.443-38.709 19.316-112.8 109.186-243.292 161.837-311.971v0 0 0 0zM517.145 774.786c121.158 0 220.417-97.634 219.558-218.927 0 0 0-10.977-2.698-29.148-14.537-84.917-82.965-190.106-137.854-262.054-0.403-0.822-1.339-1.626-1.758-2.102-38.211-46.915-77.267-78.509-77.267-78.509s-39.053 31.231-77.267 78.145c-0.422 0.382-1.282 1.244-1.74 2.046-54.89 71.412-123.378 177.119-137.854 261.634-2.64 18.17-2.64 29.167-2.64 29.167-0.861 121.273 98.322 219.748 219.521 219.748v0 0 0 0zM861.132 505.292l89.869 32.13v-478.743c0 0-184.271-54.718-284.047-82.756l-348.787 97.865-233.079-79.275v476.639l86.311 23.545c-2.447 14.477-3.462 51.159-3.462 66.518l-149.712-34.579v-624.477l49.879 16.294 249.793 81.13 349.054-97.75 349.303 97.826v624.496l-150.477-41.79c-0.918-16.831-1.339-51.408-4.646-77.075v0 0 0zM861.132 505.292z"  horiz-adv-x="1024" />

    
    <glyph glyph-name="gj" unicode="&#58888;" d="M659.583 22.179h-320.377c-4.888 0-3.482-6.182 4.151-18.479s19.282-25.804 34.95-40.588c15.533-14.783 34.080-28.29 55.304-40.588 21.292-12.297 44.056-18.479 68.159-18.479 1.004 0 1.942 0.403 2.946 0.471 1.004-0.067 1.942-0.471 2.946-0.471 24.103 0 46.801 6.249 68.227 18.479 21.158 12.365 39.771 25.871 55.304 40.588 15.6 14.783 27.318 28.29 34.883 40.588 7.633 12.365 9.106 18.479 4.151 18.479h-10.646zM969.179 126.807v0c-15.265 21.369-32.339 46.838-51.287 76.337-18.881 29.5-36.691 62.091-53.697 97.774-16.738 35.75-31.201 73.515-43.252 113.228-12.052 39.848-18.078 80.1-18.078 121.225 0 40.184-5.557 76.807-16.27 109.466-10.779 32.86-25.242 61.957-43.387 87.425-18.078 25.468-39.302 46.702-63.807 63.972-24.505 17.27-50.417 30.307-77.734 39.244-28.657 8.198-61.196 12.7-94.473 12.969-0.737 0-1.54 0.134-2.344 0.134h-0.134c-0.803 0-1.54-0.134-2.344-0.134-33.209-0.269-65.816-4.771-94.405-12.969-27.384-8.937-53.296-22.041-77.868-39.311-24.439-17.27-45.729-38.505-63.673-63.972-18.212-25.468-32.674-54.565-43.453-87.425-10.779-32.659-16.27-69.281-16.27-109.465 0-41.058-6.026-81.377-18.078-121.225-12.119-39.714-26.581-77.412-43.319-113.162-16.94-35.682-34.749-68.273-53.631-97.774-18.881-29.433-35.954-54.901-51.22-76.27l-0.067-0.067c-5.557-7.392-8.235-14.649-7.766-21.571 0.402-6.989 2.21-12.834 5.49-17.874 3.147-4.838 7.164-8.803 12.119-11.692 0.067-0.067 0.201 0 0.268-0.067 2.611-1.613 5.892-2.083 9.173-2.755 1.607-0.336 3.28-1.411 4.888-1.411h880.582c1.673 0 3.214 1.143 4.888 1.411 3.28 0.672 6.562 1.143 9.173 2.755 0.134 0.067 0.201 0 0.335 0.067 4.888 2.889 8.905 6.854 12.119 11.692 3.214 4.972 5.021 10.819 5.423 17.874 0.335 6.922-2.344 14.179-7.9 21.571z"  horiz-adv-x="1024" />

    
    <glyph glyph-name="jiantou" unicode="&#58896;" d="M773.519 432.306l-427.191 427.191c-27.2 27.2-71.299 27.2-98.497 0v0c-27.2-27.2-27.2-71.297 0-98.497l377.941-377.941-377.941-377.941c-27.2-27.2-27.2-71.299 0-98.497v0c27.2-27.2 71.299-27.2 98.497 0l427.191 427.191c27.201 27.2 27.201 71.299 0 98.497z"  horiz-adv-x="1024" />

    
    <glyph glyph-name="jiantou1" unicode="&#58897;" d="M250.481 335.694l427.191-427.191c27.2-27.2 71.3-27.2 98.499 0v0c27.2 27.2 27.2 71.297 0 98.499l-377.941 377.941 377.941 377.941c27.2 27.2 27.2 71.3 0 98.499v0c-27.2 27.2-71.3 27.2-98.499 0l-427.191-427.191c-27.201-27.2-27.201-71.299 0-98.499z"  horiz-adv-x="1024" />

    
    <glyph glyph-name="jichu" unicode="&#58917;" d="M578.727 831.525h-321.426c-34.31 0-62.125-27.814-62.125-62.125v-305.679c0-34.31 27.814-62.125 62.125-62.125h321.426c34.31 0 62.125 27.814 62.125 62.125v305.679c0 34.31-27.814 62.125-62.125 62.125zM571.925 482.138h-72.639l-21.131 64.065h-110.939l-21.132-64.065h-71.318l108.298 293.634h79.242l109.619-293.634zM466.269 596.922l-36.979 101.438c-2.642 8.885-4.849 17.353-6.604 25.36h-1.321c-0.887-9.802-3.094-18.686-6.604-26.693l-33.019-100.103h84.524zM428.817 360.651h-321.426c-34.31 0-62.125-27.814-62.125-62.125v-305.679c0-34.31 27.814-62.125 62.125-62.125h321.426c34.31 0 62.125 27.814 62.125 62.125v305.679c0 34.31-27.814 62.125-62.125 62.125zM915.010 360.651h-321.426c-34.31 0-62.125-27.814-62.125-62.125v-305.679c0-34.31 27.814-62.125 62.125-62.125h321.426c34.31 0 62.125 27.814 62.125 62.125v305.679c0 34.31-27.814 62.125-62.125 62.125zM278.159-8.184h-142.636v293.634h136.032c65.149-1.794 99.486-24.922 103.014-69.406 0-34.701-18.945-57.852-56.791-69.404 40.487-8.905 63.393-31.595 68.677-68.069 0-57.851-36.113-86.754-108.298-86.754zM260.991 236.066h-59.43v-69.404h59.43c28.167 0.875 42.695 13.346 43.584 37.372-0.889 21.356-15.415 32.033-43.584 32.033zM267.594 117.278h-66.034v-78.748h64.714c32.563 0 49.299 13.346 50.188 40.039-2.642 24.901-18.945 37.81-48.865 38.706zM888.393 200.029l-63.393-14.681c-8.812 30.239-29.055 46.255-60.752 48.048-44.905-2.669-68.677-34.265-71.318-94.765 1.754-61.396 25.526-93.888 71.318-97.433 36.093 0.875 57.222 22.691 63.393 65.401l63.393-20.021c-14.981-66.734-57.245-100.103-126.787-100.103-89.807 4.464-136.919 55.161-141.315 152.156 4.394 95.202 51.507 145.483 141.315 150.82 63.393-1.794 104.768-31.595 124.146-89.424z"  horiz-adv-x="1024" />

    
    <glyph glyph-name="jingyingfenxi" unicode="&#58918;" d="M933.026 225.259h-54.484v531.096h54.763c15.159 0 27.458 12.461 27.458 27.629s-12.299 27.629-27.458 27.629h-842.053c-15.159 0-27.458-12.461-27.458-27.629s12.299-27.629 27.458-27.629h36.182v-531.096h-36.46c-15.159 0-27.458-11.949-27.458-27.118s12.299-27.118 27.458-27.118h255.097l-132.339-212.518c-8.008-12.871-4.076-29.809 8.795-37.827 4.523-2.807 9.528-4.147 14.498-4.147 9.152 0 18.127 4.585 23.328 12.943l147.177 236.344c1.043 1.675 1.878 3.421 2.522 5.205h74.319v-228.368c0-15.168 12.47-27.458 27.629-27.458s27.629 12.29 27.629 27.458v228.369h74.319c0.645-1.785 1.48-3.529 2.522-5.205l147.175-236.345c5.202-8.357 14.176-12.943 23.328-12.943 4.969 0 9.975 1.341 14.498 4.147 12.871 8.018 16.804 24.955 8.795 37.827l-132.339 212.518h255.097c15.159 0 27.458 11.949 27.458 27.118s-12.299 27.118-27.458 27.118zM823.283 225.259h-640.59v531.096h640.59v-531.096zM274.307 482.109h84.305c7.58 0 14.372 4.795 17.090 11.874l45.442 118.749 119.826-285.153c2.843-6.802 9.511-10.222 16.875-10.222 0.017 0 0.036 0 0.072 0 7.383 0 14.051 3.631 16.858 10.468l63.801 154.284h111.674c10.118 0 18.306 8.31 18.306 18.42s-8.187 18.42-18.306 18.42h-123.939c-7.419 0-14.104-4.707-16.929-11.572l-51.698-125.972-120.435 287.125c-2.879 6.891-9.403 10.733-17.162 11.288-7.472-0.117-14.14-4.651-16.804-11.632l-57.258-149.238h-71.72c-10.118 0-18.306-8.31-18.306-18.42s8.188-18.42 18.307-18.42z"  horiz-adv-x="1024" />

    
    <glyph glyph-name="zhuantiguankong" unicode="&#59094;" d="M1024.508 1046.803h-1024.999c-83.012 0-150.313-67.122-150.313-149.908v-1025.807c0-82.786 67.3-149.908 150.313-149.908h1024.999c83.012 0 150.313 67.122 150.313 149.908v1025.809c-0.017 82.786-67.3 149.908-150.313 149.908zM1064.589-128.895c0-22.039-17.979-39.969-40.082-39.969h-1024.999c-22.103 0-40.083 17.93-40.083 39.969v1025.809c0 22.039 17.979 39.969 40.083 39.969h1025.001c22.103 0 40.082-17.93 40.082-26.164v-1039.613zM122.198 387.382c55.859-21.133 118.321 7.041 139.439 62.931 39.081 103.466 139.713 172.967 250.364 172.967s211.284-69.517 250.364-173.066c16.327-43.237 57.494-69.97 101.168-69.97 12.719 0 25.632 2.266 38.27 7.041 55.859 21.133 84.033 83.514 62.914 139.389-34.387 91.006-94.759 168.726-174.551 224.878-81.767 57.705-177.983 88.126-278.164 88.126s-196.397-30.422-278.164-87.931c-79.775-56.15-140.166-133.969-174.551-224.974-21.118-55.876 7.055-118.256 62.914-139.389zM109.916 507.629c46.038 121.606 147.286 217.936 271.029 257.467 28.333 9.209 58.852-6.505 67.963-34.937 9.11-28.431-6.586-58.869-35.018-67.979-92.591-29.71-168.419-101.75-202.886-192.74-8.123-21.668-28.706-35.034-50.537-35.034-6.311 0-12.816 1.085-19.127 3.529-27.898 10.565-41.977 41.796-31.424 69.694zM752.138 313.059c-12.395 12.411-28.853 19.239-46.346 19.239-9.402 0-18.738-2.054-27.314-6.004-9.273 25.81-33.901 43.399-61.684 43.399-11.053 0-21.812-2.768-31.376-8.042-11.424 21.037-33.497 34.37-57.575 34.37-8.123 0-15.987-1.456-23.449-4.319v118.742c0 36.15-29.402 65.552-65.552 65.552s-65.552-29.402-65.552-65.552v-211.121c-4.757 4.595-9.855 8.527-15.211 11.763-13.042 7.881-27.945 11.877-44.306 11.877-7.266 0-13.284-0.745-17.687-1.312l-0.795-0.097c-1.036-0.13-2.023-0.243-2.557-0.291-0.517-0.017-0.955-0.081-1.295-0.13l-20.177-2.427c-6.069-0.713-11.504-4.028-14.919-9.094-3.43-5.099-4.499-11.36-2.929-17.185 18.398-69.079 46.295-174.844 47.735-183.079 9.401-54.306 37.833-103.968 80.049-139.843 42.752-36.313 97.188-56.313 153.274-56.313 130.57 0 236.803 106.235 236.803 236.803v116.752c0.033 17.476-6.764 33.917-19.145 46.313zM729.223 149.996c0-107.349-87.331-194.699-194.699-194.699-94.988 0-175.669 67.819-191.851 161.251-1.844 10.63-31.28 121.718-42.315 163.274 0.291 0.033 0.598 0.081 0.922 0.113 3.642 0.453 7.767 0.954 12.313 0.954 11.215 0 45.294 0 59.985-81.668l0.016-0.081c0.033-0.211 0.081-0.405 0.113-0.549l0.081-0.307c0.033-0.113 0.050-0.211 0.065-0.274l0.113-0.778 0.161-0.291 0.050-0.178c0.097-0.341 0.226-0.793 0.453-1.327 0.065-0.194 0.147-0.485 0.308-0.826 0.065-0.144 0.13-0.291 0.194-0.436l0.081-0.161c0.081-0.178 0.161-0.372 0.258-0.566l0.147-0.405 0.243-0.388c0.113-0.194 0.226-0.356 0.339-0.534l0.147-0.226c0.147-0.258 0.388-0.679 0.745-1.132 0.033-0.033 0.065-0.081 0.081-0.13l0.405-0.582c0.147-0.194 0.274-0.405 0.436-0.598 0.339-0.436 0.679-0.761 0.874-0.954l0.065-0.081c0.147-0.161 0.291-0.324 0.453-0.502 0.177-0.178 0.339-0.341 0.517-0.485 0.065-0.050 0.113-0.097 0.161-0.144 0.226-0.226 0.485-0.485 0.841-0.761 0.161-0.13 0.324-0.258 0.501-0.388 0.113-0.081 0.226-0.161 0.324-0.258l0.243-0.178c0.13-0.113 0.258-0.211 0.421-0.307 0.421-0.291 0.841-0.566 1.31-0.809 0.147-0.097 0.356-0.226 0.598-0.356l1.1-0.549 1.861-0.745 1.795-0.549c0.161-0.050 0.339-0.081 0.534-0.13l0.065-0.017c0.485-0.144 0.907-0.211 1.215-0.258l0.874-0.144c0.633-0.113 1.198-0.113 1.506-0.113l0.194-0.017c0.258-0.017 0.517-0.033 0.761-0.033h0.194c0.211 0 0.534 0 0.922 0.050 0.339 0 0.761 0.033 1.182 0.097l0.891 0.13c0.421 0.017 0.778 0.081 1.036 0.144 0.308 0.050 0.582 0.13 0.841 0.194 0.453 0.065 0.907 0.178 1.327 0.341 0.308 0.097 0.679 0.211 1.1 0.388l0.065 0.017c0.147 0.050 0.308 0.097 0.47 0.161 0.243 0.081 0.47 0.178 0.745 0.307l0.147 0.050c0.421 0.161 0.891 0.388 1.31 0.63 0.194 0.113 0.405 0.226 0.615 0.372l0.033 0.017c0.194 0.097 0.372 0.211 0.549 0.324l0.647 0.341 0.274 0.274c0.097 0.065 0.211 0.144 0.339 0.243 0.065 0.050 0.13 0.097 0.211 0.144 0.177 0.13 0.356 0.258 0.517 0.388 0.147 0.113 0.291 0.226 0.421 0.341l0.566 0.502c0.081 0.081 0.177 0.178 0.226 0.226l0.421 0.388c0.147 0.161 0.291 0.307 0.421 0.468l0.050 0.065c0.147 0.144 0.308 0.307 0.453 0.485l0.405 0.453c0.211 0.258 0.436 0.549 0.662 0.891 0.147 0.178 0.388 0.468 0.615 0.841 0.097 0.13 0.177 0.274 0.258 0.405l0.274 0.356 0.177 0.356c0-0.017 0-0.017 0 0 0.13 0.211 0.243 0.421 0.356 0.63 0.161 0.324 0.324 0.63 0.47 0.988l0.226 0.453c0.243 0.502 0.405 0.971 0.517 1.295 0.097 0.243 0.226 0.582 0.324 0.988 0.050 0.13 0.081 0.274 0.13 0.436l0.033 0.113c0.081 0.258 0.147 0.502 0.211 0.761l0.161 0.615c0.033 0.194 0.065 0.372 0.097 0.582l0.065 0.453c0.050 0.307 0.081 0.615 0.13 0.954l0.033 0.405c0.016 0.13 0.033 0.258 0.033 0.388 0.065 0.566 0.065 1.036 0.065 1.423v307.906c0 12.93 10.518 23.449 23.431 23.449 12.93 0 23.449-10.518 23.449-23.449v-315.026c0-11.618 9.451-21.053 21.051-21.053s21.051 9.451 21.051 21.053v135.053c0 12.929 10.518 23.446 23.449 23.446s23.446-10.518 23.446-23.446v-142.432c0-11.618 9.451-21.053 21.053-21.053 11.618 0 21.053 9.451 21.053 21.053v116.105c0 12.929 10.518 23.446 23.446 23.446s23.446-10.518 23.446-23.446v-123.483c0-11.618 9.451-21.053 21.053-21.053 11.618 0 21.053 9.451 21.053 21.053v86.086c0 12.929 10.518 23.431 23.446 23.431s23.446-10.518 23.446-23.431l-0.097-116.752z"  horiz-adv-x="1024" />

    
    <glyph glyph-name="sx" unicode="&#58898;" d="M248.164 647.95c67.598 67.553 160.925 109.423 263.79 109.423 113.872 0 219.26-51.868 289.151-137.398l-129.189-129.189h319.97v319.878l-114.881-114.881c-89.749 105.021-222.332 168.217-365.004 168.217-132.307 0-252.325-53.841-339.231-140.746-62.875-62.875-108.048-142.718-128.409-232.513h109.745c17.748 60.673 50.493 113.505 94.060 157.21M775.79 120.324c-67.644-67.598-160.879-109.469-263.79-109.469-113.918 0-219.306 51.914-289.151 137.444l129.189 129.097h-319.924v-319.878l114.881 114.835c89.795-104.975 222.286-168.171 365.004-168.171 132.307 0 252.279 53.795 339.185 140.7 62.783 62.783 107.956 142.993 128.318 232.467h-109.973c-18.023-59.94-50.539-113.735-93.739-157.027z"  horiz-adv-x="1024" />

    
    <glyph glyph-name="txt" unicode="&#58903;" d="M847.313-66.894l-0.48-0.24-0.72-0.24c-15.003-17.584-36.067-28.626-59.171-28.626h-549.643c-23.165 0-44.168 11.042-59.651 28.806v0.24l-0.18-0.24c-15.543 18.124-24.965 43.208-24.965 70.153v762.082c0 26.945 9.422 51.549 24.905 69.313 15.723 18.184 36.787 29.646 59.891 29.646h374.53c8.402 0 16.623-4.441 22.444-10.982l228.283-266.81c6.241-7.862 9.122-17.043 9.122-26.705v-556.484c0.060-27.005-9.362-51.609-24.365-69.913zM301.991 83.974h420.079c16.503 0 30.006 13.503 30.006 30.006 0 16.623-13.503 30.006-30.006 30.006h-420.079c-16.563 0-30.006-13.383-30.006-30.006 0-16.503 13.443-30.006 30.006-30.006zM301.991 264.007h420.079c16.503 0 30.006 13.503 30.006 30.006 0 16.623-13.503 30.006-30.006 30.006h-420.079c-16.563 0-30.006-13.383-30.006-30.006 0-16.503 13.443-30.006 30.006-30.006zM301.991 504.053c-16.563 0-30.006-13.443-30.006-30.006s13.443-30.006 30.006-30.006h420.079c16.503 0 30.006 13.443 30.006 30.006s-13.503 30.006-30.006 30.006h-420.079zM632.472 745.058v-139.406c0-10.922 4.681-21.484 11.222-28.746l0.9-1.2c7.742-7.802 18.484-12.543 30.066-12.543h137.666l-179.854 181.894z"  horiz-adv-x="1025" />

    
    <glyph glyph-name="gantanhao" unicode="&#58929;" d="M1123.749-38.497l-509.906 883.329c-6.928 11.778-19.629 19.168-33.255 19.168s-26.558-7.39-33.255-19.168l-510.137-883.329c-6.928-11.778-6.928-26.558 0-38.335s19.629-19.168 33.255-19.168h1020.043c13.626 0 26.327 7.39 33.255 19.168s6.928 26.327 0 38.335zM1052.158-32.031c-6.005-10.392-16.858-16.627-28.867-16.627h-885.638c-12.008 0-22.863 6.466-28.867 16.627-6.005 10.392-6.005 23.093 0 33.255l442.935 767.168c6.005 10.392 16.858 16.627 28.867 16.627s22.863-6.466 28.867-16.627l442.935-766.938c5.773-10.392 5.773-23.093-0.231-33.486zM629.315 173.272h-97.455l-45.956 424.229h189.136zM515.464 134.474h130.017v-130.017h-130.017v130.017z"  horiz-adv-x="1171" />

    
    <glyph glyph-name="gg" unicode="&#58884;" d="M952.016 428.903h-184.32c-20.918 0-37.882-17.299-37.882-38.597v-12.029c0-21.303 16.958-38.539 37.882-38.539h184.32c20.976 0 37.886 17.242 37.886 38.539v12.029c0 21.303-16.911 38.597-37.886 38.597zM524.303 759.768c-57.317-46.229-177.351-111.077-263.659-173.395l-0.163-0.053c-0.994-0.6-1.977-4.066-2.909-4.666-10.214-5.827-14.827-21.854-70.282-21.854h-108.168c-27.787 0-45.024-13.234-45.024-42.936v-264.317c0-29.76 15.811-44.477 45.024-44.477h108.605c55.181-0.053 59.678-16.037 69.84-21.854 0.984-0.548 1.915-4.061 2.962-4.608l0.111-0.115c83.621-62.309 204.412-132.206 263.659-176.573 17.846-13.339 77.198-36.84 77.198 45.797v666.883c0.005 82.579-59.842 56.228-77.194 42.168zM694.511 577.588c9.826-17.568 29.203-21.96 43.368-9.878l151.536 129.629c14.174 12.082 17.688 36.077 7.906 53.645l-5.486 9.888c-9.783 17.568-29.217 21.96-43.377 9.883l-151.541-129.576c-14.16-12.139-17.678-36.125-7.906-53.703l5.501-9.888zM889.419 70.646l-151.536 129.523c-14.165 12.077-33.6 7.685-43.368-9.773l-5.501-9.888c-9.826-17.568-6.254-41.558 7.906-53.697l151.541-129.523c14.16-12.129 33.543-7.737 43.32 9.772l5.539 9.936c9.783 17.472 6.206 41.511-7.901 53.649z"  horiz-adv-x="1024" />

    
    <glyph glyph-name="db" unicode="&#58885;" d="M645.918 529.915c9.533 26.7 17.167 57.21 17.167 91.538h-295.59c0-34.328 5.723-64.838 17.162-91.538 43.867-13.348 217.401-13.348 261.262 0zM571.543 308.709c-13.348 13.343-34.32 43.857-55.3 43.857-20.977 0-41.952-28.605-55.3-41.957-51.49-49.582-91.534-106.791-93.443-196.419h24.79c40.043 0 97.257 40.052 122.052 40.052 26.695 0 81.996-40.052 122.052-41.952h28.6c-1.913 89.629-41.962 146.839-93.452 196.419zM512 857.078c-261.271 0-473.078-211.808-473.078-473.078 0-261.275 211.808-473.078 473.078-473.078 261.275 0 473.078 211.804 473.078 473.078 0 261.275-211.804 473.078-473.078 473.078zM705.033 66.518h-375.673c-13.348 0-24.79 11.438-24.79 24.79 0 13.348 11.443 24.79 24.79 24.79h13.352c1.9 106.791 53.392 173.529 112.51 228.839 13.348 13.343 13.348 34.32 0 47.677-61.028 57.21-110.609 122.047-112.51 230.744h-15.257c-13.352 0-24.79 11.443-24.79 24.79s11.443 24.79 26.7 22.885h373.768c13.352 0 24.79-11.443 24.79-24.79 0-13.352-11.438-24.79-24.79-24.79h-15.257c-1.905-108.7-53.392-173.539-112.514-230.748-11.438-9.53-17.162-30.51 0-47.677 59.123-55.3 110.609-122.047 112.514-228.843h15.257c15.257 0 26.704-11.438 26.704-22.877-0.008-13.352-11.452-24.79-24.803-24.79z"  horiz-adv-x="1024" />

    
    <glyph glyph-name="zsck" unicode="&#58886;" d="M609.26 596.065h-53.607c-3.004 0-5.742-1.669-7.068-4.304l-50.85-93.295c-1.201-2.386-1.058-5.212 0.378-7.473 1.438-2.261 3.968-3.637 6.687-3.637h24.377l-29.171-71.978c-1.433-3.537-0.021-7.559 3.325-9.488 1.248-0.72 2.623-1.063 3.983-1.063 2.299 0 4.557 0.976 6.1 2.822l96.564 115.437c1.924 2.302 2.321 5.489 1.023 8.181-1.3 2.695-4.070 4.41-7.111 4.41h-16.3l28.738 49.278c1.198 2.389 1.058 5.215-0.383 7.476-1.439 2.26-3.965 3.633-6.685 3.633zM820.851 719.661c-42.897 52.553-154.319 141.491-299.837 141.491-97.3 0-189.887-39.835-275.183-118.378-0.143-0.141-0.293-0.277-0.427-0.418-83.181-83.779-72.308-161.171-58.544-259.207 0.851-6.029 1.706-12.142 2.561-18.349 2.281-16.665-12.609-42.367-27.015-67.221-21.645-37.348-44.023-75.964-16.683-94.196 46.718-31.183 54.836-92.546 62.686-151.915 1.869-14.1 3.798-28.677 6.213-42.853 4.161-24.455 25.232-36.341 64.425-36.341 17.422 0 36.035 2.102 54.038 4.142 15.436 1.749 30.016 3.397 41.678 3.397 6.522 0 11.621-0.506 15.58-1.556 47.083-12.497 88.218-105.706 103.083-161.53 1.207-4.535 4.769-8.102 9.369-9.372 1.216-0.339 2.458-0.506 3.69-0.506 3.424 0 6.778 1.273 9.323 3.652l241.321 225.502c3.73 3.493 5.108 8.764 3.53 13.583-21.308 65.281 22.974 128.978 62.050 185.218 17.054 24.537 33.154 47.703 44.176 70.53 50.807 105.285 14.204 240.527-46.031 314.325zM700.761 487.422h-95.154l-93.611-107.828c-3.958-4.725-9.799-7.436-16.044-7.436-3.706 0-7.345 0.976-10.539 2.816-8.848 5.090-12.525 15.598-8.733 24.973l23.522 68.135h-6.351c-7.214 0-13.795 3.58-17.603 9.582-1.915 3.007-2.957 6.363-3.122 9.759h-70.802c-46.724 0-84.603 37.084-84.603 82.832 0 39.83 28.719 73.091 66.983 81.028-0.010 0.596-0.029 1.198-0.029 1.804 0 61.788 51.162 111.881 114.27 111.881 42.002 0 78.699-22.191 98.563-55.251 2.857 0.287 5.758 0.433 8.702 0.433 37.945 0 70.053-24.461 80.78-58.161 4.476 0.717 9.070 1.098 13.758 1.098 46.721 0 84.59-37.084 84.59-82.832 0.009-45.756-37.858-82.833-84.579-82.833z"  horiz-adv-x="1024" />

    
    </font>
</defs>
</svg>
