<?xml version="1.0" standalone="no"?>
<!DOCTYPE svg PUBLIC "-//W3C//DTD SVG 1.1//EN" "http://www.w3.org/Graphics/SVG/1.1/DTD/svg11.dtd" >
<!--
2013-9-30: Created.
-->
<svg>
<metadata>
Created by iconfont
</metadata>
<defs>

<font id="iconfont" horiz-adv-x="1024" >
  <font-face
    font-family="iconfont"
    font-weight="500"
    font-stretch="normal"
    units-per-em="1024"
    ascent="896"
    descent="-128"
  />
    <missing-glyph />
    
    <glyph glyph-name="yali1" unicode="&#58893;" d="M512-105.23742698000001c-269.77579262 0-489.23742698 219.48127405-489.23742698 489.23742698 0 269.77579262 219.46163435 489.23742698 489.23742698 489.23742698 269.75615293 0 489.23742698-219.46163435 489.23742698-489.23742698C1001.23742698 114.24384707000002 781.75615293-105.23742698000001 512-105.23742698000001L512-105.23742698000001zM512 814.53757703c-237.39169917 0-430.53757703-193.14587787-430.53757703-430.53757703S274.60830083-46.537577029999966 512-46.537577029999966 942.53757703 146.60830082999996 942.53757703 384 749.39169917 814.53757703 512 814.53757703L512 814.53757703zM512 814.53757703M252.57376261 249.887829c0-18.10681244-14.6700529-32.77686534-32.77686533-32.77686534s-32.77686534 14.6700529-32.77686534 32.77686534 14.6700529 32.79650366 32.77686534 32.79650366S252.57376261 267.99464143 252.57376261 249.887829L252.57376261 249.887829zM252.57376261 249.887829M212.56988433 443.87816836c0-18.10681244-14.6700529-32.77686534-32.77686533-32.77686534s-32.77686534 14.6700529-32.77686535 32.77686534c0 18.10681244 14.6700529 32.77686534 32.77686535 32.77686534S212.56988433 461.96534109 212.56988433 443.87816836L212.56988433 443.87816836zM212.56988433 443.87816836M884.01447472 443.87816836c0-18.10681244-14.6700529-32.77686534-32.79650366-32.77686534-18.08717412 0-32.75722702 14.6700529-32.75722702 32.77686534 0 18.10681244 14.6700529 32.77686534 32.75722702 32.77686534C869.34442182 476.65503232 884.01447472 461.96534109 884.01447472 443.87816836L884.01447472 443.87816836zM884.01447472 443.87816836M774.5487783 627.30292545c0-18.10681244-14.6700529-32.79650366-32.77686535-32.79650366-18.08717412 0-32.77686534 14.68969123-32.77686533 32.79650366 0 18.08717412 14.68969123 32.77686534 32.77686533 32.77686534C759.8787254 660.0797907900001 774.5487783 645.39009957 774.5487783 627.30292545L774.5487783 627.30292545zM774.5487783 627.30292545M325.35450763 627.30292545c0-18.10681244-14.6700529-32.79650366-32.77686535-32.79650366s-32.77686534 14.68969123-32.77686534 32.79650366c0 18.08717412 14.6700529 32.77686534 32.77686534 32.77686534S325.35450763 645.39009957 325.35450763 627.30292545L325.35450763 627.30292545zM325.35450763 627.30292545M548.01723893 726.96894784c0-18.10681244-14.68969123-32.77686534-32.79650366-32.77686535-18.08717412 0-32.77686534 14.6700529-32.77686535 32.77686535s14.68969123 32.77686534 32.77686535 32.77686533C533.32754634 759.74581317 548.01723893 745.0757602799999 548.01723893 726.96894784L548.01723893 726.96894784zM548.01723893 726.96894784M847.34916162 249.887829c0-18.10681244-14.6700529-32.77686534-32.77686535-32.77686534s-32.79650366 14.6700529-32.79650365 32.77686534 14.68969123 32.79650366 32.79650365 32.79650366S847.34916162 267.99464143 847.34916162 249.887829L847.34916162 249.887829zM847.34916162 249.887829M649.66676183 270.58694086c-4.32049765 19.65826305-13.45245785 38.15784877-25.88370796 52.84753998-0.41241157 0.76590684-1.49253566 2.51374339-2.94579329 3.67242351l-161.35094362 195.40431897-31.0093891-239.11989878c-0.1571093-0.45168823-0.31421861-1.04084743-0.39277189-1.66928327-5.42026005-19.50115511-6.00941926-40.35737492-1.61036692-60.21202392 14.25764131-64.76818553 75.90328592-106.44134709 137.43109785-92.89069629C625.43269884 142.11105554999995 663.88512652 205.81875534000005 649.66676183 270.58694086L649.66676183 270.58694086zM538.0800939 170.27284430999998c-39.23797282 0-71.03290707 31.81457257-71.03290707 71.03290708 0 39.23797282 31.79493425 71.05254539 71.03290707 71.05254538s71.03290707-31.81457257 71.03290707-71.05254538C609.11300097 202.08741686999997 577.31806672 170.27284430999998 538.0800939 170.27284430999998L538.0800939 170.27284430999998zM538.0800939 170.27284430999998"  horiz-adv-x="1024" />

    
    <glyph glyph-name="paishui" unicode="&#59907;" d="M210.488889 591.644444v-335.644444c11.377778-5.688889 22.755556-11.377778 31.288889-17.066667l34.133333-25.6 5.688889 5.688889v369.777778H995.555556V659.911111H278.755556c-36.977778 0-68.266667-31.288889-68.266667-68.266667z m68.266667 213.333334c-116.622222 0-213.333333-96.711111-213.333334-213.333334v-355.555555l5.688889 2.844444c19.911111 14.222222 42.666667 25.6 68.266667 28.444445V591.644444c0 76.8 62.577778 142.222222 142.222222 142.222223H995.555556V804.977778H278.755556z m480.711111-841.955556c-22.755556 0-45.511111 8.533333-65.422223 22.755556l-36.977777 28.444444c-11.377778 8.533333-28.444444 8.533333-39.822223 0l-36.977777-28.444444c-36.977778-28.444444-91.022222-28.444444-128 0l-36.977778 28.444444c-11.377778 8.533333-28.444444 8.533333-39.822222 0l-36.977778-28.444444c-36.977778-28.444444-91.022222-28.444444-128 0l-36.977778 28.444444c-11.377778 8.533333-28.444444 8.533333-39.822222 0L85.333333-22.755556c-17.066667-11.377778-39.822222-8.533333-51.2 5.688889-11.377778 17.066667-8.533333 39.822222 5.688889 51.2L91.022222 71.111111c36.977778 28.444444 91.022222 28.444444 128 0L256 42.666667c11.377778-8.533333 28.444444-8.533333 39.822222 0l36.977778 28.444444c36.977778 28.444444 91.022222 28.444444 128 0l36.977778-28.444444c11.377778-8.533333 28.444444-8.533333 39.822222 0l36.977778 28.444444c36.977778 28.444444 91.022222 28.444444 128 0l36.977778-28.444444c11.377778-8.533333 28.444444-8.533333 39.822222 0l36.977778 28.444444c36.977778 28.444444 91.022222 28.444444 128 0l36.977777-28.444444c17.066667-11.377778 19.911111-34.133333 5.688889-51.2-11.377778-17.066667-34.133333-19.911111-51.2-5.688889l-36.977778 28.444444c-11.377778 8.533333-28.444444 8.533333-39.822222 0L824.888889-14.222222c-19.911111-14.222222-42.666667-22.755556-65.422222-22.755556z m0 0M759.466667 102.4c-22.755556 0-45.511111 8.533333-65.422223 22.755556l-36.977777 28.444444c-11.377778 8.533333-28.444444 8.533333-39.822223 0l-36.977777-28.444444c-36.977778-28.444444-91.022222-28.444444-128 0l-36.977778 28.444444c-11.377778 8.533333-28.444444 8.533333-39.822222 0l-36.977778-28.444444c-36.977778-28.444444-91.022222-28.444444-128 0l-36.977778 28.444444c-11.377778 8.533333-28.444444 8.533333-39.822222 0L85.333333 116.622222c-17.066667-11.377778-39.822222-8.533333-51.2 5.688889-11.377778 17.066667-8.533333 39.822222 5.688889 51.2l48.355556 36.977778c36.977778 28.444444 91.022222 28.444444 128 0l36.977778-28.444445c11.377778-8.533333 28.444444-8.533333 39.822222 0l36.977778 28.444445c36.977778 28.444444 91.022222 28.444444 128 0l36.977777-28.444445c11.377778-8.533333 28.444444-8.533333 39.822223 0l36.977777 28.444445c36.977778 28.444444 91.022222 28.444444 128 0l36.977778-28.444445c11.377778-8.533333 28.444444-8.533333 39.822222 0l36.977778 28.444445c36.977778 28.444444 91.022222 28.444444 128 0l36.977778-28.444445c17.066667-11.377778 19.911111-34.133333 5.688889-51.2-11.377778-17.066667-34.133333-19.911111-51.2-5.688888l-36.977778 28.444444c-11.377778 8.533333-28.444444 8.533333-39.822222 0l-36.977778-28.444444c-14.222222-14.222222-36.977778-22.755556-59.733333-22.755556z m0 0"  horiz-adv-x="1024" />

    
    <glyph glyph-name="yuanshui" unicode="&#58961;" d="M802.94393937 617.93673375c-48.75091875 0-88.2287475 39.92900344-88.22874656 89.09749969 0 22.55395969 14.91277969 49.34128594 39.81381 80.18918906a489.53467406 489.53467406 0 0 0 37.70672625 41.40732281l10.69381125 10.25703563 10.71301125-10.25703563 3.35981531-3.30221812a487.37479312 487.37479312 0 0 0 34.34211094-38.10510469 302.23937625 302.23937625 0 0 0 22.31877188-31.14548625c11.19778406-18.21019875 17.49503812-34.45250531 17.49503812-49.04370281 0-49.16849531-39.46342969-89.09749969-88.21434844-89.09749969z m44.34956063 121.92769406a269.88915563 269.88915563 0 0 1-20.01489844 27.87206719 456.16210969 456.16210969 0 0 1-24.18586969 27.48328781 371.13958688 371.13958688 0 0 1-24.47865375-27.48328781c-20.56206938-25.44820031-32.93578875-47.69977687-32.93578875-60.70226156 0-32.12463281 25.67378812-58.10560406 57.26565-58.10560407 31.58226281 0 57.26085094 25.98097125 57.26085094 58.10560407 0 7.58358281-4.44935531 19.05015188-12.91129031 32.83019437z m-54.04502719-232.92158906c56.80007625-96.92106938 88.60792594-178.084605 88.60792688-241.19633344 0-199.58742187-157.901715-361.70330531-353.05418157-361.70330531-195.17166469 0-353.06378062 162.11588344-353.06378062 361.70330531 0 63.11172844 31.81265063 144.275265 88.61272594 241.19633344 22.62595594 38.61867563 48.88531125 79.04685188 78.05330718 120.67016344a2749.37517844 2749.37517844 0 0 0 111.99223969 148.35504 2696.63567906 2696.63567906 0 0 0 47.3205975 57.001665l3.79179188 4.35816L528.80221812 863.99040094l23.28831938-26.66253375 3.79179094-4.35816c2.99023594-3.51340688 6.48444375-7.59318281 10.40102812-12.23452781a2721.978285 2721.978285 0 0 0 36.91956938-44.76713719 2746.77852094 2746.77852094 0 0 0 111.98744062-148.35504c29.172795-41.62331063 55.41295219-82.05148687 78.05810625-120.67016344zM555.06157344 737.00378531a2796.68617594 2796.68617594 0 0 1-26.27855438 32.0382375 2744.02827281 2744.02827281 0 0 1-26.24495625-32.0382375 2686.31624625 2686.31624625 0 0 1-109.44358031-144.96642656c-28.26084562-40.35138094-53.63224969-79.39723312-75.35105531-116.46559406-51.62116031-88.07515594-80.09799469-160.72875937-80.09799469-209.82525938 0-165.70608563 130.52882062-299.714715 291.15678562-299.714715 160.60876594 0 291.15198563 134.00862937 291.15198563 299.714715 0 49.07730094-28.47683344 121.75010344-80.10279375 209.82525938-21.72360469 37.06836094-47.08541063 76.11421313-75.34625625 116.46559406a2693.86623188 2693.86623188 0 0 1-109.44358031 144.96642656z m220.05349687-477.80892c0-136.67248313-110.27873437-247.46958844-246.32245125-247.47438844-136.04371687 0.0048-246.31285219 110.80190531-246.31285218 247.47438844 0 136.66768312 128.01375938 67.46988938 246.32245124 0 118.78866656-67.74827344 246.31285219 136.66768312 246.31285219 0z m-246.33205125-247.47438844h0.01919906-0.01919906zM197.74522719 500.18481094C161.83840156 500.18481094 132.79999906 529.5639946900001 132.79999906 565.72040625c0 16.86627188 10.53542062 35.79163125 28.16965031 57.64002937a336.64868344 336.64868344 0 0 0 26.06736657 28.61602594l10.69861125 10.27623469 10.70821125-10.27623469a337.2198525 337.2198525 0 0 0 26.05776656-28.60642594c5.99967-7.42999125 11.24098219-14.68239281 15.546345-21.69480749 8.05395656-13.11287906 12.63290531-24.91542937 12.63290531-35.95482188 0-36.15641156-29.03360344-65.53559531-64.93562812-65.53559531z m25.93297312 85.26250968a178.57897781 178.57897781 0 0 1-13.24247156 18.44058657 302.25857531 302.25857531 0 0 1-12.70010156 14.65839375 292.51991062 292.51991062 0 0 1-12.69050156-14.67279375c-13.27126969-16.44389531-21.28202906-30.83350406-21.28202907-38.15310094 0-19.11734812 15.24396188-34.55809969 33.98213063-34.55809969 18.73336969 0 33.99173063 15.44075063 33.99173062 34.55809969 0 4.02697875-2.75024906 11.07779063-8.0587575 19.72691437z"  horiz-adv-x="1024" />

    
    <glyph glyph-name="bingtu" unicode="&#58896;" d="M437.10875 761.4571875v-452.4421875H889.55c-25.025625-199.4615625-195.7115625-354.3065625-401.8275-354.3065625-223.2684375 0-405.015 181.6528125-405.015 405.015 0 206.1159375 154.845 376.801875 354.4003125 401.73375m50.615625 53.803125C236.0525 815.259375 32.09375 611.2987499999999 32.09375 359.62874999999997 32.09375 108.05343749999997 236.0534375-96 487.7234375-96c251.57625 0 455.6296875 203.960625 455.6296875 455.6296875H487.7234375V815.259375zM586.985 810.1040625c182.870625-22.8703125 328.24875-168.2484375 351.1190625-351.2128125H586.985V810.1040625M536.275625 863.90625v-455.6296875H991.90625C991.90625 659.9465625 787.9465625 863.90625 536.2765625 863.90625z"  horiz-adv-x="1024" />

    
    <glyph glyph-name="gongshuixitong" unicode="&#59170;" d="M182 679.92c33.48 9.24 68.16 3.36 110.46-23.4 3.36-2.34 12.48-6.6 23.28-8.82 16.98-3.48 33.54-1.2 50.04 9.24a172.08 172.08 0 0 0 184.32-0.42c3.3-2.34 12.48-6.6 23.22-8.82 17.04-3.48 33.6-1.2 50.04 9.24a172.14 172.14 0 0 0 184.38-0.48c1.32-0.9 7.44-6.6 8.82-7.5 5.88-3.84 13.08-4.8 25.44 1.08v-56.16a82.32 82.32 0 0 0-60.96 11.82c-5.94 3.9-11.88 9.24-10.2 8.4a107.1 107.1 0 0 1-112.5-0.78 130.56 130.56 0 0 0-98.52-17.88 132.6 132.6 0 0 0-45.48 17.94 107.1 107.1 0 0 1-113.58 0 130.56 130.56 0 0 0-98.58-18 132.48 132.48 0 0 0-45.36 18c-32.16 20.28-50.4 21.24-74.82 7.8v58.74z m0-253.02v58.8c33.48 9.24 68.16 3.36 110.46-23.4 3.36-2.34 12.48-6.6 23.28-8.76 16.98-3.6 33.54-1.2 50.04 9.18a172.08 172.08 0 0 0 184.32-0.42c3.3-2.34 12.48-6.6 23.22-8.76 17.04-3.6 33.6-1.2 50.04 9.18a172.14 172.14 0 0 0 184.38-0.42c1.32-0.96 7.44-6.6 8.82-7.56 5.88-3.84 13.08-4.74 25.44 1.08v-56.16a82.32 82.32 0 0 0-60.96 11.82c-5.94 3.9-11.88 9.24-10.2 8.4a107.1 107.1 0 0 1-112.5-0.78 130.56 130.56 0 0 0-98.52-17.88 132.6 132.6 0 0 0-45.48 18 107.1 107.1 0 0 1-113.58-0.12 130.56 130.56 0 0 0-98.58-17.88 132.48 132.48 0 0 0-45.36 17.88c-32.16 20.4-50.4 21.3-74.82 7.8z m0-194.16v58.74c33.48 9.3 68.16 3.42 110.46-23.4 3.36-2.28 12.48-6.54 23.28-8.76 16.98-3.54 33.54-1.2 50.04 9.18a172.08 172.08 0 0 0 184.32-0.42c3.3-2.28 12.48-6.54 23.22-8.76 17.04-3.54 33.6-1.2 50.04 9.18a172.14 172.14 0 0 0 184.38-0.42c1.32-0.96 7.44-6.6 8.82-7.5 5.88-3.9 13.08-4.8 25.44 1.02v-56.16a82.32 82.32 0 0 0-60.96 11.88c-5.94 3.9-11.88 9.24-10.2 8.4a107.1 107.1 0 0 1-112.5-0.78 130.56 130.56 0 0 0-98.52-17.94 132.6 132.6 0 0 0-45.48 18 107.1 107.1 0 0 1-113.58-0.06 130.56 130.56 0 0 0-98.58-17.94 132.48 132.48 0 0 0-45.36 17.94c-32.16 20.34-50.4 21.24-74.82 7.8zM32 744h60v-660a30 30 0 0 1 30-30h780a30 30 0 0 1 30 30V744h60v-660a90 90 0 0 0-90-90h-780A90 90 0 0 0 32 84V744z"  horiz-adv-x="1024" />

    
    <glyph glyph-name="kefu" unicode="&#58890;" d="M501.977048 245.849154c-74.620827 0-144.771557 29.18477-197.528641 82.170325-52.71735 52.955755-81.753116 123.354824-81.753117 198.22399s29.035767 145.268235 81.753117 198.22399c52.757084 52.985556 122.89788 82.170325 197.528641 82.170325 74.620827 0 144.771557-29.18477 197.528641-82.170325 52.71735-52.955755 81.753116-123.354824 81.753117-198.22399s-29.035767-145.268235-81.753117-198.22399c-52.757084-52.985556-122.907814-82.170325-197.528641-82.170325z m0 503.183974c-122.222399 0-221.667168-99.941446-221.667168-222.779725S379.754649 303.463744 501.977048 303.463744s221.667168 99.941446 221.667168 222.779725-99.434835 222.789659-221.667168 222.789659zM963.122239-128H40.841791v28.807295c0 79.428666 20.393578 157.784508 58.965552 226.614076 37.370015 66.683921 91.199922 123.62303 155.648795 164.648591l18.49627 11.771256 16.271155-14.69172c58.250337-52.568347 133.44731-81.524645 211.753485-81.524645s153.503148 28.946365 211.753485 81.524645l16.271155 14.69172 18.49627-11.771256c64.448872-41.035495 118.27878-97.96467 155.648795-164.648591 38.571975-68.829568 58.965553-147.195344 58.965552-226.614076v-28.807295z m-863.66257 57.61459h805.044691c-8.463385 121.338313-70.140796 231.511316-169.456429 302.089188-66.137576-52.826619-148.049629-81.683582-233.070883-81.683581s-166.933307 28.856963-233.070883 81.683581C169.590532 161.11597200000006 107.923054 50.95290299999999 99.459669-70.38540999999998zM817.993074 396.342436h-28.807295V646.767231h28.807295c68.809701 0 124.785255-56.174225 124.785255-125.212398S886.802774 396.342436 817.993074 396.342436z m28.807295 186.263996v-122.123064c22.658428 10.877237 38.36337 34.151545 38.36337 61.061532s-15.704943 50.194228-38.36337 61.061532zM214.768317 396.342436h-28.807295c-68.809701 0-124.785255 56.174225-124.785254 125.212397S117.151322 646.767231 185.961022 646.767231h28.807295V396.342436z m-57.614589 186.263996c-22.658428-10.877237-38.36337-34.151545-38.363371-61.061532s15.695009-50.184295 38.363371-61.061532V582.606432zM202.331513 608.791269l-55.598079 15.128797c10.529563 38.711044 27.237794 75.276442 49.637949 108.673037 22.052481 32.870117 49.061803 61.856216 80.292884 86.143745 31.568822 24.555736 66.62432 43.667886 104.183073 56.800039C419.717321 889.106116 460.474676 896 501.977048 896c41.2441 0 81.743183-6.804482 120.384692-20.224708 37.350148-12.973216 72.246709-31.846961 103.716196-56.114624 31.121812-23.999457 58.111267-52.647815 80.213416-85.170257 22.449823-33.01912 39.297124-69.197109 50.084959-107.540612l-55.45901-15.605607C763.318815 745.029907 640.391134 838.38541 501.977048 838.38541c-139.645846 0-262.8616-94.408459-299.645535-229.594141z"  horiz-adv-x="1024" />

    
    <glyph glyph-name="tianqiyuntu" unicode="&#58934;" d="M843.106743 388.928C864.928914 424.8576 877.714286 466.856229 877.714286 511.963429c0 131.285943-106.428343 237.714286-237.714286 237.714286-90.8928 0-169.786514-51.035429-209.786514-125.999543C398.357943 634.0352 364.500114 640 329.142857 640 147.357257 640 0 492.642743 0 310.857143s147.357257-329.142857 329.142857-329.142857l365.714286 0 0 0.928914c122.7136 9.3568 219.428571 111.678171 219.428571 236.785371C914.285714 285.822171 886.999771 345.786514 843.106743 388.928zM815.356343 412.143543c-0.321829 0.250514-0.643657 0.4992-1.000229 0.749714C814.714514 412.642743 815.036343 412.392229 815.356343 412.143543zM497.570743 592.8576c28.357486 49.7152 81.214171 83.679086 142.429257 83.679086 90.750171 0 164.571429-73.821257 164.571429-164.571429 0-29.249829-8.285257-56.321829-21.714286-80.107886 0.071314-0.036571 0.142629-0.071314 0.1792-0.107886C750.999771 447.857371 714.8928 457.142857 676.571429 457.142857c-17.285486 0-34.071771-1.929143-50.285714-5.429029-28.035657 59.035429-73.3568 107.964343-129.071543 141.321143C497.322057 592.963657 497.464686 592.928914 497.570743 592.8576zM689.285486 55.572114 681.322057 54.857143 329.142857 54.857143c-141.143771 0-256 114.856229-256 256s114.856229 256 256 256c98.106514 0 188.785371-57.499429 231.071086-146.536229l24.8576-52.320914 56.643657 12.214857c11.642514 2.499657 23.356343 3.785143 34.856229 3.785143 90.750171 0 164.571429-73.821257 164.571429-164.571429C841.142857 134.036114 774.429257 62.070857 689.285486 55.572114zM914.285714 530.249143l109.714286 0 0-36.571429-109.714286 0 0 36.571429ZM621.714286 896l36.571429 0 0-109.714286-36.571429 0 0 109.714286ZM924.500114 770.570971 898.642286 796.4288 821.035886 718.857143 846.893714 692.999314ZM459.000686 718.893714 381.392457 796.463543 355.536457 770.607543 433.106286 693.035886Z"  horiz-adv-x="1024" />

    
    <glyph glyph-name="arrDownDlb" unicode="&#60307;" d="M529.066667 379.733333l-192 192 29.866666 29.86666701 162.133334-162.13333301 162.13333299 162.133333 29.86666701-29.86666701-192-191.99999999z m0-256l-192 192.00000001 29.866666 29.86666699 162.133334-162.133333 162.133333 162.133333 29.866667-29.866667-192-192z"  horiz-adv-x="1024" />

    
    <glyph glyph-name="arrUpDlb" unicode="&#60308;" d="M494.933333 388.266667l192-192-29.866666-29.86666701-162.133334 162.13333301-162.13333299-162.133333-29.86666701 29.86666701 192 191.99999999z m0 256l192-192.00000001-29.866666-29.86666699-162.133334 162.133333-162.133333-162.133333-29.866667 29.866667 192 192z"  horiz-adv-x="1024" />

    
    <glyph glyph-name="play" unicode="&#58914;" d="M861.973 432l-623.573 420c-43.627 29.974-99.733 0-99.733-48v-840c0-48 56.107-77.974 99.733-48l623.627 420c31.147 24 31.147 72 0 96z"  horiz-adv-x="1024" />

    
    <glyph glyph-name="tuxing" unicode="&#58916;" d="M0.01011358 352.93108148h919.63998815l-118.06189037 177.09283555h65.24472889L1025.28442469 290.79324445H0.01011358z"  horiz-adv-x="1024" />

    
    <glyph glyph-name="yeweiji" unicode="&#58892;" d="M876.08888889 80.93305615999998v103.12809687H739.55393739v91.02286949H876.08888889V411.61638495H739.55393739v91.02286948H876.08888889V639.17161687H739.55393739v91.0228695H876.08888889V821.21735585h91.02286949v-799.7657442c14.97262965-13.47355433 26.85131283-26.07847348 34.95253333-35.81987396l-69.90506666-58.2529277a329.86518061 329.86518061 0 0 1-40.86857323 39.13907011c-28.2170507 22.52884955-55.25089343 35.49882848-75.86770995 35.49882849-14.10917262 0-20.43558115-4.55159657-40.91517662-29.12711112-36.40888889-43.69066667-61.6666251-61.89446384-110.81894874-61.89446384s-74.36475102 18.20379717-110.81894874 61.89446384c-20.47959547 24.57551455-26.80729853 29.12711111-40.86986777 29.12711112-14.10917262 0-20.43428661-4.55159657-40.86857324-29.12711112-36.40888889-43.69066667-61.71322848-61.89446384-110.82024327-61.89446384-49.15232364 0-74.41005985 18.20379717-110.81894874 61.89446384-20.47959547 24.57551455-26.85260737 29.12711111-40.91517662 29.12711112a104.67636464 104.67636464 0 0 1-61.80384616-20.79934642c-11.19516697-8.00930829-18.65947465-15.74546899-21.57218575-19.66015273l-4.91536183-5.55227465c-12.74343475-12.24244844-23.57354192-23.43761541-29.89995045-30.31031909l-66.99235556 61.62131627a878.13709117 878.13709117 0 0 0 31.49352707 32.08513106c8.28245586 10.33170995 21.2084205 23.16576237 38.86592253 35.7732706 32.76735273 23.52823309 71.31611339 37.86524445 114.82425015 37.86524445 49.15232364 0 74.41005985-18.20509171 110.82024329-61.89575838 20.47959547-24.57551455 26.85131283-29.12711111 40.91388207-29.12711111s20.38897778 4.55159657 40.86857322 29.12711111c36.41018343 43.69066667 61.66791965 61.89446384 110.82024329 61.89446384s74.41005985-18.20379717 110.81894875-61.89446384c20.47959547-24.57551455 26.85260737-29.12711111 40.86857322-29.12711111 14.11046717 0 20.43558115 4.55159657 40.91517661 29.12711111 36.41018343 43.69066667 61.66791965 61.89446384 110.82024329 61.89446384 20.47959547 0 40.73135218-4.27715445 60.66594702-12.10522738z m-546.13333334 148.63888434c-125.1559601 0-227.55523191 104.58315789-227.55523191 233.28874193 0 152.87331903 211.30748208 403.8674609 227.55393737 403.8674609S557.51337655 615.7352960000001 557.51337655 462.8632715c0-128.70687858-102.40056637-233.29133101-227.55652645-233.291331z"  horiz-adv-x="1024" />

    
    <glyph glyph-name="wushuichang" unicode="&#59090;" d="M572-96V384l154.86-240.48h349.32L1232 384v-480z m-60 0H32V864h480v-960z m-360 240h240v60H152z m0 240h240V444H152z m0 240h240V684H152z m814.26-229.86a83.1 83.1 0 1 0 137.16 0 68.58 68.58 0 1 0-137.16 0zM692 551.7c0 87.54 120 227.58 120 227.58s120-140.1 120-227.58a120 120 0 1 0-240 0z m342.84 122.52a83.1 83.1 0 1 0 137.16 0 68.58 68.58 0 1 0-137.16 0z"  horiz-adv-x="1280" />

    
    <glyph glyph-name="paishuibengzhan" unicode="&#59155;" d="M512 384l374.07560477 223.80689635L886.07560477 160.13873265999996zM512 384l-374.12997461 223.80689635L137.87002539 160.13873265999996zM988.78556501 384c0 131.66425088-53.33562368 250.83297223-139.64313714 337.14048569S643.66425088 860.78556501 512 860.78556501s-250.88734208-53.33756587-337.14048569-139.64507932C88.55005867 634.83297223 35.21443499 515.66425088 35.21443499 384S88.55005867 133.11265791999995 174.85951431 46.85951431000001C261.11265792-39.44799914999999 380.33574912-92.78556501000003 512-92.78556501000003c131.66619307 0 250.83491328 53.33950805 337.14242787 139.64507932 86.30945565 86.25314361 139.64313827 205.47817586 139.64313714 337.14048569z m-176.13746631 300.64615765c76.89557333-76.94994432 124.50674915-183.238656 124.50674916-300.64615765s-47.61505906-223.69621333-124.50674916-300.64615765c-76.95188538-76.89557333-183.238656-124.50869134-300.6480987-124.50869021-117.40750165 0-223.69427115 47.55680483-300.64615765 124.50869021C134.45632796 160.30378667000002 86.84515214 266.59249835 86.84515214 384s47.61311802 223.69621333 124.50674916 300.64615765c76.95188537 76.89751553 183.238656 124.50869134 300.64615651 124.50869021 117.4113849 0 223.70009657-47.61311801 300.65004089-124.50869021z"  horiz-adv-x="1024" />

    
    <glyph glyph-name="paiwuqiye" unicode="&#59256;" d="M985.81233125 36.96292593999999H785.6964125c-1.43899313 0-2.87798531 0.57559688-3.83731406 1.72679156-1.05526125 1.15119375-1.63085813 2.59018687-1.53492563 4.221045V226.33436625000002c0 20.721495-15.63705375 37.60567594-34.91955562 37.60567594h-14.10212907c-1.43899313 0-2.87798531 0.67153031-3.93324656 1.72679062-1.05526125 1.15119375-1.63085813 2.68611937-1.53492562 4.22104594V404.76946125c0 1.53492563 0.57559688 3.06985125 1.53492562 4.221045 1.05526125 1.15119375 2.39832094 1.72679156 3.93324656 1.72679156H764.01558875c79.81612875 0 149.1755775-58.99870125 167.49875156-142.55621062l59.76616313-223.907265c0.38373094-1.72679156 0-3.54951563-1.05526125-4.98850782-1.15119375-1.53492563-2.78205281-2.30238844-4.41291094-2.30238843z m-340.56160687 213.83431593h-79.91206125V-15.704206880000015h399.75217312c14.67772594 0 26.66933156-11.89567313 26.66933156-26.66933156 0-14.67772594-11.89567313-26.66933156-26.66933156-26.66933156H32.33576469V730.46147719C32.33576469 789.364245 80.01438969 837.04287 138.91715844 837.04287h319.74417844c58.90276781 0 106.58139281-47.678625 106.58139281-106.58139281v-426.32557219h53.33866312V437.29069688c0 14.67772594 11.89567313 26.66933156 26.66933157 26.66933156s26.66933156-11.89567313 26.66933156-26.66933156v-159.92005594c0-14.67772594-11.99160563-26.57339906-26.66933156-26.57339907z m-133.25072438 479.66423532c0 29.45138437-23.88727875 53.33866312-53.33866312 53.33866312H138.91715844c-29.45138437 0-53.33866312-23.88727875-53.33866313-53.33866312V-15.704206880000015h426.32557219V730.46147719z m-346.41351094-53.33866313H432.08793875c14.67772594 0 26.66933156-11.89567313 26.66933156-26.66933156s-11.89567313-26.66933156-26.66933156-26.66933156H165.58648906c-14.67772594 0-26.66933156 11.89567313-26.66933062 26.66933156s11.99160563 26.66933156 26.66933062 26.66933156z m0-159.92005594H432.08793875c14.67772594 0 26.66933156-11.89567313 26.66933156-26.66933156 0-14.67772594-11.89567313-26.66933156-26.66933156-26.66933156H165.58648906c-14.67772594 0-26.66933156 11.89567313-26.66933062 26.66933156s11.99160563 26.66933156 26.66933062 26.66933156z m0-159.82412343H432.08793875c14.67772594 0 26.66933156-11.89567313 26.66933156-26.66933157 0-14.67772594-11.89567313-26.66933156-26.66933156-26.66933156H165.58648906c-14.67772594 0-26.66933156 11.89567313-26.66933062 26.66933156 0 14.67772594 11.99160563 26.66933156 26.66933062 26.66933157z"  horiz-adv-x="1024" />

    
    <glyph glyph-name="abaoguan" unicode="&#59111;" d="M708.91372885 311.89520725l-88.46546602-45.92794624-25.7693423-55.83376952-39.0970277 0.31319494-81.1606801-19.63816504-36.8417883 48.84450645h-52.62147926l-29.43803619 72.24334336H38.48003811v-304.53301362h947.03875983v304.53301362H708.91372885z m218.62317512-240.74943829H96.98470002V248.76945863000003l230.61424924-0.2037521 28.79301746-64.92807738h68.13105266l37.84191772-52.0125531 96.0298917 27.93143865 59.90414563-0.96287289 30.0644261 51.53984968 65.17840214 38.44618694 213.99393735 0.21073693 0.00116395-177.6446464zM367.41551218 386.89560235c27.57749305-4.13906944 49.38124629-7.39793123 67.86559431-48.72225565l28.2946981-63.18396416 1.0595089 69.19871261c0.03260075 1.63932729 0.50763321 40.70375538-7.58654748 84.23092565-11.44734947 61.61798713-34.07193088 100.40764075-67.15770198 115.22096697-13.99948402 6.24760718-28.03738965 9.43544661-41.74463544 9.43544661-28.89314645 0-53.68564509-14.19159211-66.28331748-37.96766151-13.61759459-25.67270627-10.11772416-58.08667989 9.296896-86.67245226 22.78758286-33.56196864 51.20569685-37.78603122 76.25550507-41.53971826z m-47.12833593 106.32342414c5.35575779 10.13635299 16.28615907 16.19417998 29.22846322 16.19417884 6.97296327 0 14.31267897-1.68706389 21.77464661-5.07749034 21.6046592-9.68693533 31.97736391-42.88098645 36.88486685-69.00893241 1.34708907-7.13014272 2.3530405-14.15317049 3.09935331-20.71280868-14.53389483 11.77102336-30.30310685 14.15433443-43.99055986 16.20815189-16.7344128 2.51953493-29.97593998 4.50465792-41.34062421 21.25769842-9.80220018 14.40931613-11.84088064 29.43454322-5.65614592 41.13920228z m239.06470343-148.99716665l1.07697266-69.23131221 28.23299072 63.20259186c18.5041408 41.30685952 40.32419499 44.56455737 67.90867399 48.72109056 25.04631523 3.73505821 53.44580039 7.99870749 76.27063978 41.53971939 19.43091997 28.5904293 22.87606898 60.98111715 9.27477419 86.65498738-12.57555058 23.81216199-37.3855141 37.98745429-66.26119566 37.98745543-13.73053155 0-27.76610816-3.18783943-41.76326315-9.43544775-33.1067301-14.81565411-55.6917248-53.60297984-67.15770311-115.22445995-8.07787861-43.52484238-7.62147499-82.58810539-7.58188942-84.21462471z m51.87283741 87.40013625c5.14734877 27.4389413 16.03583545 62.28512768 38.71164643 72.48784612 7.81358421 3.53130723 15.5165605 5.30219918 22.84463331 5.30219918 13.56054414 0 25.01022151-6.36170809 30.61280996-16.99405028 6.50142379-12.29146339 4.34864242-28.05368946-5.9320832-43.20233244-11.90724494-17.60763449-25.76701326-19.67658667-43.33156921-22.32302934-14.36041557-2.17141021-30.91552597-4.65950834-46.14450631-17.02199296a304.30830478 304.30830478 0 0 0 3.23906902 21.75135972z m-109.17012594 65.02937145l10.75808711-15.58059577 12.99353259 13.7398454c3.6104795 3.82587335 88.68901091 94.72355214 76.63739334 170.35266617-4.37542115 27.47736291-16.40025998 51.36054727-34.68551395 69.10906141-17.52147627 16.99754325-38.97943381 26.36429767-60.34075534 26.36429767-17.3025883 0-33.10440107-6.15795598-45.70440249-17.87425792-52.30013326-48.57439005-43.75187911-97.89509177-33.99741554-122.98565063 13.61992363-34.97775218 71.86261902-119.53933767 74.33907428-123.12536633zM488.16688014 705.32098389c5.74928896 5.23932786 12.61397219 7.91487829 20.5032357 7.9148783 21.74786674 0 47.67788259-21.35549952 53.45860722-57.06093682 5.56765867-34.65989917-25.45498226-81.23519431-46.20854159-106.47245369-16.52134685 24.50724637-42.5200549 64.65912605-49.44062464 82.32730283-10.17710251 25.98357219-2.87813746 50.63635627 21.68732331 73.29120938z"  horiz-adv-x="1024" />

    
    <glyph glyph-name="xuqiu" unicode="&#58885;" d="M516.68 48.059999999999945l-30-7.56V144h60v-103.8ZM516.68 744a30 30 0 0 0-30 30v60a30 30 0 0 0 60 0v-60a30 30 0 0 0-30-30ZM692-66a29.64 29.64 0 0 0-8.82 1.32l-166.62 51.36-173.46-51.48a30 30 0 0 0-17.1 57.54l182.16 54.06a30.66 30.66 0 0 0 17.4-0.12l175.32-54.06A29.94 29.94 0 0 0 692-66ZM902 144h-780C72.38 144 32 184.38 32 234v480C32 763.62 72.38 804 122 804h780c49.62 0 90-40.38 90-90v-480c0-49.62-40.38-90-90-90ZM122 744c-16.5 0-30-13.5-30-30v-480c0-16.5 13.5-30 30-30h780c16.5 0 30 13.5 30 30v480c0 16.5-13.5 30-30 30h-780ZM426.68 317.46000000000004a30.12 30.12 0 0 0-21.24 8.76L218.9 512.76a30 30 0 0 0 42.42 42.42l165.36-165.36 160.68 160.68a30 30 0 0 0 42.42 0l178.62-178.62a30 30 0 0 0-42.42-42.42L608.54 486.9 447.92 326.22a29.88 29.88 0 0 0-21.24-8.76Z"  horiz-adv-x="1024" />

    
    <glyph glyph-name="weiguanbigaojing" unicode="&#59911;" d="M751.70504 286.29600000000005l50.928-50.904a24 24 0 1 0-33.96-33.96l-50.88 50.928-50.928-50.928a24 24 0 0 0-33.936 33.96l50.88 50.88-50.88 50.928a24 24 0 0 0 33.936 33.936l50.904-50.88 50.904 50.88a24 24 0 1 0 33.96-33.936l-50.928-50.904zM284.06504 750.144V768a96 96 0 1 0 192 0v-17.88c70.32-26.16 131.688-79.008 164.952-144.96a24 24 0 0 0-42.864-21.6C558.33704 662.52 468.67304 719.808 380.13704 720c-122.112-0.24-238.32-106.944-238.32-216.96l-0.936-284.448c0-47.376-10.272-89.544-29.16-126.168h291.6a24 24 0 1 0 0-48H68.06504a24 24 0 0 0-18.984 38.688c28.032 36.24 43.8 81.192 43.8 135.552l0.936 284.472c0 106.728 83.616 207.312 190.248 247.008z m48 13.344A267.048 267.048 0 0 0 380.13704 768c16.08-0.024 32.112-1.584 47.928-4.536V768a48 48 0 1 1-96 0v-4.512z m-120-445.2a12 12 0 0 0-24 0.072l0.432 131.328c0 50.928 20.304 102.144 56.352 145.92a12 12 0 0 0 18.528-15.24c-32.664-39.696-50.88-85.608-50.88-130.704L212.06504 318.24zM260.06504 24h48a72 72 0 0 1 144 0h48a120 120 0 0 0-240 0z m653.712 351.072a24 24 0 1 0 43.92 19.368c14.64-33.264 22.32-69.312 22.32-106.416 0-145.8-118.176-264-263.976-264S452.06504 142.24800000000005 452.06504 288.048 570.24104 552 716.06504 552c18.48 0 36.72-1.92 54.552-5.664a24 24 0 1 0-9.888-46.968 216 216 0 1 1 171.288-211.344 215.136 215.136 0 0 1-18.24 87.048z"  horiz-adv-x="1024" />

    
    <glyph glyph-name="yongshuiqingkuang" unicode="&#59448;" d="M217.6 490.66666666c6.4 0 12.8-6.4 19.2 0l140.8 153.6 128-128 6.4-6.4c0-6.4 6.4-6.4 12.8-6.4s12.8 0 12.8 6.4l153.6 153.6c19.2 19.2 25.6 44.8 12.8 51.2-6.4 6.4-19.2 19.2-44.8 0l-140.8-128-128 128c-19.2 19.2-25.6 6.4-32 0L211.2 541.86666666c-12.8-12.8-6.4-38.4 6.4-51.2 0-6.4-6.4 0 0 0zM646.4 196.26666666000006c0-6.4 0-6.4 0 0 12.8-19.2 25.6-19.2 38.4-19.2 32 0 51.2 38.4 89.6 38.4 12.8 0 32-6.4 38.4-19.2l-83.2 153.6-83.2-153.6zM736 471.46666666c-147.2 0-268.8-121.6-268.8-268.8 0-32 6.4-70.4 19.2-96H115.2V778.66666666c0 12.8-12.8 25.6-32 25.6-12.8 0-19.2-12.8-19.2-25.6v-704c0-6.4 0-19.2 6.4-25.6 6.4-6.4 19.2-6.4 25.6-6.4h422.4c51.2-64 128-108.8 217.6-108.8 147.2 0 268.8 121.6 268.8 268.8s-121.6 268.8-268.8 268.8z m0-454.4c-70.4 0-128 57.6-128 128 0 19.2 6.4 38.4 12.8 57.6l96 172.8c6.4 6.4 12.8 12.8 19.2 12.8s19.2-6.4 19.2-12.8l96-172.8c12.8-19.2 12.8-38.4 12.8-57.6 0-70.4-57.6-128-128-128z"  horiz-adv-x="1024" />

    
    <glyph glyph-name="shengchenggongdan" unicode="&#59081;" d="M314.02666667 629.76h409.6c6.82666667 0 20.48 6.82666667 20.48 6.82666667 6.82666667 6.82666667 6.82666667 13.65333333 6.82666666 20.48l-13.65333333 102.4c0 13.65333333-13.65333333 27.30666667-27.30666667 27.30666666H614.4L580.26666667 848.21333333c-6.82666667 6.82666667-13.65333333 13.65333333-27.30666667 13.65333334H477.86666667c-13.65333333 0-20.48-13.65333333-27.30666667-20.48l-27.30666667-47.78666667H327.68c-13.65333333 0-27.30666667-13.65333333-27.30666667-27.30666667l-13.65333333-102.4c0-6.82666667 0-13.65333333 6.82666667-20.48 6.82666667-6.82666667 13.65333333-13.65333333 20.48-13.65333333z m40.96 102.4H443.73333333c13.65333333 0 20.48 6.82666667 27.30666667 13.65333333l27.30666667 54.61333334h40.96l34.13333333-61.44c6.82666667-6.82666667 13.65333333-13.65333333 27.30666667-13.65333334h88.74666666l6.82666667-40.96h-341.33333333v47.78666667zM873.81333333 745.81333333h-61.44c-20.48 0-27.30666667-13.65333333-27.30666666-27.30666666s13.65333333-27.30666667 27.30666666-27.30666667h61.44v-696.32H170.66666667V691.2h61.44c20.48 0 27.30666667 13.65333333 27.30666666 27.30666667s-13.65333333 27.30666667-34.13333333 27.30666666H170.66666667c-34.13333333 0-61.44-20.48-61.44-54.61333333v-696.32c0-34.13333333 27.30666667-61.44 61.44-61.44h696.32c34.13333333 0 61.44 27.30666667 61.44 61.44V691.2c0 27.30666667-27.30666667 54.61333333-54.61333334 54.61333333zM628.05333333 500.05333333H252.58666667c-13.65333333 0-27.30666667-13.65333333-27.30666667-27.30666666s13.65333333-27.30666667 27.30666667-27.30666667h375.46666666c13.65333333 0 27.30666667 13.65333333 27.30666667 27.30666667s-13.65333333 27.30666667-27.30666667 27.30666666z m-122.88-136.53333333H252.58666667c-13.65333333 0-27.30666667-6.82666667-27.30666667-27.30666667 0-13.65333333 13.65333333-27.30666667 27.30666667-27.30666666h252.58666666c13.65333333 0 27.30666667 13.65333333 27.30666667 27.30666666 0 20.48-13.65333333 27.30666667-27.30666667 27.30666667z m-68.26666666-129.70666667H252.58666667c-13.65333333 0-27.30666667-13.65333333-27.30666667-27.30666666s13.65333333-27.30666667 27.30666667-27.30666667h184.32c13.65333333 0 27.30666667 13.65333333 27.30666666 27.30666667s-13.65333333 27.30666667-27.30666666 27.30666666zM621.22666667 56.32000000000005s47.78666667 88.74666667 102.4 163.84c40.96 61.44 95.57333333 109.22666667 95.57333333 109.22666667l-13.65333333 27.30666666s-61.44-40.96-109.22666667-95.57333333c-47.78666667-54.61333333-88.74666667-116.05333333-88.74666667-116.05333333l-75.09333333 68.26666666-34.13333333-34.13333333 122.88-122.88z"  horiz-adv-x="1024" />

    
    <glyph glyph-name="zaixian" unicode="&#58974;" d="M769.25 786.99H253.94A189.45 189.45 0 0 1 64.7 597.75v-304.98a189.45 189.45 0 0 1 189.24-189.24h167.25v-88.74h-114.9a16.89 16.89 0 1 1 0-33.78h411.45a16.89 16.89 0 1 1 0 33.78h-114.9v88.74h166.41a189.45 189.45 0 0 1 189.24 189.24V597.75a189.45 189.45 0 0 1-189.24 189.24z m-199.38-772.17h-115.74v88.74h115.74v-88.74z m334.56 277.95c0-57.84-36.69-106.89-87.87-126.18V374.70000000000005a16.02 16.02 0 0 1-16.02 16.02h-0.03a15.99 15.99 0 0 1-16.02-16.02v-215.61c-5.07-0.57-9.99-1.53-15.21-1.53h-67.59V528a16.53 16.53 0 0 1-16.53 16.53h-0.75a16.53 16.53 0 0 1-16.53-16.53v-370.41h-81.93v186.3a16.5 16.5 0 0 1-16.47 16.47h-0.03a16.5 16.5 0 0 1-16.47-16.47v-186.3h-81.93v186.3a16.5 16.5 0 0 1-16.47 16.47h-0.03a16.5 16.5 0 0 1-16.47-16.47v-186.3h-82.77v278.79a16.05 16.05 0 0 1-16.02 16.02h-0.06a16.02 16.02 0 0 1-16.02-16.02v-278.79H253.94c-4.62 0-9 0.93-13.53 1.38v184.92a16.5 16.5 0 0 1-16.47 16.47h-0.03a16.5 16.5 0 0 1-16.47-16.47v-177.54c-51.6 19.05-88.71 68.28-88.71 126.45V597.75a135.33 135.33 0 0 0 135.18 135.18h515.34a135.33 135.33 0 0 0 135.18-135.18v-304.98zM924.35 360.92999999999995c-24.3 0-50.61 7.47-70.53 30.48-11.13 12.87-21.75 34.62-35.19 62.19-29.43 60.36-73.8 151.47-131.28 146.7-60.03-5.19-94.08-76.17-121.44-133.17-11.7-24.36-21.78-45.42-33.27-60.03-24.03-30.6-48.21-34.83-64.26-33.03-27.06 3.09-46.5 25.05-54.9 42.96l-4.44 9.84c-11.94 26.97-34.08 77.58-67.44 74.1A86.1 86.1 0 0 1 266.36 438c-13.26-54.9-69.15-69.18-101.82-68.64H59.03a27.06 27.06 0 0 0 0 54.06H164.9c2.55-0.15 42.36 0.24 49.05 27.99a140.43 140.43 0 0 0 122.73 103.35c71.52 6.54 105.54-69.48 121.77-106.05l3.96-8.76c2.64-5.61 8.76-11.82 12.06-12.18 1.65-0.15 7.08 1.77 15.66 12.72 7.83 9.96 17.16 29.4 27.03 50.01 31.56 65.76 74.76 155.79 165.57 163.65 94.02 8.25 148.59-103.17 184.5-176.85 10.32-21.12 20.94-42.96 27.48-50.49 19.35-22.41 59.04-5.91 59.43-5.73a27 27 0 1 0 21.69-49.53 132.96 132.96 0 0 0-51.48-10.62z"  horiz-adv-x="1024" />

    
    <glyph glyph-name="chakangongdan" unicode="&#58947;" d="M614.78011813-27.449721559999944H193.55024938a92.93997094 92.93997094 0 0 0-92.99997094 93.05997093V702.36005062a93.11997094 93.11997094 0 0 0 92.99997093 93.14997094h636.71980125a92.39997094 92.39997094 0 0 0 65.81997938-27.29999156c17.57999437-17.54999438 27.17999156-40.91998688 27.17999156-65.75997938l-1.44-421.16986874v-0.09a34.34998969 34.34998969 0 0 1 68.63997938-0.12l1.43999906 421.19986875v0.09A161.63994937 161.63994937 0 0 1 830.27005062 864H193.55024938A161.39994938 161.39994938 0 0 1 32.0003 702.36005062v-636.74980125A161.33994938 161.33994938 0 0 1 193.55024938-95.99969999999996h421.22986875a34.25998969 34.25998969 0 0 1 0 68.54997844z m-1e-8 0M981.98000281-37.529717809999966l-130.79995875 130.76995875c62.06998031 87.29997281 46.889985 207.53993531-34.85998875 276.68991375s-202.88993625 64.07998031-278.57991375-11.66999625a205.94993531 205.94993531 0 0 1 264.9899175-313.4099025l130.76995969-130.82995875a34.28998969 34.28998969 0 0 1 48.47998406 48.449985z m-298.46990625 112.85996437a137.15995688 137.15995688 0 1 0 114.08996438 213.38993344 137.15995688 137.15995688 0 0 0-17.06999531-173.21994656 136.13995781 136.13995781 0 0 0-97.01996907-40.16998688z m102.86996813 479.78985a34.37998969 34.37998969 0 0 1 0 68.75997844L237.80023531 624.030075a34.31998969 34.31998969 0 0 1 0-68.69997844l548.57982938-0.21z m-342.86989313-205.49993625a34.28998969 34.28998969 0 0 1 0 68.48997938H237.80023531a34.22998969 34.22998969 0 0 1 0-68.45997938l205.70993625-0.03z m-205.67993625-137.03995687a34.25998969 34.25998969 0 1 1 0-68.48997844l137.12995781-0.03a34.19998969 34.19998969 0 1 1 0 68.39997844l-137.12995781 0.12z m0 0"  horiz-adv-x="1024" />

    
    <glyph glyph-name="yizhangtu" unicode="&#58927;" d="M968.27428531 476.36571469a79.95428531 79.95428531 0 0 1-56.91428531 23.52h-127.61142844v-67.26857157h84.34285688l-348.89142844-348.82285781-114.58285687 114.51428625a33.66857156 33.66857156 0 0 1-53.76-39.56571468l-0.96-0.96 174.85714218-174.78857157h-412.11428531a13.37142844 13.37142844 0 0 0-13.44 13.09714313v19.95428625l250.69714313 250.56c6.24 6.17142844 9.66857156 14.60571469 9.66857156 23.58857062a33.46285687 33.46285687 0 0 1-33.39428625 33.80571469h-0.20571375a33.25714312 33.25714312 0 0 1-23.65714313-9.73714312l-202.97142843-203.04V419.45142844c0 3.49714313 1.44 6.99428531 3.90857156 9.39428625a12.54857156 12.54857156 0 0 0 9.12 3.77142844h127.81714219v67.33714218H112.36571469A80.22857156 80.22857156 0 0 1 32 419.58857156v-423.42857156c0-21.46285687 8.43428531-41.62285688 23.65714313-56.77714313 15.15428531-15.29142844 35.31428531-23.58857156 56.77714218-23.58857156v-0.13714219h798.92571469c44.29714313 0 80.50285688 36 80.64 80.36571375V419.38285688a80.77714312 80.77714312 0 0 1-23.72571469 56.98285781z m-401.48571375-440.16l357.80571375 357.87428531v-397.78285688a13.23428531 13.23428531 0 0 0-13.23428531-13.09714312h-291.42857156l-0.54857156 0.54857156-52.59428532 52.45714313zM511.93142844 664.45714313a57.32571469 57.32571469 0 0 1-49.50857157-85.78285782 57.25714312 57.25714312 0 1 1 49.50857157 85.78285781zM331.45142844 441.12l180.41142844-180.41142844 166.28571468 166.08 8.64 8.64a243.29142844 243.29142844 0 0 1 70.28571375 171.84c0 65.48571469-25.44 127.06285688-71.79428531 173.28A243.15428531 243.15428531 0 0 1 512 852.34285687c-65.55428531 0-127.06285688-25.44-173.34857156-71.79428531a243.56571469 243.56571469 0 0 1-71.79428532-173.34857156c0-61.98857156 22.90285688-120.61714312 64.73142844-165.94285688l-0.13714312-0.13714312z m306.17142843 40.32L511.93142844 355.74857155999996 393.37142844 474.30857156l-7.2 7.13142844a178.01142844 178.01142844 0 0 0 125.69142843 303.56571469 177.80571469 177.80571469 0 0 0 125.76-303.56571469z"  horiz-adv-x="1024" />

    
    <glyph glyph-name="GIS-tulitucengicon_shuibiaojing" unicode="&#58913;" d="M509.37929893 863.15850685a481.81402671 481.81402671 0 1 1 481.8140267-481.81402669 481.81402671 481.81402671 0 0 1-481.8140267 481.81402669z m276.24004197-757.99868775a390.65702809 390.65702809 0 1 0 114.41698612 276.24004197 388.10950565 388.10950565 0 0 0-114.47236704-276.24004197zM509.37929893 719.94344098a338.5435799 338.5435799 0 1 1 338.5435799-338.54357991 338.93124637 338.93124637 0 0 1-338.5435799 338.54357991z m48.29216452-405.3883535l-179.93261757 179.98799848L308.51269263 419.44655489l-28.29965146 210.44750593 193.83322913-30.73641203-61.74972871-67.0662973 181.42790247-181.42790247z"  horiz-adv-x="1024" />

    
    <glyph glyph-name="jueceguanli" unicode="&#58887;" d="M923.3675 71.8125H100.6325C62.7396875 71.84249999999997 32.0290625 102.7059375 32 140.78812500000004V760.336875C32 798.3703125 62.7884375 829.3125 100.6325 829.3125h822.735C961.2115625 829.3125 992 798.3703125 992 760.336875v-619.54875c0-38.0334375-30.7884375-68.975625-68.6325-68.975625zM99.606875 139.3125h824.78625l0.106875 0.1078125v622.284375l-0.106875 0.1078125H99.606875l-0.106875-0.1078125 0.106875-622.3378125c-0.106875 0-0.106875 0 0 0V139.3125zM66.2965625-61.260937499999955C47.3553125-61.260937499999955 32-46.32468749999998 32-27.899999999999977c0 18.42375 15.3553125 33.36 34.2965625 33.36L957.6771875 6.1875c18.95625 0 34.3228125-14.9475 34.3228125-33.38625s-15.3665625-33.38625-34.3228125-33.38625L66.2965625-61.3125c0.106875 0 0 0 0 0v0.0515625z m157.24125 416.9090625c-11.5153125-14.6559375-32.7328125-17.203125-47.3896875-5.6859375-14.6559375 11.5153125-17.203125 32.7328125-5.6859375 47.3896875l82.5 105c14.8396875 18.886875 44.1 16.665 55.9190625-4.245l67.5984375-119.596875 105.935625 194.1553125c11.289375 20.6896875 39.7696875 23.7309375 55.1728125 5.8903125l115.809375-134.13375 147.159375 185.55c11.5828125 14.604375 32.8115625 17.053125 47.415 5.47125 14.604375-11.5828125 17.053125-32.8115625 5.47125-47.415l-172.5-217.5c-13.155-16.58625-38.154375-17.1075-51.9890625-1.08375L518.3346875 497.5678125 406.626875 292.8346875c-12.684375-23.2471875-45.9778125-23.495625-59.008125-0.4415625L274.91 421.03125l-51.3721875-65.383125z"  horiz-adv-x="1024" />

    
    <glyph glyph-name="nengxiaoguanli" unicode="&#58982;" d="M274.86315762 386.82305781c-5.64611562 11.29223019-14.115288 16.93834581-25.40751819 16.93834581h-28.23057705C229.69423581 559.02957371 356.73182991 680.42105219 512 680.42105219c104.45313266 0 203.26015077-56.46115305 254.07518819-149.62205448 5.64611562-8.46917343 16.93834581-14.115288 28.230576-8.46917342 8.46917343 5.64611562 14.115288 16.93834581 8.46917343 28.23057705-59.28421086 104.45313266-169.38345914 169.38345914-287.95187981 169.38345809-186.32180495 0-335.94385943-149.62205552-335.94385943-335.94385943 0-11.29223019 8.46917343-19.76140362 19.76140362-19.76140362h25.40751819L145.00250677 273.90075171l-79.04561448 90.33784467h25.40751923c11.29223019 0 19.76140362 8.46917343 19.76140257 19.76140362 0 223.02155438 180.67568934 406.52030048 400.87418591 406.52030048 11.29223019 0 19.76140362 8.46917343 19.76140362 19.76140361s-8.46917343 19.76140362-19.76140362 19.76140362c-237.13684238 0-429.10476191-189.14486171-440.39699209-426.28170409H40.54937305c-11.29223019 0-22.58446143-5.64611562-25.40751819-16.93834581-5.64611562-11.29223019-2.82305781-22.58446143 5.64611457-31.05363381l104.45313371-118.56842171c5.64611562-5.64611562 14.115288-8.46917343 22.58446038-8.46917238s16.93834581 2.82305781 22.58446143 8.46917238l104.45313267 118.56842171c2.82305781 8.46917343 2.82305781 19.76140362 0 31.05363381zM1003.21203057 412.230576l-104.45313371 118.56842171c-11.29223019 11.29223019-31.05363381 11.29223019-42.345864 0L754.78295695 412.230576c-8.46917343-8.46917343-8.46917343-19.76140362-5.64611457-31.05363381 5.64611562-11.29223019 14.115288-16.93834581 25.40751819-16.93834581h28.23057705c-11.29223019-155.26817009-138.32982429-276.65964962-293.59799543-276.65964857-107.27619048 0-206.08320752 59.28421086-256.89824496 155.2681701-5.64611562 8.46917343-16.93834581 14.115288-25.40751923 8.46917238-8.46917343-5.64611562-14.115288-16.93834581-8.46917343-25.4075182 59.28421086-110.09924829 169.38345914-177.85263152 293.59799543-177.85263152 183.49874714 0 333.12080162 152.44511229 333.12080162 335.94385943 0 11.29223019-8.46917343 19.76140362-19.76140362 19.76140362h-25.40751819l79.04561342 90.33784467 79.04561448-90.33784467h-25.40751923c-11.29223019 0-19.76140362-8.46917343-19.76140257-19.76140362 0-223.02155438-180.67568934-406.52030048-400.87418591-406.52030048-11.29223019 0-19.76140362-8.46917343-19.76140362-19.76140361s8.46917343-19.76140362 19.76140362-19.76140362c237.13684238 0 429.10476191 189.14486171 440.39699209 426.28170409h31.05363486c11.29223019 0 22.58446143 5.64611562 25.40751819 16.93834581 5.64611562 11.29223019 2.82305781 22.58446143-5.64611457 31.05363381zM684.20651591 302.13132877L619.27619048 412.230576c-5.64611562 8.46917343-16.93834581 11.29223019-28.230576 8.46917343-8.46917343-5.64611562-14.115288-16.93834581-8.46917343-28.230576l62.10726866-104.45313372c0-2.82305781 0-2.82305781 2.82305677-5.64611457h-84.69172905l2.8230578 2.82305781c8.46917343 8.46917343 8.46917343 19.76140362 0 28.230576s-19.76140362 8.46917343-28.230576 0l-36.69974942-36.69974943-5.64611562-5.64611561c-2.82305781-5.64611562-2.82305781-11.29223019 0-14.115288 0-2.82305781 2.82305781-5.64611562 5.64611562-5.64611562l39.52280619-39.5228062c2.82305781-2.82305781 8.46917343-5.64611562 14.11528905-5.64611561s11.29223019 2.82305781 14.115288 5.64611561c8.46917343 8.46917343 8.46917343 19.76140362 0 28.230576l-5.64611562 5.64611562h84.69172905c14.115288 0 25.40751923 8.46917343 33.87669266 19.76140363 2.82305781 2.82305781 2.82305781 5.64611562 2.82305677 8.46917237v8.46917343c5.64611562 8.46917343 2.82305781 14.115288 0 19.76140363zM339.79348409 265.43157934c5.64611562-11.29223019 19.76140362-19.76140362 33.87669162-19.76140363h90.33784467c11.29223019 0 19.76140362 8.46917343 19.76140362 19.76140363s-8.46917343 19.76140362-19.76140362 19.76140361l-84.69173009-2.82305781h-5.64611458l50.81503743 87.51478686 5.64611563-14.115288c2.82305781-8.46917343 11.29223019-14.115288 19.76140257-14.11528905h5.64611561c11.29223019 2.82305781 16.93834581 14.115288 11.29223124 25.40751924l-19.76140362 53.63809524v2.8230578 2.82305782l-2.8230578 2.82305676-2.82305782 2.82305781h-2.82305781-2.8230578-2.82305782-2.82305675l-67.75338429-14.115288c-11.29223019-2.82305781-16.93834581-14.115288-14.115288-22.58446143 2.82305781-8.46917343 11.29223019-16.93834581 19.76140361-16.93834581h2.82305782l25.40751818 5.64611562-50.81503743-84.69172905c-11.29223019-8.46917343-11.29223019-22.58446143-5.64611457-33.87669161zM495.06165419 471.51478686c-2.82305781-11.29223019 2.82305781-22.58446143 14.115288-25.4075182l62.10726867-16.93834685h16.9383458l2.82305782 2.82305781 2.82305675 2.82305781v2.8230578 2.82305782l22.58446143 53.63809524c5.64611562 11.29223019 0 22.58446143-11.29223018 25.40751819-11.29223019 5.64611562-22.58446143 0-25.40751925-11.29223019l-8.46917237-16.93834581-28.23057705 50.81503743c-14.115288 25.40751923-53.63809523 25.40751923-67.75338324 0l-39.52280723-70.57644105c-5.64611562-8.46917343-2.82305781-22.58446143 8.46917343-28.230576 2.82305781-2.82305781 5.64611562-2.82305781 8.46917237-2.82305781 5.64611562 0 14.115288 2.82305781 16.93834581 11.29223018l39.52280724 67.75338325 25.40751924-42.345864-16.93834581 5.64611457c-8.46917343 5.64611562-19.76140362 0-22.58446143-11.29223019z"  horiz-adv-x="1024" />

    
    <glyph glyph-name="more" unicode="&#58901;" d="M512 825.52470703c-244.66904297 0-443.11728516-198.309375-443.11728516-443.11728515s198.44824219-443.11728516 443.11728516-443.11728516c244.80615234 0 443.11728516 198.44824219 443.11728516 443.11728515 0.13886719 244.66904297-198.309375 443.11728516-443.11728516 443.11728516v0zM512 0.45937500000002274c-210.90322266 0-381.94980469 171.04570312-381.94980469 381.94980469s171.04570312 381.94980469 381.94980469 381.94980468c210.90322266 0 381.94980469-171.04570312 381.94980469-381.94980468 0-210.90322266-171.04570312-381.94980469-381.94980469-381.94980469v0zM512 0.45937500000002274zM242.42011719 429.59941406h94.51757812v-94.51757812h-94.51757812v94.51757812zM242.42011719 429.59941406zM464.80976562 429.59941406h94.51757813v-94.51757812h-94.51757813v94.51757812zM464.80976562 429.59941406zM687.33740234 429.59941406h94.51757813v-94.51757812h-94.51757813v94.51757812zM687.33740234 429.59941406z"  horiz-adv-x="1024" />

    
    <glyph glyph-name="lingdang" unicode="&#58898;" d="M512 694.68918518c142.76168059 0 258.90724978-116.14556918 258.90724978-258.90724977v-181.23616711a77.74147318 77.74147318 0 0 1 15.53445925-46.60337778l62.13783705-82.8496403H175.42045392l62.13783705 82.8496403a77.74147318 77.74147318 0 0 1 15.53445925 46.60337778V435.78193541C253.09275022 578.5436159999999 369.23831941 694.68918518 512 694.68918518m0 77.6722963c-185.89529125 0-336.57954608-150.68425482-336.57954608-336.57954607v-181.23616711l-77.67229629-103.56265719v-51.78193541c0-28.47903289 23.30168889-51.78072178 51.78072178-51.78072178h724.94224118c28.47903289 0 51.78072178 23.30168889 51.78072178 51.78072178V150.98311110999998l-77.67229629 103.56265719V435.78193541C848.57954608 621.67722667 697.89529125 772.36148148 512 772.36148148z m0-802.61332385a77.6722963 77.6722963 0 0 0-77.6722963 77.67229629h-77.67229629c0-85.64705659 69.69874963-155.34459259 155.34459259-155.34459259s155.34459259 69.697536 155.34459259 155.34459259h-77.67229629a77.6722963 77.6722963 0 0 0-77.6722963-77.67229629zM512 694.68918518a51.78193541 51.78193541 0 1 0-0.02548622 103.53717097A51.78193541 51.78193541 0 0 0 512 694.68918518h118.47573808a128.59983645 128.59983645 0 0 1 10.97849362 51.78193541c0 71.3808403-58.07339141 129.45301808-129.4542317 129.45301808s-129.4542317-58.07217778-129.4542317-129.45301808c0-18.43503408 4.01347318-35.88460089 10.97849362-51.78193541H512z"  horiz-adv-x="1024" />

    
    <glyph glyph-name="fenqu" unicode="&#58915;" d="M462.649 401.89H121.943c-31.757 0-57.594 25.836-57.594 57.594V800.189c0 31.757 25.836 57.594 57.594 57.594h340.706c31.758 0 57.594-25.836 57.594-57.594v-340.706c0-31.757-25.836-57.593-57.594-57.593z m-319.333 78.966h297.96v297.96h-297.96v-297.96zM462.649-98.782H121.943c-31.757 0-57.594 25.837-57.594 57.595V299.517c0 31.757 25.836 57.594 57.594 57.594h340.706c31.758 0 57.594-25.837 57.594-57.594v-340.704c0-31.758-25.836-57.595-57.594-57.595z m-319.333 78.967h297.96V278.144h-297.96v-297.959zM943.711 719.223H582.254c-20.877 0-37.801 16.924-37.801 37.801s16.924 37.801 37.801 37.801h361.457c20.877 0 37.801-16.924 37.801-37.801s-16.924-37.801-37.801-37.801zM943.711 586.695H582.254c-20.877 0-37.801 16.924-37.801 37.801s16.924 37.801 37.801 37.801h361.457c20.877 0 37.801-16.924 37.801-37.801s-16.924-37.801-37.801-37.801zM943.711 454.166H582.254c-20.877 0-37.801 16.924-37.801 37.801s16.924 37.801 37.801 37.801h361.457c20.877 0 37.801-16.924 37.801-37.801s-16.924-37.801-37.801-37.801zM943.711 211.217H582.254c-20.877 0-37.801 16.924-37.801 37.801s16.924 37.801 37.801 37.801h361.457c20.877 0 37.801-16.924 37.801-37.801s-16.924-37.801-37.801-37.801zM943.711 78.687H582.254c-20.877 0-37.801 16.924-37.801 37.801s16.924 37.801 37.801 37.801h361.457c20.877 0 37.801-16.924 37.801-37.801s-16.924-37.801-37.801-37.801zM943.711-53.842H582.254c-20.877 0-37.801 16.924-37.801 37.801s16.924 37.801 37.801 37.801h361.457c20.877 0 37.801-16.924 37.801-37.801s-16.924-37.801-37.801-37.801z"  horiz-adv-x="1024" />

    
    <glyph glyph-name="guanwang" unicode="&#58902;" d="M568.92635416 547.5684375000001h-135.609375v135.609375h67.8046875V864H49.06666666v-180.8221875h56.50875c0-45.211875 2.26125-189.8690625 0-278.0053125-2.2621875-115.27875 106.2309375-160.490625 162.7396875-169.5253125l300.61125 2.2621875v-74.59125h158.229375V615.3731250000001H568.91322916v-67.8046875z m870.2071875-452.055c0 45.19875-2.2490625 189.856875 0 275.743125 2.2621875 115.2796875-106.2309375 160.4784375-162.740625 169.52625H975.79666666v74.5903125H817.55322916v-452.055h158.2425v67.805625h135.6225V95.51250000000005h-67.81875v-180.8221875h452.0428125V95.51343750000001h-56.50875z"  horiz-adv-x="1543" />

    
    <glyph glyph-name="famen" unicode="&#58903;" d="M502.94395833 599.025V752.9484375H270.96427083c-31.5871875 0-57.3215625 24.9290625-57.3215625 55.5253125C213.64270833 839.071875 239.39302083 864 270.96427083 864h562.0959375c31.57125 0 57.305625-24.9290625 57.305625-55.5253125 0-30.9215625-25.734375-55.5253125-57.290625-55.5253125H601.43677083V599.025h18.178125c21.615 0 39.1125-16.9546875 39.1125-37.9040625v-90.5653125l-213.105 0.34125v90.2240625c0 20.949375 17.4965625 37.9040625 39.1275 37.9040625h18.1940625zM121.20427083 8.731874999999945v-63.84c0-9.305625-7.8346875-16.9546875-17.698125-16.9546875H58.23145833C48.36895833-72.06187499999999 40.53333333-64.41281249999997 40.53333333-54.76687500000003V353.52750000000003c0 9.6309375 7.8346875 17.28 17.698125 17.28H103.50520833c9.8625 0 17.698125-7.6490625 17.698125-17.28v-83.1328125h150.549375c6.271875 85.5178125 79.246875 152.949375 168.3871875 152.949375h207.9796875c89.1403125 0 162.11625-67.4315625 168.403125-152.949375h150.87375v83.7984375c0 9.290625 7.494375 16.614375 17.0325 16.614375h46.2965625c9.523125 0 17.0015625-7.3078125 17.0015625-16.614375v-409.625625c0.34125-9.320625-7.4784375-16.629375-17.0165625-16.629375h-46.2965625c-9.523125 0-17.0175 7.30875-17.0175 16.629375v64.1653125h-162.0375C780.75520833-52.583437499999945 719.65458333-96 648.11958333-96H440.14083333c-71.52 0-132.6346875 43.4015625-157.2384375 104.7328125H121.20427083z"  horiz-adv-x="1090" />

    
    <glyph glyph-name="ergong" unicode="&#58904;" d="M40.8125-75.75V323.25h75.28125v-323.71875h791.8125V323.25h75.28125v-399H40.8125z m601.3125 97.40625c-23.8125 0-46.5 7.59375-65.53125 21.9375l-36.65625 27.46875c-5.8125 4.40625-12.75 6.75-20.0625 6.75-7.3125 0-14.25-2.34375-20.0625-6.65625l-36.5625-27.65625c-19.03125-14.34375-41.71875-21.9375-65.53125-21.9375-23.8125 0-46.5 7.59375-65.53125 21.9375l-36.65625 27.46875c-5.8125 4.40625-12.75 6.75-20.0625 6.75-7.3125 0-14.15625-2.34375-19.96875-6.65625-0.65625-0.5625-47.625-36.75-47.625-36.75-6.5625-4.96875-14.4375-7.59375-22.6875-7.59375-12 0-23.0625 5.53125-30.28125 15.09375-6.09375 8.0625-8.71875 18.09375-7.3125 28.125 1.40625 10.03125 6.65625 18.9375 14.71875 25.03125l47.71875 36c19.03125 14.34375 41.71875 21.9375 65.53125 21.9375 23.8125 0 46.5-7.59375 65.53125-21.9375l36.65625-27.46875c5.8125-4.40625 12.75-6.65625 20.0625-6.65625s14.25 2.34375 20.0625 6.65625l36.65625 27.46875c19.03125 14.34375 41.71875 21.9375 65.53125 21.9375 23.8125 0 46.5-7.59375 65.53125-21.9375l36.65625-27.46875c5.8125-4.40625 12.75-6.65625 20.0625-6.65625s14.25 2.34375 20.0625 6.65625l36.65625 27.46875c19.03125 14.34375 41.71875 21.9375 65.53125 21.9375 23.8125 0 46.5-7.59375 65.53125-21.9375l36.65625-27.46875c8.0625-6.09375 13.21875-14.90625 14.53125-24.9375 1.3125-9.9375-1.21875-19.875-7.3125-27.84375-7.21875-9.46875-18.09375-14.90625-30-14.90625-8.25 0-16.125 2.625-22.6875 7.6875l-36.65625 27.46875c-5.8125 4.40625-12.75 6.75-20.0625 6.75-7.3125 0-14.25-2.34375-20.0625-6.65625l-36.65625-27.46875c-19.21875-14.4375-41.8125-21.9375-65.71875-21.9375z m0 139.59375c-23.8125 0-46.5 7.59375-65.53125 21.9375l-36.65625 27.46875c-5.8125 4.40625-12.75 6.65625-20.0625 6.65625-7.3125 0-14.25-2.34375-20.0625-6.65625l-36.5625-27.46875c-19.03125-14.34375-41.71875-21.9375-65.53125-21.9375-23.8125 0-46.5 7.59375-65.53125 21.9375l-36.65625 27.46875c-5.8125 4.40625-12.75 6.65625-20.0625 6.65625-7.3125 0-14.25-2.34375-20.0625-6.65625l-47.4375-35.90625c-6.65625-5.0625-14.53125-7.78125-22.875-7.78125-11.90625 0-22.78125 5.4375-30 14.8125-6.09375 7.96875-8.71875 17.90625-7.40625 27.9375 1.3125 10.03125 6.46875 18.84375 14.4375 24.9375l47.8125 35.90625c19.03125 14.34375 41.71875 21.9375 65.53125 21.9375 23.8125 0 46.5-7.59375 65.53125-21.9375l36.65625-27.46875c5.8125-4.40625 12.75-6.65625 20.0625-6.65625s14.25 2.34375 20.0625 6.65625l36.65625 27.46875c19.03125 14.34375 41.71875 21.9375 65.53125 21.9375 23.8125 0 46.5-7.59375 65.53125-21.9375l36.65625-27.46875c5.8125-4.40625 12.75-6.65625 20.0625-6.65625s14.25 2.34375 20.0625 6.65625l36.65625 27.46875c19.03125 14.34375 41.71875 21.9375 65.53125 21.9375 23.8125 0 46.5-7.59375 65.53125-21.9375l36.65625-27.46875c8.0625-6.09375 13.21875-14.90625 14.53125-24.9375 1.3125-9.9375-1.21875-19.875-7.3125-27.84375-7.21875-9.46875-18.09375-14.90625-30-14.90625-8.25 0-16.125 2.625-22.6875 7.59375L784.53125 210.5625c-5.8125 4.40625-12.75 6.65625-20.0625 6.65625-7.3125 0-14.25-2.34375-20.0625-6.65625l-36.65625-27.46875c-19.125-14.25-41.71875-21.84375-65.625-21.84375z m28.03125 422.625H189.40625v-239.71875l-19.5 5.34375c-4.875 1.3125-10.6875 2.53125-18.28125 3.84375-7.125 1.21875-15.28125 2.34375-23.71875 3.28125l-13.78125 1.5v300.9375h386.71875v177.1875h409.6875v-478.125l-13.6875-1.5c-8.53125-0.9375-16.59375-2.0625-23.71875-3.1875-7.6875-1.21875-13.78125-2.4375-18.65625-3.65625l-19.125-4.6875V760.96875H576.125v-101.8125H745.4375v-331.6875l-13.40625-1.78125c-13.875-1.875-27.375-5.71875-40.125-11.4375l-21.75-9.84375V583.875zM477.875 334.875v71.8125h101.25v-71.8125h-101.25z m-203.4375 0v71.8125h101.15625v-71.8125H274.4375z m203.4375 126.1875v71.8125h101.25v-71.8125h-101.25z m-203.4375 0v71.8125h101.15625v-71.8125H274.4375z"  horiz-adv-x="1024" />

    
    <glyph glyph-name="gongcheng" unicode="&#58905;" d="M75.896 668.31v-414.418c0-13.252 10.843-24.094 24.095-24.094h414.418c7.229 0 14.457 3.614 19.276 9.637 3.614 6.024 4.819 14.457 2.41 21.685l-7.23 24.094 212.03 345.75 55.416-150.588c2.409-7.228 8.433-12.047 14.456-14.456l130.108-67.464c8.433-2.409 13.252-4.818 18.07-2.409 3.615 2.41 9.639 7.228 6.024 15.661L827.633 791.191l-16.866 48.188c-3.614 9.637-12.047 15.661-22.89 15.661l-56.62-1.205c-8.433-1.204-15.662-4.819-20.48-12.047l-237.328-386.71-72.282 221.666c-3.614 9.637-12.047 16.865-22.89 16.865H101.196c-13.251 0-24.094-12.047-25.299-25.298z m166.25-24.094h118.061l80.715-244.555H242.146V644.216zM715.595 314.12699999999995c10.843-89.148 92.763-152.998 183.116-142.155h1.204c7.229 1.204 13.252 7.228 16.866 14.456l67.464 163.84c3.614 8.433 0 19.276-6.024 25.3-6.023 4.818-16.866 7.227-25.299 2.408-15.66-7.228-44.574-49.392-60.235-50.597-53.007-6.024-102.4 20.48-124.085 67.463-4.818 7.229-13.251 12.047-21.684 12.047s-16.866-4.818-20.48-13.251c-10.843-25.3-14.457-53.007-10.843-79.51zM19.275 44.273000000000025c0-53.007 49.393-97.581 108.424-97.581H671.02c60.235 0 108.424 44.574 108.424 97.58 0 54.213-48.189 98.787-108.424 98.787H127.7c-60.235 0-108.424-44.574-108.424-98.786z m610.786 0c0 13.252 10.843 24.094 24.094 24.094s24.094-10.842 24.094-24.094-10.842-24.094-24.094-24.094-24.094 10.842-24.094 24.094z m-169.863 0c0 13.252 10.842 24.094 24.094 24.094s24.094-10.842 24.094-24.094-10.842-24.094-24.094-24.094-24.094 10.842-24.094 24.094z m-168.66 0c0 13.252 10.843 24.094 24.095 24.094s24.094-10.842 24.094-24.094-10.842-24.094-24.094-24.094-24.094 10.842-24.094 24.094z m-169.863 0c0 13.252 10.843 24.094 24.094 24.094s24.095-10.842 24.095-24.094-10.843-24.094-24.095-24.094-24.094 10.842-24.094 24.094z"  horiz-adv-x="1024" />

    
    <glyph glyph-name="shuizhi" unicode="&#58906;" d="M702.71566666 400.56666667l220.595-307.127c12.917-18.13 20.447-42.3 20.447-65.46 0-57.397-35.506-107.75-138.816-107.75h-567.1c-103.3 0-139.892 50.353-139.892 107.75 0 23.16 7.54 47.33 20.456 66.462l108.67 150.042L334.69066666 400.56666667c27.976 42.29 44.12 91.643 44.12 144.002v190.32c0 14.103-3.226 27.195-8.605 39.275h-29.052c-17.22 0-32.289 13.092-32.289 30.211v5.038c0 16.108 13.993 30.211 32.289 30.211h360.487c17.22 0 32.28-13.101 32.28-30.21v-6.05c0-16.108-13.984-30.21-32.28-30.21h-32.288c-4.303-11.07-8.605-24.162-8.605-38.265v-191.323c0-51.356 13.983-101.71 41.969-143z m-59.18-34.238c-35.516 52.368-52.726 114.803-52.726 178.24V773.15266667H449.83166666v-228.584c0-65.45-19.362-126.884-53.802-178.24l-219.519-309.15c-5.378-8.053-8.605-19.123-8.605-29.199 0-13.092 7.52-22.148 12.908-27.186 9.68-9.065 26.9-16.117 55.953-16.117h568.175c27.976 0 44.12 7.052 53.81 15.115 6.455 5.029 15.07 15.096 15.07 28.188 0 10.076-3.237 21.146-8.615 29.2L643.53566666 366.32866666999996z m146.337-350.43H251.83466666c-16.144 0-30.128 13.083-30.128 28.189 0 6.05 2.143 12.09 5.37 16.116l178.634 252.755H633.84666666l180.777-252.755v1.002c3.227-4.026 5.396-11.069 5.396-16.107 0-15.105-12.926-29.2-30.146-29.2z"  horiz-adv-x="1024" />

    
    <glyph glyph-name="shuiyuan" unicode="&#58907;" d="M763.94602812 356.87906250000003l-15.41249999 2.9484375c-59.5078125 15.94875-144.0796875 78.271875-155.338125 103.2009375a147.43125 147.43125 0 0 0 14.74312499 21.0421875c16.21875 20.6409375 38.465625 49.0546875 29.218125 85.2421875s-46.775625 56.8275-74.116875 68.6221875c-55.7559375 23.990625-137.3784375-1.60875-174.23625-15.4125a192.33 192.33 0 0 0-22.9190625 20.773125l51.065625 71.3034375a48.11625 48.11625 0 0 0 68.085 10.32l205.7325-155.874375a40.2215625 40.2215625 0 0 1 48.65250001 64.065l-92.2125 70.90125 60.046875 72.77625 1.7409375 2.145a12.3309375 12.3309375 0 0 0 8.175 4.959375 11.660625 11.660625 0 0 0 8.445-1.7428125l240.17812499-193.134375a40.2346875 40.2346875 0 0 1 50.39250001 62.7253125L774.93634063 845.1421875A92.746875 92.746875 0 0 1 644.39509062 826.5121875l-61.51875-74.52-48.78562499 36.991875a128.53125 128.53125 0 0 1-182.14406251-27.609375l-41.28-57.631875a115.8 115.8 0 0 1-165.256875-22.3828125L39.79477812 537.4143750000001a40.2215625 40.2215625 0 1 1 64.87031251-47.58l105.61312499 143.945625a35.383125 35.383125 0 0 0 51.8690625 5.7628125c20.371875-25.33125 67.0134375-80.4159375 99.5821875-93.819375a99.984375 99.984375 0 0 1 18.09375-5.49375h1.876875a40.2084375 40.2084375 0 0 1 8.578125-1.0734375h0.9375a142.873125 142.873125 0 0 0 30.0225-2.6803125l-4.959375-6.70125c-16.0828125-23.8575-38.1975-56.42625-38.1975-96.901875a187.63875 187.63875 0 0 1 13.4025-67.9528125C184.81384063 333.826875 49.84759062 246.97687499999995 49.84759062 140.42531250000002c0-134.698125 216.99-236.4253125 504.88125-236.4253125s504.8821875 101.7271875 504.8821875 237.09375c0 97.305-110.1703125 178.258125-295.6640625 215.784375zM555.39915313-15.450000000000045c-242.8575 0-424.4653125 82.2928125-424.4653125 156.0084375 0 58.434375 125.71875 132.9553125 328.90312499 151.584375a40.2084375 40.2084375 0 0 1 28.68281251 63.9309375 135.1003125 135.1003125 0 0 0-29.48625001 76.798125c0 15.680625 13.4034375 34.846875 24.39375 51.868125 14.475 21.3103125 35.25 52.003125 22.7840625 82.8290625a61.250625 61.250625 0 0 0 25.063125-3.350625 117.40875 117.40875 0 0 0 25.59937501-13.4025c-3.0825-4.8253125-8.3090625-11.5265625-12.061875-16.485-13.4034375-17.9596875-31.4971875-40.209375-32.4346875-69.2925-2.278125-78.271875 149.9765625-165.3890625 217.52625-182.8134375h2.81531249l15.2784375-2.9484375c159.225-32.300625 231.8671875-93.819375 231.86718751-137.6465625-0.6703125-74.7871875-181.606875-157.08-424.46437501-157.08zM825.33071562 407.8096875V454.9875h39.80625001l-62.9934375 149.574375-55.888125-149.574375h39.939375v-47.1778125h39.1359375z m159.225-71.034375V384.890625h40.74375001l-64.46625001 152.791875-56.9625-152.791875h40.7446875v-48.1153125h39.9403125z m-775.21499999 0v48.249375h40.74375l-64.4671875 152.6578125-56.9625-152.6578125h40.745625v-48.249375h39.9403125z m545.2246875-77.8696875a33.6 33.6 0 1 1-5.0934375-67.014375c45.166875-3.4846875 74.653125-28.2796875 76.7971875-36.856875 0-20.506875-93.8184375-70.7671875-269.128125-70.7671875a750.5540625 750.5540625 0 0 0-147.429375 13.4015625 33.50625 33.50625 0 0 1-13.4025-65.6728125 819.178125 819.178125 0 0 1 160.1625-15.01125c161.90625 0 336.140625 43.156875 336.140625 137.780625 0.6703125 50.930625-62.859375 98.375625-138.046875 104.139375z"  horiz-adv-x="1096" />

    
    <glyph glyph-name="liuliang" unicode="&#58908;" d="M946.93835469-87.72987375000002c20.26438594 0 36.79151906 16.52806969 36.79151906 36.79151906V253.58690344000001c0 20.26344938-16.52713312 36.79151906-36.79151906 36.79151906s-36.79151906-16.52806969-36.79151907-36.79151906v-304.52525813c0-20.37684094 16.41467813-36.79151906 36.79151907-36.79151906zM730.3753775 189.28608655999994h215.657715v-194.7157875H730.3753775zM80.11667188-76.74864562000005c-20.26344938 0-36.79151906 16.52806969-36.79151907 36.79151906V264.56813156c0 20.26344938 16.52806969 36.79151906 36.79151906 36.79151907s36.79245656-16.52806969 36.79245657-36.79151907v-304.52525812c0-20.37684094-16.41467813-36.79151906-36.79151907-36.79151906zM83.2879025 200.26637813000002h212.26157438v-194.71485094H83.2879025z m571.01262188-244.18566844H371.62433c-12.45251437 0-22.64093438 10.18842094-22.64093438 22.64093531V204.90795656c0 12.45251437 10.18842094 22.64093438 22.64093438 22.64093532h282.67619438c12.45251437 0 22.64093438-10.18842094 22.64093437-22.64093532v-226.18631156c0-12.45251437-10.18842094-22.64093438-22.64093438-22.64093531zM514.37748594 269.88818905999995c-79.35760125 0-153.96023063 30.906375-209.99748188 87.05608125-56.15064281 56.15064281-87.05608125 130.75327219-87.05608125 209.99748188s30.90543844 153.96023063 87.05608125 209.99748093C360.41725437 833.08987594 435.01988469 863.99531438 514.37748594 863.99531438s153.96023063-30.906375 209.99748093-87.05608126c56.15064281-56.14970531 87.05608125-130.75327219 87.05608126-209.99748093 0-79.35760125-30.906375-153.96023063-87.05608125-209.99748188-56.03725031-56.15064281-130.63988063-87.05608125-209.99748094-87.05608125z m0 509.20174594c-116.9419275 0-212.14912031-95.20625531-212.14912032-212.14818281S397.436495 354.79450594 514.37748594 354.79450594c116.9419275 0 212.14818281 95.20625531 212.14818281 212.14818281S631.31941344 779.089935 514.37748594 779.089935zM406.83117125 415.58579063c-24.56578875 0-44.60339156 20.03666531-44.60339156 44.60245406s20.03760188 44.60339156 44.60339156 44.60339156 44.60339156-20.03760188 44.60339063-44.60339156-20.03760188-44.60339156-44.60339063-44.60339063z m0 66.56397374c-12.11327531 0-21.96151969-9.84918187-21.96151969-21.96151968s9.84918187-21.96151969 21.96151969-21.96151875 21.96245625 9.84918187 21.96245625 21.96151875-9.84918187 21.96245625-21.96245625 21.96245625z m109.24438406-66.56397374c-2.37748594 0-4.75497094 0.22491-7.13151937 0.56508656-24.22654969 3.96216375-40.86801188 26.94327469-36.90584813 51.16982437 1.92485438 11.77309875 8.26450312 22.07491125 17.99935594 29.09397656 9.62333437 7.01906438 21.50982563 9.73578938 33.16953188 7.810935 24.22654969-3.96216375 40.86801188-26.94233719 36.90584812-51.16888781-3.50953219-21.84906469-22.52847937-37.47187125-44.03736844-37.47187125z m-21.62227968 48.11198624c-1.92485438-11.99988281 6.22625719-23.20695844 18.1127475-25.24520437 11.99988281-1.92485438 23.20695844 6.22625719 25.24520437 18.11274844 1.92391687 11.99988281-6.22625719 23.207895-18.1127475 25.24614093-5.77362563 0.90526219-11.54725125-0.45356812-16.41561469-3.84970781-4.75403437-3.39614063-7.9243275-8.49035062-8.82958968-14.26397719z m130.86666468-48.11198625c-24.56578875 0-44.60339156 20.03666531-44.60339156 44.60245407s20.03760188 44.60339156 44.60339156 44.60339156 44.60245406-20.03760188 44.60245407-44.60339156-20.03760188-44.60339156-44.60245407-44.60339063z m0 66.56397376c-12.11327531 0-21.96245625-9.84918187-21.96245625-21.96151969s9.84918187-21.96151969 21.96245625-21.96151875 21.96151969 9.84918187 21.96151969 21.96151875-9.84918187 21.96245625-21.96151969 21.96245625z m39.62163563 64.52853843H364.83204969V691.46876719h300.10952625v-144.79046438z m-266.14812375 33.96140157h232.18672219v76.86672375H398.79345219v-76.86672376z m61.58409187-261.50654438h104.26356657V216.56860030999997H460.37754406V319.13316"  horiz-adv-x="1024" />

    
    <glyph glyph-name="dakehu" unicode="&#58909;" d="M597.95 408.43200001c-30.808-12.68-59.05-29.595-84.72-50.737-25.678-21.146-47.875-45.303-66.608-72.488-18.718-27.182-33.22-56.934-43.49-89.253-10.273-32.318-15.404-66.298-15.404-101.939 0-31.414 4.075-61.464 12.232-90.157 8.152-28.69 19.48-55.73 33.98-81.095h-24.465c-17.514 0-37.9 0.596-61.162 1.806-23.257 1.21-47.268 2.87-72.03 4.988a2915.334 2915.334 0 0 0-73.853 7.24c-24.47 2.721-46.667 5.589-66.596 8.61-19.94 3.02-36.853 6.04-50.747 9.066-13.894 3.01-22.652 6.042-26.273 9.057-6.647 4.837-11.627 19.789-14.955 44.848-3.318 25.078-1.964 57.243 4.077 96.507 2.414 15.103 7.403 27.492 14.949 37.15 7.555 9.668 16.768 17.97 27.641 24.916 10.874 6.95 22.955 12.539 36.247 16.764a1304.991 1304.991 0 0 0 40.773 12.241 701.673 701.673 0 0 1 40.319 12.688c12.99 4.53 24.918 10.114 35.797 16.758 12.682 7.851 22.506 15.56 29.445 23.105 6.944 7.551 11.939 14.95 14.954 22.208 3.02 7.238 4.525 14.79 4.525 22.647s-0.292 16.613-0.903 26.279c-1.213 13.893-6.036 24.913-14.495 33.07-8.46 8.15-17.823 16.464-28.092 24.919-4.833 4.228-9.212 10.12-13.136 17.677a224.31 224.31 0 0 0-10.418 23.1 1507.125 1507.125 0 0 0-9.061 28.092c-4.233 1.206-8.46 3.323-12.688 6.343-3.625 3.015-7.554 7.243-11.782 12.682-4.227 5.44-7.848 13.293-10.869 23.565-3.02 10.269-4.237 19.627-3.632 28.081 0.612 8.46 2.414 16.016 5.44 22.656 2.424 6.647 6.34 12.99 11.778 19.026 0 22.96 1.207 45.914 3.62 68.87 2.421 19.327 6.653 40.165 12.698 62.517 6.036 22.359 15.4 42.288 28.085 59.809 12.087 16.914 25.067 30.656 38.96 41.227 13.9 10.571 28.393 18.878 43.494 24.914 15.103 6.046 30.05 10.122 44.85 12.237 14.809 2.117 29.151 3.172 43.04 3.172 17.526 0 34.883-1.959 52.101-5.888 17.218-3.93 33.38-9.212 48.48-15.86C525.162 803.21000001 538.6 795.65500001 550.38 787.2000000099999c11.777-8.46 20.994-16.914 27.63-25.37 15.713-19.328 27.182-40.625 34.435-63.883 7.252-23.263 12.394-45.455 15.404-66.6 3.026-24.163 4.536-48.633 4.536-73.395 4.23-3.02 7.546-6.95 9.965-11.782 2.419-4.23 4.38-9.663 5.89-16.31 1.515-6.645 1.667-14.802 0.458-24.463-1.213-13.294-3.778-23.712-7.707-31.263-3.924-7.55-8.303-13.445-13.142-17.672-5.429-4.829-11.172-8.157-17.212-9.964a280.321 280.321 0 0 1-3.623-11.774l-4.536-12.696c-1.205-4.226-2.72-8.755-4.528-13.596z m99.833-10.986c39.267 0 74.974-7.549 109.711-22.65 34.726-15.106 64.94-35.641 90.606-61.616 25.68-25.975 46.066-56.33 61.167-91.061 15.096-34.743 22.654-71.737 22.654-111.01 0-39.258-7.54-76.258-22.654-110.995-3.597-8.27-11.864-38.35-36.475-50.944-205.165-18.227-242.218-22.297-443.044-25.859-25.67 25.983-31.84 42.07-46.94 76.804-15.096 34.735-22.653 71.734-22.653 110.995 0 39.273 7.557 76.268 22.652 111.01 15.102 34.73 35.495 65.086 61.167 91.061 25.673 25.975 55.88 46.51 90.606 61.616 34.737 15.101 72.04 22.748 111.91 22.748l1.293-0.099z m165.792-230.154c3.633 12.08 1.967 23.106-4.98 33.081-6.945 9.965-16.152 17.06-27.632 21.288-11.485 4.232-22.96 4.53-34.446 0.904-11.47-3.627-19.923-12.985-25.362-28.086a1928.67 1928.67 0 0 0-8.61-28.546 1085.8 1085.8 0 0 1-8.154-27.63c-2.718-9.673-6.04-20.092-9.97-31.272-3.924-11.17-8.91-24.007-14.95-38.508-6.04-15.703-14.651-23.105-25.824-22.19-11.178 0.9-19.79 7.388-25.825 19.476-6.652 12.076-12.844 25.067-18.575 38.954a13969.733 13969.733 0 0 0-16.768 40.774c-5.44 13.298-10.272 25.378-14.5 36.253-4.223 10.873-7.848 19.637-10.879 26.282-4.823 9.661-12.823 15.1-24.005 16.302-11.172 1.212-22.056-0.455-32.616-4.98-10.571-4.531-19.333-11.633-26.278-21.294-6.944-9.672-8.008-20.242-3.171-31.717a4966.289 4966.289 0 0 1 14.495-40.774 2284.279 2284.279 0 0 1 17.216-46.212 2330.117 2330.117 0 0 0 17.217-46.214c5.44-15.104 10.266-28.089 14.495-38.962 9.06-22.955 22.809-40.17 41.228-51.644 10.734-8.343 32.528-13.69 33.192-13.67 11.074 0.339 71.054 4.573 71.054 4.573s9.075 3.17 11.738 4.567c18.43 9.662 31.867 24.162 40.32 43.49a3051.186 3051.186 0 0 1 20.385 49.383 3983.34 3983.34 0 0 1 19.945 50.289c6.337 16.313 12.237 32.026 17.666 47.12 5.442 15.109 9.967 28.092 13.594 38.963z"  horiz-adv-x="1024" />

    
    <glyph glyph-name="yali" unicode="&#58910;" d="M544.49740438 863.99980313a511.9995825 511.9995825 0 0 1-248.32026188-959.99980313h496.00021125A511.9995825 511.9995825 0 0 1 544.49740438 863.99980313z m289.91993999-801.91952344c-10.88062312-10.88062312-21.75937031-20.48062125-33.28030499-30.08061844H608.49676625l-228.47995313 191.99996063H324.97807438l155.51996812-191.99996063h-191.99996062c-11.51999719 9.59999812-22.39968281 19.19999625-33.28030594 30.08061844a407.68022906 407.68022906 0 0 0-120.95997469 289.91994094h90.23998125v63.99936187h-85.11935719a392.95960687 392.95960687 0 0 0 42.87936563 128.00059875h106.24029093v63.99936188H224.496845a368.63992406 368.63992406 0 0 0 30.08061844 33.92061843A411.52022812 411.52022812 0 0 0 416.49680562 741.75920344V671.9998425h64.00029938v85.12029469a402.559605 402.559605 0 0 0 127.99966125 0V671.9998425h64.00029937v69.75936094a411.52022812 411.52022812 0 0 0 161.92027876-99.83904188 368.63992406 368.63992406 0 0 0 30.07968187-33.92061843H800.49672688v-63.99936188h106.24029093a392.95960687 392.95960687 0 0 0 42.88030313-128.00059875h-85.12029469v-63.99936187h90.23998125a407.68022906 407.68022906 0 0 0-120.31966312-289.91994094zM552.8167775 568.31986406H436.33711437v-312.95993625h53.75998876V368.63990437999996h58.87967531c71.681235 0 107.5199775 34.5599925 107.5199775 103.04060437a93.44060625 93.44060625 0 0 1-103.67997844 96.63935531z m-8.31937313-152.32028156h-54.40030125v105.59997844h54.40030125c37.1193675 0 56.31936375-17.91937125 58.23936282-51.19967719s-20.47968375-54.40030125-58.23936281-54.40030125z"  horiz-adv-x="1092" />

    
    <glyph glyph-name="shuichang" unicode="&#58911;" d="M32-96V256.97249999999997c12.4171875 0 18.35625 6 32.034375 22.49625a90.943125 90.943125 0 0 0 156.27 0c13.7371875-16.6771875 19.67625-22.49625 32.034375-22.49625s17.99625 6 31.9734375 22.49625a90.643125 90.643125 0 0 0 155.97 0c13.618125-16.6771875 19.49625-22.43625 31.794375-22.43625s17.99625 6 31.9134375 22.49625a90.643125 90.643125 0 0 0 155.9709375 0c13.6171875-16.6771875 19.49625-22.43625 31.7934375-22.43625V-96z m1199.7721875 0H751.863125V698.4290625H647.7828125a76.845 76.845 0 0 1-79.185-74.0259375v-120.8775H391.9315625V624.403125A248.473125 248.473125 0 0 0 648.0228125 863.8171875h583.749375V-96zM871.840625 143.95406249999996h239.9540625V203.94375000000002H871.840625z m0 239.955h239.9540625V443.896875H871.840625z m0 239.9540625h239.9540625v59.98875H871.840625zM613.889375 402.5653125c-13.6171875 16.55625-19.49625 22.3753125-31.734375 22.3753125s-17.99625-5.998125-31.9734375-22.3753125a91.003125 91.003125 0 0 0-155.97 0c-13.678125 16.55625-19.55625 22.3753125-31.794375 22.3753125s-17.99625-5.998125-32.034375-22.3753125a91.243125 91.243125 0 0 0-155.97 0c-13.7371875 16.55625-19.67625 22.3753125-32.0934375 22.3753125s-17.9971875-5.998125-32.034375-22.3753125A96.70125 96.70125 0 0 0 32.3 358.53375000000005v60.40875c12.4171875 0 18.35625 5.998125 32.034375 22.3153125a91.4221875 91.4221875 0 0 0 156.27 0c13.7371875-16.55625 19.67625-22.3153125 32.034375-22.3153125s17.99625 5.998125 31.9734375 22.3153125a91.123125 91.123125 0 0 0 155.97 0c13.6171875-16.55625 19.49625-22.25625 31.794375-22.25625s17.99625 6 31.9134375 22.31625a91.063125 91.063125 0 0 0 155.9709375 0c13.6171875-16.55625 19.49625-22.25625 31.7934375-22.25625v-60.4078125a96.64125 96.64125 0 0 0-78.165 43.9115625z"  horiz-adv-x="1279" />

    
    <glyph glyph-name="close" unicode="&#58950;" d="M557.312 382.752l265.28 263.904c12.544 12.48 12.608 32.704 0.128 45.248-12.512 12.576-32.704 12.608-45.248 0.128l-265.344-263.936-263.04 263.84C236.64 704.416 216.384 704.48 203.84 692 191.328 679.52 191.296 659.264 203.776 646.72l262.976-263.776L201.6 119.2c-12.544-12.48-12.608-32.704-0.128-45.248 6.24-6.272 14.464-9.44 22.688-9.44 8.16 0 16.32 3.104 22.56 9.312l265.216 263.808 265.44-266.24c6.24-6.272 14.432-9.408 22.656-9.408 8.192 0 16.352 3.136 22.592 9.344 12.512 12.48 12.544 32.704 0.064 45.248L557.312 382.752z"  horiz-adv-x="1024" />

    
    <glyph glyph-name="tianjia" unicode="&#58899;" d="M800-96.512 224-96.512C153.312-96.512 96-39.2 96 31.488L96 735.488C96 806.176 153.312 863.488 224 863.488L635.616 863.488C646.688 865.568 658.448 862.96 667.024 854.4L916.704 604.72C922.256 599.184 925.456 592.24 926.544 585.04 927.488 582.032 928 578.816 928 575.488L928 31.488C928-39.2 870.688-96.512 800-96.512ZM672 749.552 672 607.488 814.064 607.488 672 749.552ZM864 543.488 640 543.488C622.32 543.488 608 557.808 608 575.488L608 799.488 224 799.488C188.656 799.488 160 770.832 160 735.488L160 31.488C160-3.856 188.656-32.512 224-32.512L800-32.512C835.344-32.512 864-3.856 864 31.488L864 543.488ZM704 287.488 544 287.488 544 127.488C544 109.808 529.664 95.488 512 95.488 494.32 95.488 480 109.808 480 127.488L480 287.488 320 287.488C302.32 287.488 288 301.808 288 319.488 288 337.168 302.32 351.488 320 351.488L480 351.488 480 511.488C480 529.168 494.32 543.488 512 543.488 529.664 543.488 544 529.168 544 511.488L544 351.488 704 351.488C721.68 351.488 736 337.168 736 319.488 736 301.808 721.68 287.488 704 287.488Z"  horiz-adv-x="1024" />

    
    <glyph glyph-name="message" unicode="&#59493;" d="M304 432m-48 0a48 48 0 1 1 96 0 48 48 0 1 1-96 0ZM752 432m-48 0a48 48 0 1 1 96 0 48 48 0 1 1-96 0ZM528 432m-48 0a48 48 0 1 1 96 0 48 48 0 1 1-96 0ZM512 832C265.6 832 64 652.8 64 435.2c0-115.2 57.6-224 156.8-300.8V-32c0-12.8 6.4-22.4 16-28.8 3.2-3.2 9.6-3.2 16-3.2s12.8 0 16 3.2l172.8 105.6c25.6-3.2 48-6.4 70.4-6.4 246.4 0 448 179.2 448 396.8S758.4 832 512 832z m0-729.6c-22.4 0-48 3.2-73.6 6.4-6.4 0-16 0-22.4-3.2l-134.4-80v128c0 9.6-6.4 19.2-12.8 25.6-89.6 64-140.8 156.8-140.8 259.2C128 617.6 300.8 768 512 768s384-150.4 384-332.8-172.8-332.8-384-332.8z"  horiz-adv-x="1024" />

    
    <glyph glyph-name="dblArrRt" unicode="&#58912;" d="M512 1127.48990601M525.918049 815.76654M267.717769 616.103938L511.488307 372.3334 267.717769 128.562862c-8.801119-8.801119-8.801119-23.128523 0-31.827304l0 0c8.801119-8.801119 23.128523-8.801119 31.827304 0L557.131321 354.32180700000004c4.912253 4.912253 7.061363 11.564261 6.447332 18.011593 0.614032 6.447332-1.535079 13.09934-6.447332 18.011593l-257.586248 257.586248c-8.801119 8.801119-23.128523 8.801119-31.827304 0C258.91665 639.2324610000001 258.91665 624.9050569999999 267.717769 616.103938zM443.740156 618.15071001L687.510694 374.380172 443.740156 130.60963400000003c-8.801119-8.801119-8.801119-23.128523 0-31.82730401l0 0c8.801119-8.801119 23.128523-8.801119 31.827304 1e-8L733.153708 356.36857899999995c4.912253 4.912253 7.061363 11.564261 6.447332 18.011593 0.614032 6.447332-1.535079 13.09934-6.447332 18.011593l-257.586248 257.586248c-8.801119 8.801119-23.128523 8.801119-31.827304-1e-8C434.939037 641.279232 434.939037 626.951829 443.740156 618.15071001z"  horiz-adv-x="1024" />

    
    <glyph glyph-name="zhuritongji" unicode="&#58973;" d="M998.494783-128H25.505217a22.977673 22.977673 0 0 0-22.977673 22.977673V873.022327a22.977673 22.977673 0 0 0 45.955346 0v-955.066981h950.011893a22.977673 22.977673 0 0 0 0-45.955346zM223.572759 140.14944500000001a22.977673 22.977673 0 0 0-17.922585 37.22383l249.422641 314.104791a22.977673 22.977673 0 0 0 30.675194 4.825311l218.862335-144.75934L884.755301 605.3324359999999a22.977673 22.977673 0 1 0 37.453607-26.539213L729.311343 306.85246299999994a22.977673 22.977673 0 0 0-31.364524-5.859307L477.9356 446.326938 241.610232 149.22562500000004a22.977673 22.977673 0 0 0-18.037473-9.07618zM903.482105 599.702906m-55.491081 0a55.49108 55.49108 0 1 1 110.982161 0 55.49108 55.49108 0 1 1-110.982161 0ZM706.793223 326.95792700000004m-55.49108 0a55.49108 55.49108 0 1 1 110.982161 0 55.49108 55.49108 0 1 1-110.982161 0ZM475.522944 468.845058m-55.49108 0a55.49108 55.49108 0 1 1 110.98216 0 55.49108 55.49108 0 1 1-110.98216 0ZM223.572759 154.51049m-55.491081 0a55.49108 55.49108 0 1 1 110.982161 0 55.49108 55.49108 0 1 1-110.982161 0Z"  horiz-adv-x="1024" />

    
    </font>
</defs>
</svg>
