<?xml version="1.0" standalone="no"?>
<!DOCTYPE svg PUBLIC "-//W3C//DTD SVG 1.1//EN" "http://www.w3.org/Graphics/SVG/1.1/DTD/svg11.dtd" >
<!--
2013-9-30: Created.
-->
<svg>
<metadata>
Created by iconfont
</metadata>
<defs>

<font id="iconfont" horiz-adv-x="1024" >
  <font-face
    font-family="iconfont"
    font-weight="500"
    font-stretch="normal"
    units-per-em="1024"
    ascent="896"
    descent="-128"
  />
    <missing-glyph />
    
    <glyph glyph-name="fangdajing" unicode="&#58945;" d="M969.46183183-26.930134159999966L749.37519313 193.15650457000004c58.88750607 69.53308336 94.40007824 159.49315927 94.40007823 257.7479091 0 220.38781856-178.66009304 399.04791159-399.0479116 399.04791161S45.6783832 671.2932972 45.6783832 450.90441368s178.66009304-399.04791159 399.0479116-399.0479116c98.37926591 0 188.44150936 35.60303344 258.01077639 94.62463296l220.06854689-220.06854688c10.18369768-10.18369768 26.69535752-10.18369768 36.88011913 0l9.77715855 9.77715856C979.64659344-53.625491669999974 979.64659344-37.11383183999999 969.46183183-26.930134159999966zM113.26497448 451.22475032c0 183.96957904 149.13705456 333.1066336 333.10663361 333.1066336s333.1066336-149.13705456 333.10663358-333.1066336-149.13705456-333.1066336-333.10663358-333.1066336S113.26497448 267.25517128 113.26497448 451.22475032z"  horiz-adv-x="1024" />

    
    <glyph glyph-name="liebiao" unicode="&#59029;" d="M370.32250534 674.03741614h534.8048289c22.87837488 0 41.42522469 18.54684981 41.4252247 41.42522469s-18.54684981 41.42522469-41.4252247 41.42522468H370.32250534c-22.87837488 0-41.42522469-18.54684981-41.42522471-41.42522468s18.54684981-41.42522469 41.42522471-41.42522469zM370.31085449 343.64924208h532.84230889c22.87837488 0 41.42522469 18.54684981 41.4252247 41.42522468s-18.54684981 41.42522469-41.4252247 41.42522471H370.31085449c-22.87837488 0-41.42522469-18.54684981-41.42522471-41.42522471s18.54684981-41.42522469 41.42522471-41.42522468zM905.12733424 94.27974573999995H370.32250534c-22.87837488 0-41.42522469-18.54684981-41.42522471-41.42522469s18.54684981-41.42522469 41.42522471-41.4252247h534.8048289c22.87837488 0 41.42522469 18.54684981 41.4252247 41.4252247s-18.54684981 41.42522469-41.4252247 41.42522469zM159.31276705 715.46264083m-82.85044937 0a82.85044939 82.85044939 0 1 1 165.70089876 0 82.85044939 82.85044939 0 1 1-165.70089876 0ZM159.31276705 385.57027493m-82.85044937 0a82.85044939 82.85044939 0 1 1 165.70089876 0 82.85044939 82.85044939 0 1 1-165.70089876 0ZM159.31276705 53.08883247999995m-82.85044937 0a82.85044939 82.85044939 0 1 1 165.70089876 0 82.85044939 82.85044939 0 1 1-165.70089876 0Z"  horiz-adv-x="1024" />

    
    <glyph glyph-name="shujuchuli" unicode="&#59030;" d="M410.323036 39.202118C277.465137 56.374228 158.164166 103.37158 158.164166 163.925861v78.630185c52.420124-38.863195 133.761695-66.880847 229.563989-80.437776 0 20.78729 2.711386 41.574581 7.230362 61.458076-126.531333 18.075905-236.794351 65.073257-236.794351 122.012357v78.630185c63.265666-46.997352 168.105914-78.630185 288.31068-86.764343 16.268314 21.691086 34.344219 42.478376 56.035304 59.650486-164.490733 1.80759-344.345984 56.9391-344.345984 130.146514v58.74669c74.111209-55.131509 206.969109-89.475728 354.287732-89.475728 147.318623 0 280.176523 33.440424 354.287731 89.475728v-58.74669c0-28.921447-27.113857-54.227714-70.496028-75.9188 23.498676-7.230362 45.189762-18.075905 66.880847-30.729038 0.903795 0.903795 2.711386 1.80759 4.518977 2.711386v-5.422772c22.594881-14.460724 43.382171-31.632833 62.361871-51.516328V689.030891c0 109.359223-178.951456 192.508385-416.649603 192.508385s-416.649603-83.149162-416.649603-192.508385V163.925861c0-99.417476 146.414828-176.240071 350.672551-189.797-15.364519 19.883495-28.017652 41.574581-37.055605 65.073257zM512.451898 820.0812c167.202118 0 354.287732-56.035305 354.287731-131.050309S679.654016 557.980583 512.451898 557.980583c-167.202118 0-354.287732 56.035305-354.287732 131.050308S345.249779 820.0812 512.451898 820.0812zM615.484554 57.278023c-11.749338 6.326567-17.172109 2.711386-17.172109-10.845543v-38.863195c-39.76699 22.594881-67.784643 61.458076-74.111209 106.647838 0 10.845543-17.172109 22.594881-28.017653 22.594881-11.749338 0-22.594881-17.172109-22.59488-28.017653 5.422771-45.189762 28.017652-84.052957 56.939099-112.070609 22.594881-17.172109 45.189762-33.440424 67.784643-45.189761v-45.189762c0-5.422771 0-10.845543 4.518976-13.556929 4.518976-1.80759 8.134157-0.903795 12.653133 1.807591l96.70609 73.207414s5.422771 3.615181 5.422772 9.941747-1.80759 7.230362-5.422772 10.845543l-96.70609 68.688438zM876.681377 169.348632l39.76699 22.594881c5.422771 0 5.422771 5.422771 5.422772 10.845543s0 5.422771-5.422772 10.845542l-113.878199 45.189762h-11.749338c-5.422771 0-5.422771-5.422771-5.422772-5.422771l-5.422771-123.819947c0-5.422771 0-5.422771 5.422771-5.422772h11.749338l34.344219 22.594881c0-45.189762-17.172109-89.475728-56.9391-118.397176-11.749338-10.845543-11.749338-22.594881-5.422771-33.440423 11.749338-10.845543 22.594881-10.845543 34.344219 0 56.035305 34.344219 84.052957 107.551633 73.207414 174.43248z m-238.601942 73.207414c0 5.422771 0 5.422771-5.422771 10.845543l-34.344219 17.172109c39.76699 22.594881 84.956752 28.017652 130.146514 10.845543 11.749338-5.422771 28.017652 0 34.344218 17.172109 5.422771 10.845543 0 28.017652-17.172109 33.440424-62.361871 22.594881-141.895852 5.422771-192.508385-33.440424l-45.189762 22.594881h-11.749338c0-5.422771-5.422771-5.422771 0-10.845543l11.749338-118.397175s0-5.422771 5.422772-5.422772h11.749338l113.878199 50.612533v5.422772h-0.903795z"  horiz-adv-x="1024" />

    
    <glyph glyph-name="shujufuwu" unicode="&#59246;" d="M165.96992 360.94975998999996h67.86616889v-69.61379555H165.96992zM479.08636445 360.94975998999996h67.86616888v-69.61379555h-67.86616888zM585.98286222 360.94975998999996h67.86616889v-69.61379555h-67.86616889zM692.87936 360.94975998999996h67.86616889v-69.61379555h-67.86616889zM799.77585778 360.94975998999996h67.86616889v-69.61379555h-67.86616889zM165.09610667 133.75829332h67.86616888v-69.61379555H165.09610667zM478.21255111 133.75829332h67.86616889v-69.61379555h-67.86616889zM585.10904889 133.75829332h67.86616889v-69.61379555h-67.86616889zM692.00554667 133.75829332h67.86616888v-69.61379555h-67.86616888zM798.90204445 133.75829332h67.86616888v-69.61379555h-67.86616888zM948.90666667 483.57489777L884.24448 782.41905777a48.93354667 48.93354667 0 0 1-45.14702222 37.28270222H172.66915555a48.35100445 48.35100445 0 0 1-44.56448-35.24380445L75.09333333 485.03125332C70.72426667 472.21532444 72.18062222 8.220444440000051 72.18062222 8.220444440000051a53.01134222 53.01134222 0 0 1 50.38990223-54.7589689h778.8589511A53.01134222 53.01134222 0 0 1 951.81937778 8.220444440000051s1.45635555 464.28615111-2.91271111 475.35445333z m-61.16693334-71.65269333v-159.90784H136.26026667v159.90784zM186.65016889 750.37923554h638.75754666l58.25422223-268.26069333H139.17297778z m701.08956444-728.17777777H136.26026667V182.98311109999997h751.47946666zM382.09308445 661.54154666h64.07964444v-152.91733334h-64.07964444zM488.98958222 714.2616177699999h64.07964445v-205.63740445h-64.07964445zM595.88608 661.54154666h64.07964445v-152.91733334h-64.07964445z"  horiz-adv-x="1024" />

    
    <glyph glyph-name="pingtaifuwu" unicode="&#59031;" d="M872 780H152C101.6 780 62 740.4 62 690v-432c0-50.4 39.6-90 90-90h342v-144H296c-10.8 0-18-7.2-18-18s7.2-18 18-18h432c10.8 0 18 7.2 18 18s-7.2 18-18 18H530v144h342c50.4 0 90 39.6 90 90V690c0 50.4-39.6 90-90 90z m54-522c0-30.6-23.4-54-54-54H152c-30.6 0-54 23.4-54 54V690c0 30.6 23.4 54 54 54h720c30.6 0 54-23.4 54-54v-432zM578.6 461.4c46.8 36 55.8 104.4 18 151.2s-104.4 55.8-151.2 18-55.8-104.4-18-151.2c5.4-7.2 10.8-12.6 18-18-61.2-25.2-104.4-81-111.6-147.6-1.8-9 5.4-18 16.2-19.8h1.8c9-1.8 18 5.4 19.8 16.2 10.8 79.2 84.6 133.2 162 122.4 63-9 113.4-59.4 122.4-122.4 1.8-9 9-16.2 18-16.2 9 1.8 16.2 10.8 16.2 19.8-7.2 66.6-50.4 122.4-111.6 147.6zM440 546c0 39.6 32.4 72 72 72s72-32.4 72-72-32.4-72-72-72-72 32.4-72 72z"  horiz-adv-x="1024" />

    
    <glyph glyph-name="bianji" unicode="&#59032;" d="M897.08468148-57.27573332999998H74.00106667V765.80788148h411.54180741v-58.25422223H132.25528889v-706.57517036h706.57517036V354.26607407999995h58.25422223zM322.79514075 198.07194074999995l40.8993185 152.55324443 47.33155557 90.7794963L806.912 837.29066667l155.10186667-155.10186667-395.76462222-395.88598518-90.7794963-47.33155557-152.6746074-40.8993185zM418.30779259 329.38666666999995L405.20059259 280.47739259l48.90927408 13.1072 77.18684444 40.29250371 348.31170371 348.3117037-72.69641482 72.69641482-348.3117037-348.31170371-40.29250371-77.18684444z"  horiz-adv-x="1024" />

    
    <glyph glyph-name="ceshi" unicode="&#59062;" d="M827.58489308-67.91154164H196.41510692A59.12509372 59.12509372 0 0 0 135.40704863-11.422599539999965V704.10400927a59.12509372 59.12509372 0 0 0 61.00805829 56.4889421h83.98022732a18.82964818 18.82964818 0 1 0 0-37.65929514H196.41510692a21.46579858 21.46579858 0 0 1-23.34876315-18.82964696v-715.52660881a21.46579858 21.46579858 0 0 1 23.34876315-18.82964697h631.16978616a21.46579858 21.46579858 0 0 1 23.34876315 18.82964697V704.10400927a21.46579858 21.46579858 0 0 1-23.34876315 18.82964696h-83.98022732a18.82964818 18.82964818 0 0 0 0 37.65929514h83.98022732A59.12509372 59.12509372 0 0 0 888.59295137 704.10400927v-715.52660881a59.12509372 59.12509372 0 0 0-61.00805829-56.4889421zM775.61506596 591.12612386h-150.63718055a18.82964818 18.82964818 0 0 1 0-37.65929513h150.63718055a18.82964818 18.82964818 0 0 1 0 37.65929513zM775.61506596 478.14823845h-225.95577082a18.82964818 18.82964818 0 0 1 0-37.65929514h225.95577082a18.82964818 18.82964818 0 0 1 0 37.65929514zM775.61506596 289.85176155h-150.63718055a18.82964818 18.82964818 0 0 1 0-37.65929514h150.63718055a18.82964818 18.82964818 0 0 1 0 37.65929514zM775.61506596 176.87387614h-225.95577082a18.82964818 18.82964818 0 0 1 0-37.65929514h225.95577082a18.82964818 18.82964818 0 0 1 0 37.65929514zM321.44396683 443.12509372a27.86787813 27.86787813 0 0 0-19.95942693 8.28504413l-79.83770524 79.83770647a28.24447105 28.24447105 0 0 0 39.91885261 39.91885262l59.87827956-59.87827954 139.7159848 139.7159848a28.24447105 28.24447105 0 0 0 39.91885263-39.91885263L342.53317127 451.41013785a27.86787813 27.86787813 0 0 0-21.08920444-8.28504413zM391.49025507 210.0140563l55.35916457 55.35916335a27.86787813 27.86787813 0 0 1 0 39.91885384 28.24447105 28.24447105 0 0 1-39.91885262 0l-59.87827955-59.87827955-59.87827954 59.87827955a28.24447105 28.24447105 0 1 1-39.91885263-39.91885384l55.35916335-55.35916335-55.35916335-55.35916336a28.24447105 28.24447105 0 0 1 39.91885263-39.91885384l59.87827954 59.87827955 59.87827955-59.87827955a27.86787813 27.86787813 0 0 1 19.95942571-8.28504412 27.49128522 27.49128522 0 0 1 19.95942691 8.28504412 27.86787813 27.86787813 0 0 1 0 39.91885384zM624.97788541 760.59295137H606.14823845a94.14823845 94.14823845 0 0 1-188.2964769 0h-18.82964696a18.82964818 18.82964818 0 0 1 0-37.65929514h225.95577082a18.82964818 18.82964818 0 0 1 0 37.65929514z"  horiz-adv-x="1024" />

    
    <glyph glyph-name="API" unicode="&#59122;" d="M512 620.25L320.75 513.375v-219.375L512 192.75l191.25 106.875V513.375L512 620.25z m157.5-303.75L512 226.5 354.5 316.5V496.5L512 586.5 669.5 496.5v-180zM298.25 322.125v-236.25L512-37.875l213.75 118.125V322.125L512 440.25 298.25 322.125z m393.75-219.375L512 1.5 332 102.75V299.625L512 400.875l180-101.25V102.75zM748.25 817.125L534.5 699v-236.25l213.75-118.125L962 462.75V699L748.25 817.125z m180-337.5L748.25 384 568.25 479.625V682.125L748.25 783.375l180-101.25v-202.5zM489.5 699L275.75 817.125 62 699v-236.25l213.75-118.125 213.75 118.125V699zM455.75 479.625L275.75 384 95.75 479.625V682.125L275.75 783.375 455.75 682.125v-202.5z"  horiz-adv-x="1024" />

    
    <glyph glyph-name="zhongzhi1" unicode="&#58944;" d="M122.57568236 489.63432297A441.25631525 441.25631525 0 0 0 554.66666666 838.69362252a440.94562608 440.94562608 0 0 0 441.80002133-441.95536593A440.94562608 440.94562608 0 0 0 554.66666666-45.21710932999997c-108.74121482 0-214.06484859 40.77795555-295.6207597 115.57637688a36.42830697 36.42830697 0 0 0-3.41758105 47.61311763 36.35063467 36.35063467 0 0 0 47.53544534 3.41758104c68.04093155-61.20576948 159.77191348-98.6438163 251.50289541-98.6438163a372.82702222 372.82702222 0 0 1 373.83676208 373.99210667A372.82702222 372.82702222 0 0 1 554.66666666 770.80803555a369.25409659 369.25409659 0 0 1-366.9239277-308.90272237l105.24596148 53.90457364c17.01023289 10.17507082 37.36037452 3.41758103 47.61311763-13.59265185 10.17507082-17.01023289 3.33990875-37.36037452-13.59265186-47.61311764l-163.11182222-84.97349215c-6.83516208-3.41758103-17.01023289-3.41758103-23.76772266-3.41758103-6.83516208 0-10.25274311 0-13.59265185 3.41758103-13.59265185 3.41758103-23.84539497 13.59265185-30.60288474 23.76772267l-81.55591111 163.18949452c-6.83516208 17.08790518 0 37.43804682 16.93256058 44.27320888 17.08790518 6.75748978 37.43804682 0 44.2732089-17.08790517l46.99173925-94.06115083z"  horiz-adv-x="1024" />

    
    <glyph glyph-name="icon--copy" unicode="&#59033;" d="M251.76113265-67.88514792000001a125.27159459 125.27159459 0 0 0-125.09998964 125.09998966L126.66114301 707.94071382A125.27159459 125.27159459 0 0 0 251.76113265 833.04070347l520.56353716 0a125.27159459 125.27159459 0 0 0 125.09998966-125.09998965l0-650.64006963a125.27159459 125.27159459 0 0 0-125.09998966-125.09998964z m0 845.84067076a70.18641395 70.18641395 0 0 1-70.1006115-70.10061147l0-650.64006963a70.18641395 70.18641395 0 0 1 70.1006115-70.10061148l520.56353716 0a70.18641395 70.18641395 0 0 1 70.1006115 70.10061148L842.42528131 707.94071382a70.18641395 70.18641395 0 0 1-70.1006115 70.10061148zM306.07409111 355.03518747a27.5425903 27.5425903 0 1 0 0 54.99937815l411.85181778 0a27.5425903 27.5425903 0 1 0 0-54.99937815zM306.07409111 224.95865503000005a27.5425903 27.5425903 0 1 0 0 54.65616829l281.00306317 0a27.5425903 27.5425903 0 1 0 0-55.08518061zM306.07409111 485.54073222a27.5425903 27.5425903 0 1 0 0 55.08518063l411.85181778 0a27.5425903 27.5425903 0 1 0 0-55.08518063z"  horiz-adv-x="1024" />

    
    <glyph glyph-name="yingyong-xian" unicode="&#59343;" d="M747 773.8c87.6 0 158.9-71.3 158.9-158.9 0-87.6-71.3-158.9-158.9-158.9H588.2V615c0 87.6 71.2 158.8 158.8 158.8m0 54.6c-117.9 0-213.5-95.6-213.5-213.5v-213.5H747c117.9 0 213.5 95.6 213.5 213.5-0.1 117.9-95.6 213.5-213.5 213.5z m0 0M277 773.8c87.6 0 158.9-71.3 158.9-158.9V456H277c-87.6 0-158.9 71.3-158.9 158.9 0 87.7 71.3 158.9 158.9 158.9m0 54.6C159.1 828.4 63.5 732.8 63.5 615c0-117.9 95.6-213.5 213.5-213.5h213.5V615C490.4 732.8 394.9 828.4 277 828.4z m0 0M747 311.9c87.6 0 158.9-71.3 158.9-158.9 0-87.6-71.3-158.9-158.9-158.9-87.6 0-158.9 71.3-158.9 158.9V311.9H747m0 54.6H533.6V153c0-117.9 95.6-213.5 213.5-213.5S960.6 35.10000000000002 960.6 153c-0.2 117.9-95.7 213.5-213.6 213.5z m-311.2-54.6V153c0-87.6-71.3-158.9-158.9-158.9-87.6 0-158.9 71.3-158.9 158.9 0 87.6 71.3 158.9 158.9 158.9h158.9m54.6 54.6H277c-117.9 0-213.5-95.6-213.5-213.5S159.1-60.5 277-60.5 490.5 35.10000000000002 490.5 153V366.5z m0 0"  horiz-adv-x="1024" />

    
    <glyph glyph-name="privateremark" unicode="&#59034;" d="M402.73380151 21.48610911000003H206.62784448A116.64614438 116.64614438 0 0 0 90.125 137.91730323000002V732.03882218A116.64614438 116.64614438 0 0 0 206.62784448 848.54166666h565.38988194a116.64614438 116.64614438 0 0 0 116.43119494-116.50284448v-272.69977093a25.86563745 25.86563745 0 0 0-51.73127491-1e-8V732.03882218a64.84321912 64.84321912 0 0 1-64.48496978 64.48496897H206.62784448a64.84321912 64.84321912 0 0 1-64.48496897-64.48496897v-594.12151895a64.84321912 64.84321912 0 0 1 64.48496897-64.48496897h196.10595703a25.86563745 25.86563745 0 1 0 0-51.73127572zM283.00670895 515.78264411a25.86563745 25.86563745 0 0 0 0 51.73127573l414.85330262 1.64794922a25.86563745 25.86563745 0 0 0 0-51.73127572l-415.06825288-1.64794922zM286.73250708 365.67596531000004a25.86563745 25.86563745 0 0 0 0 51.73127573l230.85619052 0.93144892a25.86563745 25.86563745 0 1 0 0-51.73127491l-230.85619052-0.93144974zM286.73250708 206.68469046999996a25.86563745 25.86563745 0 0 0 0 51.73127573l93.93310547 0.35824933a25.86563745 25.86563745 0 0 0 0-51.73127491l-93.93310547-0.35825015zM828.83614969-59.13668297000004H592.82116208a115.786345 115.786345 0 0 0-115.64304593 115.6430451v149.03192917a115.786345 115.786345 0 0 0 115.64304593 115.6430451h236.01498761a115.786345 115.786345 0 0 0 115.64304511-115.6430451v-149.03192917a115.786345 115.786345 0 0 0-115.64304511-115.6430451zM592.82116208 269.52171105a64.05506928 64.05506928 0 0 1-63.98341975-63.98341975v-149.03192917a64.05506928 64.05506928 0 0 1 63.98341975-63.98341973h236.01498761a64.05506928 64.05506928 0 0 1 63.98341974 63.98341973v149.03192917a64.05506928 64.05506928 0 0 1-63.98341974 63.98341975zM717.88303884 137.37126328m-54.03362783 0a54.03362783 54.03362783 0 1 1 108.06725566 0 54.03362783 54.03362783 0 1 1-108.06725566 0ZM621.01992729 283.72826062a29.4293475 29.4293475 0 0 0-27.06521719 17.93478281 134.02173938 134.02173938 0 1 0 249.86413032 7.58152219 29.4293475 29.4293475 0 1 0-55.43478281 19.56521719 75.16304345 75.16304345 0 1 1-140.21739094-4.23913031 29.4293475 29.4293475 0 0 0-27.06521719-40.76086969z"  horiz-adv-x="1036" />

    
    <glyph glyph-name="fuwuye_fuwuye" unicode="&#59174;" d="M988.16 163.84c-5.12 40.96-40.96 66.56-87.04 66.56h-250.88c-10.24 30.72-30.72 51.2-56.32 66.56H430.08c-5.12 0-10.24 5.12-15.36 10.24-35.84 46.08-92.16 76.8-153.6 76.8H46.08c-10.24 0-15.36-10.24-15.36-20.48s5.12-15.36 15.36-20.48h220.16c51.2 0 97.28-20.48 128-61.44 10.24-15.36 25.6-20.48 46.08-20.48h148.48c20.48-10.24 35.84-35.84 35.84-56.32 0-25.6-15.36-46.08-35.84-61.44H440.32c-10.24 0-15.36-10.24-15.36-20.48s5.12-15.36 15.36-20.48h163.84l5.12 5.12c30.72 15.36 51.2 46.08 51.2 81.92h250.88c25.6 0 46.08-15.36 51.2-40.96 5.12-15.36-5.12-40.96-30.72-46.08l-378.88-133.12c-71.68-25.6-148.48-10.24-209.92 30.72l-276.48 184.32c-10.24 5.12-20.48 5.12-25.6-5.12-5.12-10.24-5.12-20.48 5.12-25.6l276.48-184.32c71.68-51.2 158.72-66.56 240.64-35.84l384 133.12c30.72 25.6 51.2 61.44 40.96 97.28zM394.24 547.84l-20.48-122.88c0-5.12 0-15.36 5.12-15.36 5.12-5.12 15.36-5.12 20.48 0L512 465.92l112.64-61.44c5.12-5.12 15.36-5.12 20.48 0 5.12 5.12 10.24 10.24 5.12 15.36l-20.48 128L721.92 640c5.12 5.12 5.12 10.24 5.12 20.48 0 5.12-10.24 10.24-15.36 10.24L583.68 691.2l-56.32 112.64c-5.12 5.12-10.24 10.24-15.36 10.24-5.12 0-15.36-5.12-15.36-10.24L440.32 686.08l-128-15.36c-5.12-5.12-10.24-5.12-15.36-15.36 0-5.12 0-15.36 5.12-20.48l92.16-87.04z m61.44 107.52c5.12 0 10.24 5.12 10.24 10.24l46.08 81.92 40.96-87.04c0-5.12 5.12-10.24 15.36-10.24l92.16-10.24-66.56-66.56c-5.12-5.12-5.12-10.24-5.12-15.36l15.36-92.16-81.92 46.08c-5.12 5.12-10.24 5.12-15.36 0l-87.04-46.08 15.36 92.16c0 5.12 0 10.24-5.12 15.36L363.52 640l92.16 15.36z"  horiz-adv-x="1024" />

    
    <glyph glyph-name="yuanshuju" unicode="&#59036;" d="M346.29910164 671.53287941a51.78153127 51.78153127 0 1 1 0 103.56306134 51.78153127 51.78153127 0 0 1 0-103.56306134z m0-41.42522549a93.20675555 93.20675555 0 1 0 0 186.4135111 93.20675555 93.20675555 0 0 0 0-186.4135111zM139.17297778 402.26891852a51.78153127 51.78153127 0 1 1 0 103.56306132 51.78153127 51.78153127 0 0 1 0-103.56306132z m0-41.42522429a93.20675555 93.20675555 0 1 0 0 186.41351111 93.20675555 93.20675555 0 0 0 0-186.41351111zM284.16126461 8.729283549999991a51.78153127 51.78153127 0 1 1 0 103.56306253 51.78153127 51.78153127 0 0 1 0-103.56306253z m0-41.4252243a93.20675555 93.20675555 0 1 0 0 186.41351112 93.20675555 93.20675555 0 0 0 0-186.41351112zM698.41351111-11.98332799000002a51.78153127 51.78153127 0 1 1 0 103.56306132 51.78153127 51.78153127 0 0 1 0-103.56306132z m0-41.4252255a93.20675555 93.20675555 0 1 0 0 186.41351111 93.20675555 93.20675555 0 0 0 0-186.41351111zM574.13783703 381.55630577a51.78153127 51.78153127 0 1 1 0 103.56306254 51.78153127 51.78153127 0 0 1 0-103.56306254z m0-41.42522429a93.20675555 93.20675555 0 1 0 0 186.41351111 93.20675555 93.20675555 0 0 0 0-186.41351111zM884.82702222 277.99324445a51.78153127 51.78153127 0 1 1 0 103.56306132 51.78153127 51.78153127 0 0 1 0-103.56306132z m0-41.42522429a93.20675555 93.20675555 0 1 0 0 186.41351111 93.20675555 93.20675555 0 0 0 0-186.41351111zM739.83873539 671.53287941a51.78153127 51.78153127 0 1 1 0 103.56306134 51.78153127 51.78153127 0 0 1 0-103.56306134z m0-41.42522549a93.20675555 93.20675555 0 1 0 0 186.4135111 93.20675555 93.20675555 0 0 0 0-186.4135111zM211.02503041 412.62522429c-5.38527881 0-9.71421559 9.27925074-9.71421559 20.71261274s4.34964859 20.71261275 9.71421559 20.71261275H502.26507261c5.38527881 0 9.71421559-9.27925074 9.71421438-20.71261275s-4.34964859-20.71261275-9.71421438-20.71261274H211.04574222zM416.84625849 701.02763899c-4.63962476 0-8.40932101 9.25853772-8.40931981 20.71261275 0 11.43336202 3.76969504 20.71261275 8.40931981 20.71261155h252.44532007c4.63962476 0 8.40932101-9.27925074 8.4093198-20.71261155 0-11.45407503-3.76969504-20.71261275-8.4093198-20.71261275H416.84625849zM196.85760356 496.71843082c-2.15411129-2.8583405-11.28837332 0.41425184-20.42263657 7.29083994-9.13426205 6.87658689-14.80951823 14.76809219-12.63469273 17.62643271l116.83984543 155.07532822c2.15411129 2.8583405 11.30908635-0.41425184 20.4433484-7.29083873 9.11354902-6.87658689 14.78880522-14.76809219 12.63469393-17.62643392l-116.86055846-155.07532822zM632.75453038 487.16991693c-1.73985943-2.69264001-10.93625932 0.16570049-20.52619923 6.37948419-9.61065172 6.23449671-15.9487111 13.46319762-14.20885167 16.15583763l95.19516633 146.58315757c1.73985943 2.69264001 10.93625932-0.16570049 20.52619803-6.40019721 9.61065172-6.2137837 15.9487111-13.46319762 14.20885287-16.15583763l-95.17445452-146.56244455zM777.68067815 77.03947946999995c-1.84342209-3.06546703-11.26766151-0.76636706-21.08543856 5.13672745-9.79706524 5.8823815-16.25940029 13.13179663-14.41597818 16.19726366l100.00049158 166.44655241c1.86413511 3.06546703 11.28837332 0.78707886 21.10615279-5.11601565 9.79706524-5.8823815 16.25940029-13.15250844 14.4159782-16.21797547l-100.02120583-166.4465524zM141.51350257 372.44275674999994c-1.28418156 4.82603827 6.62803555 11.14338585 17.66785873 14.105289 11.03982197 2.96190316 21.06472675 1.44988327 22.36962133-3.39686802L251.87030115 120.57739021999998c1.30489458-4.84675129-6.62803555-11.16409765-17.66785752-14.12600081-11.03982197-2.96190316-21.04401374-1.44988327-22.34890954 3.39686801L141.51350257 372.44275674999994zM577.24472889 369.23230222999996c-1.71914642 4.70176259 5.59240533 11.68191337 16.36296416 15.5965971 10.74984581 3.91468373 20.83688843 3.27259235 22.55603484-1.44988328l92.97891601-255.44864805c1.71914642-4.70176259-5.61311835-11.68191337-16.36296294-15.5965971-10.74984581-3.91468373-20.85760022-3.27259235-22.57674786 1.44988328L577.24472889 369.21158921999995zM779.91764029 668.67453891c-1.73985943 5.07458962 5.59240533 12.19972908 16.42510199 15.92799808 10.81198365 3.72827022 21.00258892 2.63050218 22.74244835-2.44408744l94.82233932-275.39489374c1.76057245-5.07458962-5.59240533-12.22044089-16.42510199-15.92799931-10.81198365-3.72827022-20.9818759-2.63050218-22.74244835 2.44408866l-94.82233932 275.39489375zM346.29910164 13.058220340000048c-5.71668101 0-10.35630577 9.27925074-10.35630698 20.71261153s4.63962476 20.71261275 10.35630698 20.71261275h289.97657244c5.71668101 0 10.35630577-9.27925074 10.35630576-20.71261275s-4.63962476-20.71261275-10.35630576-20.71261153H346.29910164z"  horiz-adv-x="1024" />

    
    <glyph glyph-name="fuwudingyue" unicode="&#59037;" d="M352.92713718 654.3002485h318.14572564v-53.02428761H352.92713718zM644.56071902 442.20309808h53.02428759v-265.12143802h-53.02428759zM803.63358183 336.15452286000004v-53.0242876H538.51214381v53.0242876zM167.34213057 786.8609675v-827.25842306l316.71406986 196.40196129a53.02428761 53.02428761 0 0 0 55.88759914 0L856.65786943-40.397455560000026V786.8609675H167.34213057z m0 53.02428762h689.31573886a53.02428761 53.02428761 0 0 0 53.0242876-53.02428762v-827.25842306a53.02428761 53.02428761 0 0 0-80.96808716-45.07064447L512 110.96037340999999l-316.71406987-196.42847344a53.02428761 53.02428761 0 0 0-80.96808716 45.07064447V786.8609675a53.02428761 53.02428761 0 0 0 53.0242876 53.02428762z"  horiz-adv-x="1024" />

    
    <glyph glyph-name="fuwu2" unicode="&#59038;" d="M524.1804288-60.85042403l-411.48664263 410.95705827a274.3244288 274.3244288 0 0 0 387.65536938 387.65536939l-37.07086848-36.01170091a221.36604445 221.36604445 0 0 1-312.9840492-312.98404807L524.1804288 13.291312930000004l349.52533333 349.52533333a221.36604445 221.36604445 0 1 1-312.9840492 312.98404921L367.95319637 483.03217778l-37.60045283 37.60045283 193.29810091 193.29810091a274.3244288 274.3244288 0 0 0 387.65536938-387.65536939zM810.68528526 502.09719637A105.91676757 105.91676757 0 0 1 728.59978979 595.83353515l7.94375738 52.95838435a155.69764807 155.69764807 0 0 0 126.57053809-140.33971769z"  horiz-adv-x="1024" />

    
    <glyph glyph-name="fabu" unicode="&#59039;" d="M751.97791156-96h-8.72647031c-4.36323469 0-6.5448525 2.18161781-10.90808625 4.36323469-2.18161781 0-6.5448525 2.18161781-8.72646937 4.36323469l-218.16173813 126.53380781-176.71100719-74.17499063c-13.08970406-6.5448525-30.54264281-6.5448525-43.63234687 0-13.08970406 6.5448525-23.99779125 17.45293875-30.54264375 30.54264281-4.36323469 10.90808719-4.36323469 21.81617344-4.36323469 28.36102594v4.36323469l21.81617344 165.80292094c0 2.18161781-2.18161781 4.36323469-2.18161688 4.36323468L75.67652563 342.50509219c-13.08970406 10.90808719-19.63455656 23.99779125-21.81617438 39.26911312-2.18161781 15.27132187 0 30.54264281 10.90808719 41.45073 6.5448525 10.90808719 15.27132187 15.27132187 21.81617343 17.45293875L887.23818875 857.36679281c10.90808719 6.5448525 26.17940812 8.72646938 41.45073 4.36323469s28.36102594-15.27132187 34.9058775-28.36102594c0-2.18161781 2.18161781-2.18161781 2.18161781-4.36323469 4.36323469-10.90808719 4.36323469-21.81617344 4.36323469-28.36102593v-4.36323469l-159.25806844-844.28592375c-6.5448525-28.36102594-30.54264281-47.9955825-58.90366875-47.9955825z m-23.99779125 8.72646938z m26.17940813 45.81396468h2.18161781l159.2580675 842.10430688v6.54485156h-2.18161688l-805.01681062-414.50730094h-2.18161781v-2.18161687s0-2.18161781 2.18161781-4.36323469l191.98232812-143.9867475c15.27132187-10.90808719 23.99779125-30.54264281 23.99779125-50.17719938v-4.36323468l-21.81617343-165.80292v-2.18161782c2.18161781-2.18161781 2.18161781-2.18161781 4.36323468-2.18161687l176.71100719 74.17499063c15.27132187 6.5448525 34.90587844 6.5448525 52.35881719-4.36323469l218.16173719-128.71542563c-2.18161781 0-2.18161781 0 0 0z m-449.41317938 58.90366969z m-2.18161687 2.18161688zM941.77862281 800.64474094zM741.06982437 560.66682937c-13.08970406 10.90808719-32.72426062 8.72646938-43.63234781-2.18161687L450.91471344 270.51171844c-8.72646938-13.08970406-8.72646938-30.54264281 2.18161781-41.45073 13.08970406-10.90808719 32.72426062-10.90808719 43.63234688 0L743.25144125 514.8528646899999c10.90808719 15.27132187 10.90808719 34.90587844-2.18161688 45.81396469"  horiz-adv-x="1024" />

    
    <glyph glyph-name="fuwuguanli" unicode="&#59040;" d="M424.1440625 75.71624999999995H307.540625c-54.4725 0-105.7565625 21.225-144.28875 59.7571875-38.5321875 38.53125-59.758125 89.82-59.758125 144.294375s21.225 105.7575 59.758125 144.290625c38.53125 38.53125 89.81625 59.75625 144.28875 59.75625 16.125 0 29.1515625 13.0284375 29.1515625 29.1478125v0.3646875c0 70.055625 27.328125 136.003125 76.8825 185.469375C463.128125 748.25625 528.989375 775.678125 599.039375 775.678125c42.084375 0 82.35-9.65625 119.514375-28.693125 35.5265625-18.2184375 66.9553125-44.728125 90.82125-76.7934375 9.6571875-12.9346875 27.8765625-15.5775 40.809375-5.9203125 12.9346875 9.65625 15.5775 27.8746875 5.92125 40.809375-29.240625 39.1678125-67.59 71.59875-110.953125 93.8240625-44.90625 22.9546875-95.371875 35.071875-146.115 35.071875-43.269375 0-85.2609375-8.473125-124.7934375-25.2328125-38.1675-16.125-72.51-39.2625-101.9334375-68.6840625-29.4225-29.4234375-52.56-63.765-68.6840625-101.9325-13.21125-31.153125-21.225-63.855-24.0496875-97.471875-59.4815625-6.285-114.59625-32.518125-157.5-75.33375-49.5553125-49.5534375-76.8825-115.5028125-76.8825-185.55375 0-70.05 27.328125-136.003125 76.8815625-185.469375 49.4653125-49.5534375 115.41375-76.8815625 185.46375-76.8815625h116.6025c16.123125 0 29.1459375 13.0275 29.1459375 29.1515625 0.001875 16.125-13.0209375 29.146875-29.1440625 29.146875z m0 0M919.68875 542.115H569.8925c-32.158125 0-58.2984375-26.145-58.2984375-58.299375v-466.396875c0-32.154375 26.1403125-58.299375 58.2984375-58.299375h349.79625c32.1534375 0 58.299375 26.145 58.299375 58.2984375V483.815625c0 32.1553125-26.1459375 58.3003125-58.299375 58.3003125z m0-524.6971875H569.8925V134.01937499999997h349.79625v-116.6015625z m0 174.9H569.8925V308.915625h349.79625v-116.596875z m0 174.89625H569.8925V483.905625v-0.09h349.79625v0.09-116.690625z m0 0M803.091875 425.5171875c0-16.1015625 13.0490625-29.1515625 29.1459375-29.1515625 16.1015625 0 29.1515625 13.05 29.1515625 29.1515625 0 16.096875-13.05 29.146875-29.1515625 29.146875-16.096875 0-29.146875-13.05-29.146875-29.146875z m0-174.9c0-16.096875 13.0490625-29.1525 29.1459375-29.1525 16.1015625 0 29.1515625 13.055625 29.1515625 29.1525 0 16.100625-13.05 29.150625-29.1515625 29.150625-16.096875 0-29.146875-13.05-29.146875-29.150625z m0-174.9009375c0-16.096875 13.0490625-29.1478125 29.1459375-29.1478125 16.1015625 0 29.1515625 13.05 29.1515625 29.146875 0 16.1025-13.05 29.1525-29.1515625 29.1525-16.096875 0-29.146875-13.05-29.146875-29.1515625z m0 0"  horiz-adv-x="1024" />

    
    <glyph glyph-name="weidu1" unicode="&#59026;" d="M917.5552 41.02506665999999H115.2704l-2.512 0.60373333c-40.9536 9.82826667-50.73066667 41.7856-50.23146667 57.93066667V665.7727999900001h43.66186667V98.55999999000005c0.15466667-3.17013333 1.99466667-10.1696 14.5024-13.87413333H917.16266666c6.672 0.44906667 10.7232 4.88533333 12.05973334 13.1904V665.7738666600001h43.6608v-570.77973334l-0.16746667-1.34826666c-5.20533333-41.62346667-38.35733333-52.6208-55.15946667-52.6208zM973.34933333 105.08799998999996h-43.6608V672.32746666c-0.1088 2.1952-1.45706667 13.86346667-17.5712 24.2208H123.0912c-4.88426667-2.71146667-14.23146667-9.616-16.43413334-23.55733334v-567.90613333H62.9952V675.86666666l0.16853333 1.34826666c4.62506667 36.9984 32.26666667 56.21973333 47.872 61.744l3.53493333 1.2512h808.94613334l4.8416-2.60053333c36.60906667-19.67466667 45.48693333-50.59946667 44.992-66.31146667v-566.2112zM674.8896 358.85546666000005l273.4272-276.4608-31.0432-30.70186667-273.4272 276.45973333 31.0432 30.70293334zM358.256 360.37119999000004l31.44533333-30.29226667L121.68533333 51.866666659999964l-31.44533333 30.29226666 268.01493333 278.21226667zM503.97866666 217.47733331999996L78.60266666 551.16159999l26.94826667 34.352 399.15093333-313.11146667C584.78933333 331.88159999000004 914.98666666 577.0506666599999 929.06666666 586.47893332l24.29013334-36.28053333c-12.528-8.42453333-318.97706667-235.8592-436-322.78293333l-13.3792-9.93813334z"  horiz-adv-x="1024" />

    
    <glyph glyph-name="wenjianjiapx" unicode="&#59043;" d="M989.48 436.75555555l-177.72-382.68c-11.16-26.88-33.78-37.2-44.16-37.2L82.28 16.755555550000054C54.56 16.755555550000054 32 42.435555550000004 32 73.99555554999995l0.84 491.4-0.42 145.14c0 6.9 2.4 13.62 6.66 18.54A21.66 21.66 0 0 0 55.4 736.75555555h178.2c9.6 0 18.06-6.72 21.48-16.8l32.58-97.38h195a328.8 328.8 0 0 1-54.66-52.2H271.88c-9.54 0-18.06 6.72-21.42 16.8L217.82 684.55555555H77.84v-610.56c0-2.76 2.04-5.04 4.5-5.04h53.88L296 436.75555555c9 20.58 26.1 37.2 44.1 37.2h616.74c18 0 43.26-13.92 32.64-37.2zM779.3 473.95555555h-1.74V565.27555555c0 31.56-22.56 57.24-50.28 57.24H287.84L255.2 719.95555555C251.84 730.03555555 243.32 736.75555555 233.78 736.75555555H54.98a21.6 21.6 0 0 1-16.32-7.68 28.02 28.02 0 0 1-6.66-18.6l0.12-145.14v-491.4c0-31.5 22.62-57.18 50.34-57.18h644.82l1.44 0.18h50.64c18 0 32.64 16.62 32.64 37.2V436.75555555c0 20.52-14.64 37.2-32.7 37.2z m-47.58 0l11.76-399.96c-12 0-216.6-1.68-613.62-5.04h-47.4c-2.46 0-4.44 2.28-4.44 5.04V565.51555555L77.6 684.55555555H218l32.64-97.32c3.36-10.14 11.94-16.8 21.42-16.8h455.22c2.46 0 4.44-2.28 4.44-5.1V473.95555555z"  horiz-adv-x="1024" />

    
    <glyph glyph-name="wenjianjia" unicode="&#59044;" d="M311.24705908 834H141.41176455C97.57647089 834 62 799.11176455 62 756.01764727V54.335294530000056c0-43.09411729 35.5764709-77.98235273 79.41176455-77.98235361h794.11764727c43.83529453 0 79.41176455 34.88823545 79.41176455 77.98235361V606.7764709c0 43.09411729-35.5764709 77.98235273-79.41176455 77.98235274H528.57058818c-21.07058818 0-41.34705908 8.25882364-56.27647089 22.97647089L367.52352911 811.02352911A80.15294092 80.15294092 0 0 1 311.24705908 834m0-52.94117637c7.14705908 0 14.13529453-2.80588271 19.11176455-7.72941181l104.77058819-103.34117637a132.35294092 132.35294092 0 0 1 93.44117636-38.17058818H935.52941182c14.61176455 0 26.47058818-11.22352911 26.47058818-25.04117638v-552.44117636a25.78235273 25.78235273 0 0 0-26.47058818-25.04117724h-794.11764727a25.78235273 25.78235273 0 0 0-26.47058818 25.04117724V756.01764727C114.94117637 769.83529453 126.8 781.05882363 141.41176455 781.05882363h169.83529453M104.7764709 454.78235273h889.1470582v52.94117638H104.7764709z"  horiz-adv-x="1084" />

    
    <glyph glyph-name="zhongguohangtiantubiaoheji-weizhuanlunkuo-1" unicode="&#59045;" d="M1031.42297866 248.39018484999997h-921.06844382a21.48397852 21.48397852 0 0 0-17.82713056 33.36873307l165.24379213 246.15154217a21.48397852 21.48397852 0 0 0 17.82713185 9.59922395h590.58085827a21.48397852 21.48397852 0 0 0 17.82713055-9.59922395l165.24379342-246.15154217a21.48397852 21.48397852 0 0 0 1.14276402-22.85529714 21.25542519 21.25542519 0 0 0-18.96989586-10.51343593z m-880.84312277 42.51085168h840.38924839l-137.13177765 203.18358384h-566.81135046zM1031.42297866 76.28980346000003h-921.06844382a21.25542519 21.25542519 0 0 0-17.82713056 33.36873178l82.50761941 123.19004839a21.48397852 21.48397852 0 0 0 35.88281572-22.85529714l-60.33798352-89.59276201H991.1976576l-60.33798223 89.59276201a21.48397852 21.48397852 0 0 0 5.94237728 29.71188511 22.85529585 22.85529585 0 0 0 29.94043716-5.71382395l82.50762069-123.19004711a22.85529585 22.85529585 0 0 0 1.14276402-22.85529584 21.48397852 21.48397852 0 0 0-18.96989586-11.65620124zM1031.42297866-93.06794325999999h-921.06844382a21.48397852 21.48397852 0 0 0-17.82713056 33.36873307l75.19392478 112.21950452a22.85529585 22.85529585 0 0 0 29.94043845 5.94237728 22.85529585 22.85529585 0 0 0 5.71382395-29.94043844l-52.79573557-78.62221942H991.1976576l-60.33798223 89.592762a21.48397852 21.48397852 0 1 0 35.88281444 22.85529584l82.50762069-123.19004709a21.48397852 21.48397852 0 0 0 1.14276402-22.85529585 21.25542519 21.25542519 0 0 0-18.96989586-9.37067191zM219.37429804 566.07880384a100.56330458 100.56330458 0 1 0 100.56330457 100.56330457 100.7918566 100.7918566 0 0 0-100.56330457-100.56330457z m0 158.15865213a57.59534625 57.59534625 0 1 1 57.59534755-57.59534756 57.59534625 57.59534625 0 0 1-57.59534755 57.59534756zM918.97492081 566.07880384a100.56330458 100.56330458 0 1 0 100.56330457 100.56330457 100.7918566 100.7918566 0 0 0-100.56330457-100.56330457z m0 158.15865213a57.59534625 57.59534625 0 1 1 57.59534756-57.59534756 57.59534625 57.59534625 0 0 1-57.59534756 57.59534756zM570.88875674 639.9014112899999a117.70477646 117.70477646 0 1 0 117.70477646 117.47622441 117.70477646 117.70477646 0 0 0-117.70477646-117.47622441z m0 192.21304257a74.73681943 74.73681943 0 1 1 74.50826612-74.73681816 74.96537276 74.96537276 0 0 1-74.50826612 74.73681816zM570.88875674 320.84147367a21.48397852 21.48397852 0 0 0-21.48397851 21.48397981v319.9741483a21.48397852 21.48397852 0 1 0 42.96795703 0v-319.9741483a21.48397852 21.48397852 0 0 0-21.48397852-21.48397981zM425.07196584 350.7819121h-3.19974131a21.02687316 21.02687316 0 0 0-18.05568389 24.22661447c28.34056778 189.01330126-93.93526863 233.58112893-99.19198594 235.40955291a21.71253183 21.71253183 0 0 0 13.94173058 40.91098102c1.59987066 0 161.58694547-56.90968759 127.76110703-282.49146324a22.85529585 22.85529585 0 0 0-21.25542647-18.05568516zM730.4187262 352.15323073a21.48397852 21.48397852 0 0 0-21.25542648 18.2842372c-33.82583842 225.58177565 126.16123638 281.80580455 127.76110704 282.49146323a21.48397852 21.48397852 0 0 0 13.71317854-40.91098101c-5.25671862-1.82842398-127.30400039-45.71059299-98.9634339-235.1809996a21.25542519 21.25542519 0 0 0-18.05568389-24.45516779z"  horiz-adv-x="1129" />

    
    <glyph glyph-name="fuwuzhong" unicode="&#59046;" d="M316.12586666 629.9648h477.86666667v-34.13333333h-477.86666667v34.13333333zM94.3616-52.59946666999997a17.06666667 17.06666667 0 0 0-17.06666667 17.06666667c0 253.96906667 206.7456 460.57813333 460.88533333 460.57813333a17.06666667 17.06666667 0 0 0 0-34.13333333c-235.3152 0-426.752-191.30026667-426.752-426.4448a17.06666667 17.06666667 0 0 0-17.06666666-17.06666667zM520.92586666 390.4512c-122.624 0-222.3616 99.7888-222.3616 222.44693333s99.75466667 222.44693333 222.3616 222.44693334 222.3616-99.7888 222.3616-222.44693334-99.7376-222.44693333-222.3616-222.44693333z m0 410.76053333c-103.79946667 0-188.22826667-84.48-188.22826666-188.3136s84.44586667-188.3136 188.22826666-188.3136c103.79946667 0 188.22826667 84.48 188.22826667 188.3136S624.72533333 801.21173333 520.92586666 801.21173333z m65.28-868.43733333a76.32213333 76.32213333 0 0 0-54.30613333 22.49386667l-12.06613333 12.06613333a76.288 76.288 0 0 0-22.49386667 54.30613333 76.288 76.288 0 0 0 22.49386667 54.30613334l94.72 94.73706666a169.50613333 169.50613333 0 0 0 44.06613333 164.72746667 169.2672 169.2672 0 0 0 120.49066667 49.88586667c25.83893333 0 51.72906667-5.95626667 74.87146666-17.23733334a17.06666667 17.06666667 0 0 0 1.80906667-29.66186666 33.024 33.024 0 0 1-5.56373333-4.48853334l-57.32693334-57.32693333c-6.4512-6.4512-10.00106667-15.01866667-10.00106666-24.13226667s3.54986667-17.68106667 10.00106666-24.13226666c12.9024-12.9024 35.36213333-12.9024 48.26453334 0l57.32693333 57.32693333c1.6384 1.6384 3.10613333 3.46453333 4.48853333 5.59786667a17.06666667 17.06666667 0 0 0 29.66186667-1.8432 170.61546667 170.61546667 0 0 0-32.64853333-195.34506667 169.23306667 169.23306667 0 0 0-120.45653334-49.8688c-15.01866667 0-29.86666667 1.9456-44.288 5.80266667l-94.73706666-94.72a76.21973333 76.21973333 0 0 0-54.30613334-22.49386667zM779.09333333 351.16373333a135.40693333 135.40693333 0 0 1-96.3584-39.90186666 135.76533333 135.76533333 0 0 1-32.73386667-140.01493334 17.09333333 17.09333333 0 0 0-4.11306666-17.49333333l-101.9392-101.95626667a42.42773333 42.42773333 0 0 1-12.4928-30.17386666c0-11.38346667 4.43733333-22.10133333 12.4928-30.17386667l12.06613333-12.06613333c16.128-16.128 44.21973333-16.11093333 60.33066667 0l101.9392 101.9392a17.06666667 17.06666667 0 0 0 17.49333333 4.11306666 137.2672 137.2672 0 0 1 43.7248-7.13386666 135.33866667 135.33866667 0 0 1 96.32426667 39.86773333 136.4992 136.4992 0 0 1 35.24266666 131.80586667l-45.824-45.824c-25.7536-25.78773333-70.72426667-25.82186667-96.52906666 0a67.80586667 67.80586667 0 0 0-20.00213334 48.26453333 67.75466667 67.75466667 0 0 0 20.00213334 48.26453333l45.78986666 45.80693334a137.728 137.728 0 0 1-35.41333333 4.67626666z"  horiz-adv-x="1024" />

    
    <glyph glyph-name="shouquan" unicode="&#59048;" d="M980.5625 352.3125c-26.625 37.3125-79.96875 58.59375-133.21875 53.25-16.03125-5.34375-42.65625-15.9375-85.21875-37.3125-16.03125-5.34375-37.3125-21.28125-58.59375-31.96875 5.34375 31.96875-5.34375 58.59375-21.28125 79.96875-15.9375 15.9375-330.375 186.46875-383.71875 186.46875-26.625 0-48-10.6875-58.59375-26.625h-10.6875v101.25H32v-580.875h197.15625v85.21875c90.5625-37.3125 303.75-127.875 325.03125-133.21875 10.6875-5.34375 26.625-5.34375 37.3125-5.34375 16.03125 0 31.96875 5.34375 42.65625 5.34375 31.96875 5.34375 293.0625 143.90625 341.0625 218.53125 21.375 26.625 21.375 58.59375 5.34375 85.3125zM175.90625 149.71875H85.34375V624h90.5625v-474.28125z m756.75 143.90625C890 235.03125 655.53125 107.15625 623.5625 101.8125c-16.03125-5.34375-42.65625-5.34375-53.25 0-16.03125 5.34375-223.78125 90.5625-341.0625 143.90625V522.75h37.3125l5.34375 10.6875s10.6875 10.6875 21.28125 10.6875c37.3125-5.34375 319.78125-149.25 346.40625-175.875 10.6875-10.6875 10.6875-26.625 10.6875-42.65625 0-5.34375-5.34375-16.03125-10.6875-16.03125-16.03125-10.6875-31.96875-10.6875-37.3125-10.6875l-202.5 90.5625-21.28125-48 207.84375-85.3125c42.65625-21.28125 106.59375 10.6875 202.5 58.59375 26.625 10.6875 58.59375 31.96875 69.28125 31.96875 31.96875 5.34375 69.28125-10.6875 79.96875-26.625-0.09375-10.40625-0.09375-15.75-5.4375-26.4375z m0 0M618.21875 517.5c21.28125 0 37.3125 5.34375 53.25 15.9375l90.5625-95.90625c5.34375-5.34375 10.6875-10.6875 21.28125-10.6875 5.34375 0 16.03125 5.34375 21.28125 10.6875 10.6875 10.6875 10.6875 26.625 0 37.3125l-31.875 31.96875 21.28125 21.28125-37.3125 37.3125-26.625-21.28125-21.28125 21.28125c10.6875 15.9375 16.03125 31.96875 16.03125 53.25 0 58.59375-48 106.59375-106.59375 106.59375s-106.59375-48-106.59375-106.59375c0-53.25 48-101.15625 106.59375-101.15625z m-37.3125 138.5625c21.28125 21.28125 53.25 21.28125 69.28125 0 21.28125-21.28125 21.28125-53.25 0-69.28125-21.28125-21.28125-53.25-21.28125-69.28125 0-21.28125 15.9375-21.28125 47.90625 0 69.28125z m0 0"  horiz-adv-x="1024" />

    
    <glyph glyph-name="icon_xinyong_xianxing_jijin-" unicode="&#59050;" d="M881 648c-59.556 0-108 48.456-108 108s48.444 108 108 108 108-48.456 108-108-48.444-108-108-108z m0 168c-33.084 0-60-26.916-60-60s26.916-60 60-60 60 26.916 60 60-26.916 60-60 60zM224 600c-59.544 0-108 48.456-108 108s48.456 108 108 108 108-48.456 108-108-48.456-108-108-108z m0 168c-33.084 0-60-26.916-60-60s26.916-60 60-60 60 26.916 60 60-26.916 60-60 60zM224 600c-59.544 0-108 48.456-108 108s48.456 108 108 108 108-48.456 108-108-48.456-108-108-108z m0 168c-33.084 0-60-26.916-60-60s26.916-60 60-60 60 26.916 60 60-26.916 60-60 60zM536 288c-59.544 0-108 48.444-108 108 0 59.544 48.456 108 108 108 59.556 0 108-48.456 108-108 0-59.556-48.444-108-108-108z m0 168c-33.084 0-60-26.916-60-60s26.916-60 60-60 60 26.916 60 60-26.916 60-60 60zM344 0c-59.544 0-108 48.444-108 108s48.456 108 108 108 108-48.444 108-108-48.456-108-108-108z m0 168c-33.084 0-60-26.916-60-60s26.916-60 60-60 60 26.916 60 60-26.916 60-60 60zM728-96H248C128.9-96 32 0.8999999999999773 32 120c0 103.86 73.944 193.128 175.812 212.232a24 24 0 0 0 8.844-47.184C137.48 270.20399999999995 80 200.784 80 120c0-92.64 75.36-168 168-168h480c119.1 0 216 96.9 216 216 0 105.816-75.564 195.336-179.676 212.856a24.012 24.012 0 0 0 7.968 47.34C899.6 406.764 992 297.34799999999996 992 168c0-145.572-118.428-264-264-264zM768.332 380.50800000000004a24 24 0 0 0-22.428 15.456c-0.84 2.232-1.692 4.452-2.64 6.672a262.632 262.632 0 0 1-56.592 84.024 263.04 263.04 0 0 1-83.844 56.508 258.504 258.504 0 0 1-49.56 15.42 23.988 23.988 0 1 0 9.6 47.028c20.172-4.116 39.888-10.248 58.596-18.228a310.176 310.176 0 0 0 99.144-66.792 310.2 310.2 0 0 0 38.112-46.188 309.612 309.612 0 0 0 28.752-53.1c1.128-2.616 2.208-5.436 3.276-8.256a24 24 0 0 0-22.416-32.544zM212.252 284.64h-0.516a24.012 24.012 0 0 0-23.496 24.504 302.76 302.76 0 0 0 6.132 53.736 305.46 305.46 0 0 0 18.228 58.62 309.888 309.888 0 0 0 28.668 52.932 24 24 0 1 0 39.852-26.748 262.296 262.296 0 0 1-24.3-44.82 258.564 258.564 0 0 1-15.42-49.56 254.484 254.484 0 0 1-5.172-45.144 24 24 0 0 0-23.976-23.52zM476.6 431.4a23.88 23.88 0 0 0-16.968 7.032l-193.2 193.2a24 24 0 1 0 33.936 33.936l193.2-193.2a24 24 0 0 0-16.968-40.968zM390.536 153.96000000000004a23.988 23.988 0 0 0-19.932 37.32l98.88 148.08a23.988 23.988 0 1 0 39.912-26.64l-98.88-148.08a23.952 23.952 0 0 0-19.98-10.68zM307.616 690.12a24 24 0 0 0-1.728 47.928l489.708 35.76c13.2 1.14 24.72-8.964 25.692-22.188a24 24 0 0 0-22.2-25.68l-489.708-35.76a21.66 21.66 0 0 0-1.764-0.06z"  horiz-adv-x="1024" />

    
    <glyph glyph-name="yibaokongfeisvg-" unicode="&#59051;" d="M512-89.31555555c-7.28177778 0-7.28177778 0-14.56355555 7.28177777C482.87288889-82.03377778000004 147.91111111 107.29244444999995 147.91111111 311.18222221999997V718.96177778c0 14.56355555 7.28177778 21.84533333 21.84533334 29.12711111l334.96177777 109.22666666h21.84533333L854.24355555 748.08888889c14.56355555-7.28177778 21.84533333-14.56355555 21.84533334-29.12711111V311.18222221999997c0-196.608-334.96177778-385.93422222-349.52533334-400.49777777H512zM206.16533333 697.11644445V311.18222221999997c0-131.072 203.88977778-276.70755555 305.83466667-334.96177777 94.66311111 58.25422222 305.83466667 203.88977778 305.83466667 334.96177777V697.11644445L512 799.06133333 206.16533333 697.11644445zM512 238.36444444999995c-58.25422222 0-109.22666667 21.84533333-152.91733333 65.536C315.392 340.30933332999996 293.54666667 398.56355555 293.54666667 456.81777778s21.84533333 116.50844445 65.536 152.91733333C439.18222222 697.11644445 584.81777778 697.11644445 664.91733333 609.7351111099999c43.69066667-36.40888889 65.536-94.66311111 65.536-152.91733333s-21.84533333-116.50844445-65.536-152.91733333c-43.69066667-43.69066667-94.66311111-65.536-152.91733333-65.536z m0 364.08888888c-36.40888889 0-72.81777778-14.56355555-101.94488889-43.69066666C380.928 529.6355555499999 366.36444445 493.22666667 366.36444445 456.81777778s14.56355555-72.81777778 43.69066666-101.94488889c58.25422222-58.25422222 145.63555555-58.25422222 203.88977778 0 29.12711111 29.12711111 43.69066667 65.536 43.69066666 101.94488889s-14.56355555 72.81777778-43.69066666 101.94488889C584.81777778 587.88977778 548.40888889 602.4533333300001 512 602.4533333300001zM701.32622222 245.64622222000003c-7.28177778 0-21.84533333 0-29.12711111 7.28177778L570.25422222 362.15466667c-14.56355555 14.56355555-14.56355555 36.40888889 0 50.97244444s36.40888889 14.56355555 50.97244445 0L730.45333333 311.18222221999997c14.56355555-14.56355555 14.56355555-36.40888889 0-50.97244444-7.28177778-7.28177778-14.56355555-14.56355555-29.12711111-14.56355556z"  horiz-adv-x="1024" />

    
    <glyph glyph-name="chakan" unicode="&#59054;" d="M832 512h-64V704a64 64 0 0 1-64 64H192a64 64 0 0 1-64-64v-640a64 64 0 0 1 64-64h192v-64H192a128 128 0 0 0-128 128V704a128 128 0 0 0 128 128h512a128 128 0 0 0 128-128v-192zM640 0a192 192 0 1 1 0 384 192 192 0 0 1 0-384z m0-64a256 256 0 1 0 0 512 256 256 0 0 0 0-512zM854.637082 86.617752m22.627417-22.627417l82.725836-82.725836q22.627417-22.627417 0-45.254834l0 0q-22.627417-22.627417-45.254834 0l-82.725836 82.725836q-22.627417 22.627417 0 45.254834l0 0q22.627417 22.627417 45.254834 0ZM192 640m32 0l320 0q32 0 32-32l0 0q0-32-32-32l-320 0q-32 0-32 32l0 0q0 32 32 32ZM192 512m32 0l192 0q32 0 32-32l0 0q0-32-32-32l-192 0q-32 0-32 32l0 0q0 32 32 32Z"  horiz-adv-x="1024" />

    
    <glyph glyph-name="jia1" unicode="&#59052;" d="M883.67675979 823.43001617h-742.34002648a70.69905013 70.69905013 0 0 1-70.69905013-70.69905014v-742.34002646a70.69905013 70.69905013 0 0 1 70.69905013-70.69905014h742.34002648a70.69905013 70.69905013 0 0 1 70.69905013 70.69905014V752.73096603a70.69905013 70.69905013 0 0 1-70.69905013 70.69905014z m17.67476252-795.36431407a35.34952507 35.34952507 0 0 0-35.34952506-35.34952507h-706.99050141a35.34952507 35.34952507 0 0 0-35.34952506 35.34952507V735.0562035099999a35.34952507 35.34952507 0 0 0 35.34952506 35.34952505h706.99050141a35.34952507 35.34952507 0 0 0 35.34952506-35.34952505v-706.99050141zM777.62818456 408.07309661h-530.24287605v-0.22977192c-0.74234003 0.05302429-1.44933052 0.22977191-2.2093453 0.22977192a26.51214381 26.51214381 0 0 1 0-53.02428761c0.74234003 0 1.46700529 0.15907286 2.2093453 0.24744667v-0.24744667h530.24287605a26.51214381 26.51214381 0 0 1 0 53.02428761zM484.89876747 647.77822611v-530.24287605h0.22977192c-0.05302429-0.74234003-0.22977191-1.44933052-0.22977192-2.20934533a26.51214381 26.51214381 0 0 1 53.02428759 0c0 0.74234003-0.15907286 1.46700529-0.24744667 2.20934533h0.24744667v530.24287605a26.51214381 26.51214381 0 0 1-53.02428759 0z"  horiz-adv-x="1024" />

    
    <glyph glyph-name="shanchu" unicode="&#59064;" d="M379.4898575 89.51419969000005a31.83630281 31.83630281 0 0 1 32.93702531 30.56623781V505.50291094a33.02169656 33.02169656 0 0 1-65.95872281 0v-385.42247344a32.852355 32.852355 0 0 1 33.0216975-30.56623781z m363.49267875 0a31.83630281 31.83630281 0 0 1 32.93702625 30.56623781V505.50291094a33.02169656 33.02169656 0 0 1-65.95872281 0v-385.42247344a31.83630281 31.83630281 0 0 1 33.02169656-30.56623781z m-181.70400375 0a31.83630281 31.83630281 0 0 1 32.93702625 30.56623781V505.50291094a33.02169656 33.02169656 0 0 1-65.95872375 0v-385.42247344a31.83630281 31.83630281 0 0 1 33.0216975-30.56623781zM1053.3864875 739.618275H801.7442225V781.53042844a81.62286094 81.62286094 0 0 1-84.6710175 78.40536281H406.16122813a81.62286094 81.62286094 0 0 1-84.67101844-78.40536281v-41.91215344H69.25524781a30.65090813 30.65090813 0 1 1 0-61.21714594h122.09560781v-643.49973562a132.34080094 132.34080094 0 0 1 136.74369375-127.00652625h466.36796625a132.25612969 132.25612969 0 0 1 136.6590225 127.00652625v643.49973562h122.18027907a31.83630281 31.83630281 0 0 1 32.93702531 30.65090813 31.15893469 31.15893469 0 0 1-32.93702531 29.80419843zM386.77156437 781.53042844a18.45828188 18.45828188 0 0 0 18.88163719 17.95025625h311.67401625a18.54295313 18.54295313 0 0 0 19.3049925-17.61157219v-42.33550875H386.77156437z m478.47592219-746.12100844a68.49885375 68.49885375 0 0 0-70.78497093-65.78938125H328.09454937a68.49885375 68.49885375 0 0 0-70.78497093 65.78938125v643.49973469h607.93790812v-643.49973469z"  horiz-adv-x="1129" />

    
    <glyph glyph-name="development" unicode="&#59053;" d="M908.8 652.56106666V746.66666666a34.13333333 34.13333333 0 0 1-34.13333334 34.13333334H157.86666666a34.13333333 34.13333333 0 0 1-34.13333333-34.13333334v-94.1056h785.06666667z m-785.06666667-68.26666666V29.866666659999964a34.13333333 34.13333333 0 0 1 34.13333333-34.13333333h716.8a34.13333333 34.13333333 0 0 1 34.13333334 34.13333333v92.3648a34.13333333 34.13333333 0 1 0 68.26666666 0V29.866666659999964a102.4 102.4 0 0 0-102.4-102.4H157.86666666a102.4 102.4 0 0 0-102.4 102.4V746.66666666a102.4 102.4 0 0 0 102.4 102.4h716.8a102.4 102.4 0 0 0 102.4-102.4v-128.23893333a34.13333333 34.13333333 0 0 0-34.13333333-34.13333333H123.73333333zM622.76266666 485.23946666A34.13333333 34.13333333 0 0 0 686.93333333 461.9264l-116.736-307.2a34.13333333 34.13333333 0 0 0-64.17066667 23.31306666l116.736 307.2z m158.24213334-34.47466666a34.13333333 34.13333333 0 1 0 50.7904 45.6704l134.8608-150.016a34.13333333 34.13333333 0 0 0 0-45.63626667l-134.8608-150.016a34.13333333 34.13333333 0 0 0-50.7904 45.63626667L895.3856 323.58399999999995l-114.34666667 127.1808z m-360.48213334 0a34.13333333 34.13333333 0 1 1-50.75626666 45.6704l-134.89493334-150.016a34.13333333 34.13333333 0 0 1 0-45.63626667l134.89493334-150.016a34.13333333 34.13333333 0 0 1 50.75626666 45.63626667L306.176 323.58399999999995l114.34666666 127.1808z"  horiz-adv-x="1024" />

    


  </font>
</defs>
</svg>
